<?xml version="1.0" encoding="UTF-8" standalone="no"?>
<svg
   xmlns:dc="http://purl.org/dc/elements/1.1/"
   xmlns:cc="http://creativecommons.org/ns#"
   xmlns:rdf="http://www.w3.org/1999/02/22-rdf-syntax-ns#"
   xmlns:svg="http://www.w3.org/2000/svg"
   xmlns="http://www.w3.org/2000/svg"
   xmlns:sodipodi="http://sodipodi.sourceforge.net/DTD/sodipodi-0.dtd"
   xmlns:inkscape="http://www.inkscape.org/namespaces/inkscape"
   version="1.1"
   id="svg2"
   xml:space="preserve"
   width="1122.5197"
   height="793.70081"
   viewBox="0 0 1122.5197 793.70081"
   sodipodi:docname="bsilk.svg"
   inkscape:version="1.0.2 (e86c870879, 2021-01-15)"><metadata
     id="metadata8"><rdf:RDF><cc:Work
         rdf:about=""><dc:format>image/svg+xml</dc:format><dc:type
           rdf:resource="http://purl.org/dc/dcmitype/StillImage" /><dc:title></dc:title></cc:Work></rdf:RDF></metadata><defs
     id="defs6"><clipPath
       clipPathUnits="userSpaceOnUse"
       id="clipPath20"><path
         d="M 0,0 H 841 V 595 H 0 Z"
         id="path18" /></clipPath></defs><sodipodi:namedview
     pagecolor="#ffffff"
     bordercolor="#666666"
     borderopacity="1"
     objecttolerance="10"
     gridtolerance="10"
     guidetolerance="10"
     inkscape:pageopacity="0"
     inkscape:pageshadow="2"
     inkscape:window-width="1867"
     inkscape:window-height="1016"
     id="namedview4"
     showgrid="false"
     inkscape:zoom="1.0696726"
     inkscape:cx="561.25983"
     inkscape:cy="322.06116"
     inkscape:window-x="1973"
     inkscape:window-y="27"
     inkscape:window-maximized="1"
     inkscape:current-layer="g10" /><g
     id="g10"
     inkscape:groupmode="layer"
     inkscape:label="output"
     transform="matrix(1.3333333,0,0,1.3333333,0,2.184252e-5)"><g
       id="g12" /><g
       id="g2436"><g
         id="g2032"><g
           id="g24"><path
             d="m 390.359,324.602 v -7.204"
             style="fill:none;stroke:#000000;stroke-width:1.98;stroke-linecap:round;stroke-linejoin:round;stroke-miterlimit:10;stroke-dasharray:none;stroke-opacity:1"
             id="path26" /></g><g
           id="g28"><path
             d="m 390.359,324.602 h 14.403"
             style="fill:none;stroke:#000000;stroke-width:1.98;stroke-linecap:round;stroke-linejoin:round;stroke-miterlimit:10;stroke-dasharray:none;stroke-opacity:1"
             id="path30" /></g><g
           id="g32"><path
             d="M 404.762,306.602 H 401.16"
             style="fill:none;stroke:#000000;stroke-width:1.98;stroke-linecap:round;stroke-linejoin:round;stroke-miterlimit:10;stroke-dasharray:none;stroke-opacity:1"
             id="path34" /></g><g
           id="g36"><path
             d="M 401.16,306.602 397.559,303"
             style="fill:none;stroke:#000000;stroke-width:1.98;stroke-linecap:round;stroke-linejoin:round;stroke-miterlimit:10;stroke-dasharray:none;stroke-opacity:1"
             id="path38" /></g><g
           id="g40"><path
             d="m 451.559,342.602 v -7.204"
             style="fill:none;stroke:#000000;stroke-width:1.98;stroke-linecap:round;stroke-linejoin:round;stroke-miterlimit:10;stroke-dasharray:none;stroke-opacity:1"
             id="path42" /></g><g
           id="g44"><path
             d="m 469.559,317.398 v -18"
             style="fill:none;stroke:#000000;stroke-width:1.98;stroke-linecap:round;stroke-linejoin:round;stroke-miterlimit:10;stroke-dasharray:none;stroke-opacity:1"
             id="path46" /></g><g
           id="g48"><path
             d="m 451.559,335.398 18,-18"
             style="fill:none;stroke:#000000;stroke-width:1.98;stroke-linecap:round;stroke-linejoin:round;stroke-miterlimit:10;stroke-dasharray:none;stroke-opacity:1"
             id="path50" /></g><g
           id="g52"><path
             d="m 476.762,328.199 v -36"
             style="fill:none;stroke:#000000;stroke-width:1.98;stroke-linecap:round;stroke-linejoin:round;stroke-miterlimit:10;stroke-dasharray:none;stroke-opacity:1"
             id="path54" /></g><g
           id="g56"><path
             d="m 451.785,310.199 6.977,6.977"
             style="fill:none;stroke:#000000;stroke-width:1.98;stroke-linecap:round;stroke-linejoin:round;stroke-miterlimit:10;stroke-dasharray:none;stroke-opacity:1"
             id="path58" /></g><g
           id="g60"><path
             d="M 447.961,328.199 V 321"
             style="fill:none;stroke:#000000;stroke-width:1.98;stroke-linecap:round;stroke-linejoin:round;stroke-miterlimit:10;stroke-dasharray:none;stroke-opacity:1"
             id="path62" /></g><g
           id="g64"><path
             d="m 458.762,288.602 v -7.204"
             style="fill:none;stroke:#000000;stroke-width:1.98;stroke-linecap:round;stroke-linejoin:round;stroke-miterlimit:10;stroke-dasharray:none;stroke-opacity:1"
             id="path66" /></g><g
           id="g68"><path
             d="M 469.559,299.398 458.762,288.602"
             style="fill:none;stroke:#000000;stroke-width:1.98;stroke-linecap:round;stroke-linejoin:round;stroke-miterlimit:10;stroke-dasharray:none;stroke-opacity:1"
             id="path70" /></g><g
           id="g72"><path
             d="m 476.762,285 v -3.602"
             style="fill:none;stroke:#000000;stroke-width:1.98;stroke-linecap:round;stroke-linejoin:round;stroke-miterlimit:10;stroke-dasharray:none;stroke-opacity:1"
             id="path74" /></g><g
           id="g76"><path
             d="m 483.961,292.199 h -7.199"
             style="fill:none;stroke:#000000;stroke-width:1.98;stroke-linecap:round;stroke-linejoin:round;stroke-miterlimit:10;stroke-dasharray:none;stroke-opacity:1"
             id="path78" /></g><g
           id="g80"><path
             d="M 476.762,292.199 V 281.398"
             style="fill:none;stroke:#000000;stroke-width:1.98;stroke-linecap:round;stroke-linejoin:round;stroke-miterlimit:10;stroke-dasharray:none;stroke-opacity:1"
             id="path82" /></g><g
           id="g84"><path
             d="m 451.559,281.398 h -7.2"
             style="fill:none;stroke:#000000;stroke-width:1.98;stroke-linecap:round;stroke-linejoin:round;stroke-miterlimit:10;stroke-dasharray:none;stroke-opacity:1"
             id="path86" /></g><g
           id="g88"><path
             d="m 455.16,292.199 -3.601,-3.597"
             style="fill:none;stroke:#000000;stroke-width:1.98;stroke-linecap:round;stroke-linejoin:round;stroke-miterlimit:10;stroke-dasharray:none;stroke-opacity:1"
             id="path90" /></g><g
           id="g92"><path
             d="m 451.559,288.602 v -7.204"
             style="fill:none;stroke:#000000;stroke-width:1.98;stroke-linecap:round;stroke-linejoin:round;stroke-miterlimit:10;stroke-dasharray:none;stroke-opacity:1"
             id="path94" /></g><g
           id="g96"><path
             d="m 431.773,310.199 h 20.012"
             style="fill:none;stroke:#000000;stroke-width:1.98;stroke-linecap:round;stroke-linejoin:round;stroke-miterlimit:10;stroke-dasharray:none;stroke-opacity:1"
             id="path98" /></g><g
           id="g100"><path
             d="m 429.961,312.016 1.812,-1.817"
             style="fill:none;stroke:#000000;stroke-width:1.98;stroke-linecap:round;stroke-linejoin:round;stroke-miterlimit:10;stroke-dasharray:none;stroke-opacity:1"
             id="path102" /></g><g
           id="g104"><path
             d="m 429.961,317.398 v -5.382"
             style="fill:none;stroke:#000000;stroke-width:1.98;stroke-linecap:round;stroke-linejoin:round;stroke-miterlimit:10;stroke-dasharray:none;stroke-opacity:1"
             id="path106" /></g><g
           id="g108"><path
             d="M 437.16,299.398 440.762,303"
             style="fill:none;stroke:#000000;stroke-width:1.98;stroke-linecap:round;stroke-linejoin:round;stroke-miterlimit:10;stroke-dasharray:none;stroke-opacity:1"
             id="path110" /></g><g
           id="g112"><path
             d="m 440.762,303 h 18"
             style="fill:none;stroke:#000000;stroke-width:1.98;stroke-linecap:round;stroke-linejoin:round;stroke-miterlimit:10;stroke-dasharray:none;stroke-opacity:1"
             id="path114" /></g><g
           id="g116"><path
             d="m 447.961,321 -3.602,-3.602"
             style="fill:none;stroke:#000000;stroke-width:1.98;stroke-linecap:round;stroke-linejoin:round;stroke-miterlimit:10;stroke-dasharray:none;stroke-opacity:1"
             id="path118" /></g><g
           id="g120"><path
             d="M 437.16,328.199 V 317.398"
             style="fill:none;stroke:#000000;stroke-width:1.98;stroke-linecap:round;stroke-linejoin:round;stroke-miterlimit:10;stroke-dasharray:none;stroke-opacity:1"
             id="path122" /></g><g
           id="g124"><path
             d="m 433.559,285 3.601,3.602"
             style="fill:none;stroke:#000000;stroke-width:1.98;stroke-linecap:round;stroke-linejoin:round;stroke-miterlimit:10;stroke-dasharray:none;stroke-opacity:1"
             id="path126" /></g><g
           id="g128"><path
             d="m 437.16,288.602 v 7.199"
             style="fill:none;stroke:#000000;stroke-width:1.98;stroke-linecap:round;stroke-linejoin:round;stroke-miterlimit:10;stroke-dasharray:none;stroke-opacity:1"
             id="path130" /></g><g
           id="g132"><path
             d="m 437.16,295.801 v 3.597"
             style="fill:none;stroke:#000000;stroke-width:1.98;stroke-linecap:round;stroke-linejoin:round;stroke-miterlimit:10;stroke-dasharray:none;stroke-opacity:1"
             id="path134" /></g><g
           id="g136"><path
             d="m 429.961,295.801 v -3.602"
             style="fill:none;stroke:#000000;stroke-width:1.98;stroke-linecap:round;stroke-linejoin:round;stroke-miterlimit:10;stroke-dasharray:none;stroke-opacity:1"
             id="path138" /></g><g
           id="g140"><path
             d="m 429.961,292.199 -3.602,-3.597"
             style="fill:none;stroke:#000000;stroke-width:1.98;stroke-linecap:round;stroke-linejoin:round;stroke-miterlimit:10;stroke-dasharray:none;stroke-opacity:1"
             id="path142" /></g><g
           id="g144"><path
             d="m 410.43,281.398 h 5.129"
             style="fill:none;stroke:#000000;stroke-width:1.98;stroke-linecap:round;stroke-linejoin:round;stroke-miterlimit:10;stroke-dasharray:none;stroke-opacity:1"
             id="path146" /></g><g
           id="g148"><path
             d="m 426.359,288.602 h -18"
             style="fill:none;stroke:#000000;stroke-width:1.98;stroke-linecap:round;stroke-linejoin:round;stroke-miterlimit:10;stroke-dasharray:none;stroke-opacity:1"
             id="path150" /></g><g
           id="g152"><path
             d="M 408.359,288.602 404.762,285"
             style="fill:none;stroke:#000000;stroke-width:1.98;stroke-linecap:round;stroke-linejoin:round;stroke-miterlimit:10;stroke-dasharray:none;stroke-opacity:1"
             id="path154" /></g><g
           id="g156"><path
             d="m 404.762,285 v -3.602"
             style="fill:none;stroke:#000000;stroke-width:1.98;stroke-linecap:round;stroke-linejoin:round;stroke-miterlimit:10;stroke-dasharray:none;stroke-opacity:1"
             id="path158" /></g><g
           id="g160"><path
             d="m 415.559,295.801 h 7.203"
             style="fill:none;stroke:#000000;stroke-width:1.98;stroke-linecap:round;stroke-linejoin:round;stroke-miterlimit:10;stroke-dasharray:none;stroke-opacity:1"
             id="path162" /></g><g
           id="g164"><path
             d="m 420.434,328.199 9.527,-9.523"
             style="fill:none;stroke:#000000;stroke-width:1.98;stroke-linecap:round;stroke-linejoin:round;stroke-miterlimit:10;stroke-dasharray:none;stroke-opacity:1"
             id="path166" /></g><g
           id="g168"><path
             d="m 429.961,318.676 v -1.278"
             style="fill:none;stroke:#000000;stroke-width:1.98;stroke-linecap:round;stroke-linejoin:round;stroke-miterlimit:10;stroke-dasharray:none;stroke-opacity:1"
             id="path170" /></g><g
           id="g172"><path
             d="m 411.961,328.199 h 8.473"
             style="fill:none;stroke:#000000;stroke-width:1.98;stroke-linecap:round;stroke-linejoin:round;stroke-miterlimit:10;stroke-dasharray:none;stroke-opacity:1"
             id="path174" /></g><g
           id="g176"><path
             d="m 404.762,335.398 7.199,-7.199"
             style="fill:none;stroke:#000000;stroke-width:1.98;stroke-linecap:round;stroke-linejoin:round;stroke-miterlimit:10;stroke-dasharray:none;stroke-opacity:1"
             id="path178" /></g><g
           id="g180"><path
             d="m 419.16,313.801 3.602,3.597"
             style="fill:none;stroke:#000000;stroke-width:1.98;stroke-linecap:round;stroke-linejoin:round;stroke-miterlimit:10;stroke-dasharray:none;stroke-opacity:1"
             id="path182" /></g><g
           id="g184"><path
             d="M 404.762,313.801 H 419.16"
             style="fill:none;stroke:#000000;stroke-width:1.98;stroke-linecap:round;stroke-linejoin:round;stroke-miterlimit:10;stroke-dasharray:none;stroke-opacity:1"
             id="path186" /></g><g
           id="g188"><path
             d="M 397.559,292.199 404.762,285"
             style="fill:none;stroke:#000000;stroke-width:1.98;stroke-linecap:round;stroke-linejoin:round;stroke-miterlimit:10;stroke-dasharray:none;stroke-opacity:1"
             id="path190" /></g><g
           id="g192"><path
             d="M 397.559,303 V 292.199"
             style="fill:none;stroke:#000000;stroke-width:1.98;stroke-linecap:round;stroke-linejoin:round;stroke-miterlimit:10;stroke-dasharray:none;stroke-opacity:1"
             id="path194" /></g><g
           id="g196"><path
             d="m 404.762,299.398 h 7.199"
             style="fill:none;stroke:#000000;stroke-width:1.98;stroke-linecap:round;stroke-linejoin:round;stroke-miterlimit:10;stroke-dasharray:none;stroke-opacity:1"
             id="path198" /></g><g
           id="g200"><path
             d="m 411.961,299.398 3.598,-3.597"
             style="fill:none;stroke:#000000;stroke-width:1.98;stroke-linecap:round;stroke-linejoin:round;stroke-miterlimit:10;stroke-dasharray:none;stroke-opacity:1"
             id="path202" /></g><g
           id="g204"><path
             d="M 354.359,324.602 V 245.398"
             style="fill:none;stroke:#000000;stroke-width:1.98;stroke-linecap:round;stroke-linejoin:round;stroke-miterlimit:10;stroke-dasharray:none;stroke-opacity:1"
             id="path206" /></g><g
           id="g208"><path
             d="m 368.762,281.398 7.199,7.204"
             style="fill:none;stroke:#000000;stroke-width:1.98;stroke-linecap:round;stroke-linejoin:round;stroke-miterlimit:10;stroke-dasharray:none;stroke-opacity:1"
             id="path210" /></g><g
           id="g212"><path
             d="M 368.762,281.398 V 276"
             style="fill:none;stroke:#000000;stroke-width:1.98;stroke-linecap:round;stroke-linejoin:round;stroke-miterlimit:10;stroke-dasharray:none;stroke-opacity:1"
             id="path214" /></g><g
           id="g216"><path
             d="m 361.559,249 h 14.402"
             style="fill:none;stroke:#000000;stroke-width:1.98;stroke-linecap:round;stroke-linejoin:round;stroke-miterlimit:10;stroke-dasharray:none;stroke-opacity:1"
             id="path218" /></g><g
           id="g220"><path
             d="M 357.961,252.602 361.559,249"
             style="fill:none;stroke:#000000;stroke-width:1.98;stroke-linecap:round;stroke-linejoin:round;stroke-miterlimit:10;stroke-dasharray:none;stroke-opacity:1"
             id="path222" /></g><g
           id="g224"><path
             d="M 357.961,313.801 V 252.602"
             style="fill:none;stroke:#000000;stroke-width:1.98;stroke-linecap:round;stroke-linejoin:round;stroke-miterlimit:10;stroke-dasharray:none;stroke-opacity:1"
             id="path226" /></g><g
           id="g228"><path
             d="m 477.676,231.238 -0.528,1.293 -0.269,1.364 v 1.41 l 0.269,1.367 0.528,1.289 0.777,1.152 0.992,0.992 1.157,0.782 1.289,0.523 1.363,0.27 h 1.41 l 1.367,-0.27 1.289,-0.523 0.93,-0.633 v 49.187 l -0.328,-0.496 -0.707,-0.707 -0.84,-0.554 -0.93,-0.387 -0.976,-0.195 h -1.02 l -0.972,0.195 -0.93,0.387 -0.844,0.554 -0.117,0.121 v -3.57 l 0.133,-0.133 0.554,-0.84 0.391,-0.929 0.195,-0.977 v -1.019 l -0.195,-0.977 -0.391,-0.93 -0.554,-0.839 -0.703,-0.704 -0.84,-0.554 -0.93,-0.391 -0.976,-0.195 h -1.02 l -0.977,0.195 -0.929,0.391 -0.84,0.554 -0.703,0.704 -0.555,0.839 -0.391,0.93 -0.195,0.977 v 1.019 l 0.195,0.977 0.391,0.929 0.555,0.84 0.133,0.133 v 7.215 l -0.012,0.195 0.012,0.196 v 5.207 l -0.18,-0.332 -0.359,-0.45 -0.122,-0.136 -0.132,-0.118 -9.555,-9.554 v -0.633 l 0.164,0.168 0.84,0.539 1.019,0.375 0.782,-0.57 v -4.922 h 1.14 v 4.922 l 0.778,0.57 1.019,-0.375 0.844,-0.539 0.719,-0.707 0.57,-0.824 0.391,-0.93 0.207,-0.992 v -1.125 h -5.731 v -1.141 h 0.063 v -4.918 h 1.14 v 4.918 h 4.528 v -1.125 l -0.207,-0.988 -0.391,-0.93 -0.57,-0.824 -0.719,-0.707 -0.844,-0.539 -1.019,-0.375 -0.778,0.57 h -1.14 l -0.782,-0.57 -1.019,0.375 -0.84,0.539 -0.375,0.375 -0.766,-0.629 -0.882,-0.465 -0.961,-0.301 -1.004,-0.089 -1.008,0.089 -0.957,0.301 -0.887,0.465 -0.75,0.613 -0.75,-0.613 -0.887,-0.465 -0.957,-0.301 -1.007,-0.089 -1.004,0.089 -0.961,0.301 -0.883,0.465 -0.031,0.031 -0.043,-0.047 -0.422,-0.359 -0.496,-0.254 -0.539,-0.168 -0.555,-0.058 h -4.531 l -0.555,0.058 -0.539,0.168 -0.496,0.254 -0.418,0.359 -0.359,0.438 -0.274,0.492 -0.148,0.527 -0.059,0.555 v 6.809 l 0.043,0.523 -0.766,-0.777 v -0.047 l -0.195,-0.945 -0.375,-0.914 -0.539,-0.809 -0.687,-0.691 -0.813,-0.54 -0.914,-0.375 -0.945,-0.195 h -0.989 l -0.945,0.195 -0.918,0.375 -0.808,0.54 -0.211,0.21 v -1.964 l 5.957,-5.957 0.132,-0.118 0.481,-0.586 0.359,-0.66 0.211,-0.718 0.063,-0.555 0.011,-0.195 -0.011,-0.196 v -3.179 h 3.179 l 0.196,0.011 0.191,-0.011 0.559,-0.063 0.718,-0.211 0.661,-0.359 0.586,-0.481 0.117,-0.133 0.765,0.075 1.004,-0.09 0.961,-0.301 0.887,-0.465 0.75,-0.613 0.75,0.613 0.883,0.465 0.961,0.301 1.004,0.09 1.007,-0.09 0.957,-0.301 0.887,-0.465 0.75,-0.613 0.75,0.613 0.887,0.465 0.957,0.301 1.008,0.09 1.004,-0.09 0.961,-0.301 0.882,-0.465 0.75,-0.613 0.75,0.613 0.887,0.465 0.957,0.301 1.008,0.09 1.004,-0.09 0.961,-0.301 0.883,-0.465 0.781,-0.644 0.629,-0.782 0.48,-0.882 0.285,-0.961 0.075,-0.75 v -2.758 l -0.075,-0.75 -0.285,-0.961 -0.148,-0.285 h 2.82 l 0.133,0.133 0.84,0.554 0.929,0.391 0.977,0.195 h 1.02 l 0.976,-0.195 0.93,-0.391 0.84,-0.554 0.703,-0.704 0.554,-0.839 0.391,-0.93 0.195,-0.977 v -1.019 l -0.195,-0.977 -0.391,-0.929 -0.554,-0.84 -0.703,-0.703 -0.84,-0.555 -0.93,-0.391 -0.976,-0.195 h -1.02 l -0.977,0.195 -0.929,0.391 -0.84,0.555 -0.133,0.132 h -3.586 l -0.058,-0.523 -0.211,-0.719 -0.211,-0.39 -0.149,-0.27 -0.359,-0.449 -0.121,-0.137 -0.137,-0.121 -1.062,-1.062 v -1.965 l -0.063,-0.559 -0.148,-0.539 -0.27,-0.492 -0.359,-0.422 -0.242,-0.211 0.421,-0.059 0.403,-0.929 0.226,-0.977 0.032,-1.004 -0.168,-0.992 -0.36,-0.93 -0.133,-0.253 -0.961,-0.149 -2.699,2.699 0.043,0.032 -0.793,0.808 -0.047,-0.047 -0.043,0.047 -0.796,-0.808 0.046,-0.032 -2.703,-2.699 -0.957,0.149 -0.406,0.929 -0.227,0.977 -0.027,1.004 0.164,0.992 0.36,0.941 0.136,0.242 0.418,0.059 -0.238,0.211 -0.359,0.422 -0.274,0.492 -0.148,0.539 -0.059,0.559 v 4.527 l 0.059,0.555 0.148,0.543 0.274,0.492 0.359,0.422 0.418,0.359 0.496,0.27 0.539,0.148 0.555,0.063 h 1.965 l 0.078,0.074 v 1.816 l -0.016,0.196 0.016,0.195 v 2.039 l -0.528,-0.438 -0.882,-0.464 -0.961,-0.297 -1.004,-0.09 -1.008,0.09 -0.957,0.297 -0.887,0.464 -0.523,0.438 v -2.039 l 0.011,-0.195 -0.043,-0.512 -0.031,-0.238 -0.211,-0.723 -0.359,-0.66 -0.359,-0.449 -0.122,-0.133 -0.132,-0.121 -6.286,-6.27 v -5.941 l -0.046,-0.571 -0.164,-0.523 -0.27,-0.496 -0.344,-0.434 -0.437,-0.347 -0.492,-0.27 -0.332,-0.105 h 13.89 l 2.699,2.703 2.7,-2.703 -0.164,-0.946 -0.915,-0.418 -0.976,-0.226 -1.004,-0.016 -0.988,0.168 -0.946,0.359 -0.242,0.133 -0.164,0.946 h -13.89 l -0.196,-0.059 -0.57,-0.047 h -8.488 l -0.571,0.047 -0.523,0.164 -0.496,0.27 -0.438,0.347 -0.343,0.434 -0.27,0.496 -0.164,0.523 -0.047,0.571 v 8.492 l 0.047,0.566 0.164,0.528 0.27,0.496 0.343,0.433 0.438,0.344 0.496,0.27 0.523,0.168 0.571,0.043 h 5.937 l 5.281,5.296 v 0.645 l -0.523,-0.438 -0.887,-0.464 -0.961,-0.297 -1.004,-0.09 -1.004,0.09 -0.96,0.297 -0.883,0.464 -0.782,0.649 -0.628,0.777 -0.481,0.887 -0.285,0.961 -0.074,0.75 v 1.062 l -0.09,0.09 h -2.027 l -0.301,-0.238 -0.492,-0.27 -0.543,-0.168 -0.555,-0.043 h -3.391 l -0.554,0.043 -0.539,0.168 -0.497,0.27 -0.179,0.148 v -0.074 l -0.824,-0.359 -0.872,-0.18 -0.898,-0.016 -0.871,0.165 -0.84,0.332 -0.105,0.058 -0.09,0.899 2.297,2.296 0.043,-0.046 0.796,0.796 -0.046,0.043 0.046,0.047 -0.796,0.793 -0.043,-0.043 -2.297,2.293 0.09,0.903 0.828,0.359 0.867,0.18 0.902,0.015 0.883,-0.164 0.57,-0.226 v 1.457 l -5.953,5.953 -0.136,0.121 -0.122,0.133 -0.359,0.453 -0.359,0.656 -0.211,0.723 -0.074,0.75 0.015,0.195 v 6.777 h -9.84 l 0.032,-0.285 -2.297,-2.293 -0.043,0.043 -0.797,-0.793 0.047,-0.047 h 1.59 l 2.293,2.297 0.902,-0.09 0.359,-0.824 0.18,-0.871 0.016,-0.898 -0.168,-0.871 -0.329,-0.84 -0.058,-0.106 -0.902,-0.09 -2.293,2.293 h -1.59 l -0.047,-0.043 0.797,-0.796 0.043,0.046 2.297,-2.296 -0.09,-0.899 -0.828,-0.359 -0.868,-0.18 -0.902,-0.016 -0.883,0.165 -0.57,0.226 v -2.851 l 0.016,-0.196 -0.016,-0.195 -0.063,-0.555 -0.207,-0.719 -0.363,-0.66 -0.476,-0.586 -0.137,-0.121 -1.262,-1.258 h 4.516 v 0.989 l 0.195,0.945 0.375,0.914 0.539,0.813 0.692,0.687 0.808,0.543 0.918,0.375 0.945,0.195 h 0.989 l 0.945,-0.195 0.914,-0.375 0.813,-0.543 0.687,-0.687 0.539,-0.813 0.375,-0.914 0.195,-0.945 v -0.989 l -0.195,-0.945 -0.375,-0.914 -0.539,-0.812 -0.027,-0.028 v -2.418 l 0.09,-0.09 h 0.195 l 0.973,-0.195 0.929,-0.387 0.84,-0.554 0.707,-0.707 0.301,-0.45 -0.063,0.286 -0.015,0.898 0.168,0.871 0.328,0.84 0.058,0.105 0.903,0.09 2.293,-2.297 -2.293,-2.293 -0.707,0.075 0.168,-0.871 v -1.02 l -0.196,-0.973 -0.39,-0.929 -0.555,-0.84 -0.707,-0.707 -0.84,-0.555 -0.929,-0.39 -0.973,-0.196 h -1.024 l -0.972,0.196 -0.93,0.39 -0.84,0.555 -0.707,0.707 -0.554,0.84 -0.391,0.929 -0.195,0.973 v 0.195 l -1.079,1.082 -0.136,0.118 -0.117,0.136 -0.364,0.45 -0.027,0.031 -0.332,0.629 -0.207,0.718 -0.047,0.348 -0.031,0.402 0.015,0.196 v 3.812 l -0.031,0.028 -0.539,0.812 -0.375,0.914 -0.195,0.945 h -4.516 l -4.691,-4.695 v -17.64 l 0.687,-0.465 0.586,-0.586 h 5.192 l 0.386,1.156 1.262,0.613 1.352,0.348 1.394,0.074 1.379,-0.195 1.32,-0.449 0.735,-0.391 0.39,-1.156 h 6.18 l 0.391,1.156 1.257,0.613 1.352,0.348 1.395,0.074 1.378,-0.195 1.321,-0.449 0.734,-0.391 0.391,-1.156 -4.11,-4.125 -4.109,4.125 h -6.18 l -4.109,-4.125 -4.109,4.125 h -5.192 l 0.406,-0.403 0.778,-1.156 0.527,-1.289 0.27,-1.367 v -0.418 h 0.211 l 0.195,1.379 0.449,1.32 0.391,0.735 1.152,0.39 4.125,-4.109 h 1.59 l 4.125,4.109 1.156,-0.39 0.613,-1.258 0.348,-1.352 0.043,-0.824 h 0.211 l 0.195,1.379 0.45,1.32 0.39,0.735 1.156,0.39 4.125,-4.109 h 1.59 l 4.125,4.109 1.153,-0.39 0.617,-1.258 0.344,-1.352 0.074,-1.394 -0.196,-1.379 -0.449,-1.321 -0.39,-0.738 -1.153,-0.387 -4.125,4.11 h -1.59 l -4.125,-4.11 -1.156,0.387 -0.613,1.262 -0.348,1.351 -0.074,1.395 h -0.211 l 0.031,-0.57 -0.195,-1.379 -0.449,-1.321 -0.391,-0.738 -1.156,-0.387 -4.125,4.11 h -1.59 l -4.125,-4.11 -1.152,0.387 -0.617,1.262 -0.344,1.351 -0.074,1.395 h -0.211 v -0.992 l -0.27,-1.364 -0.527,-1.289 -0.778,-1.156 -0.406,-0.406 h 5.192 l 4.109,4.125 4.109,-4.125 h 6.18 l 4.109,4.125 4.11,-4.125 -0.391,-1.152 -1.258,-0.618 -1.351,-0.343 -1.395,-0.075 -1.379,0.196 -1.32,0.449 -0.734,0.391 -0.391,1.152 h -6.18 l -0.39,-1.152 -1.258,-0.618 -1.352,-0.343 -1.394,-0.075 -1.379,0.196 -1.32,0.449 -0.739,0.391 -0.386,1.152 h -5.192 l -0.586,-0.582 -1.152,-0.781 -1.293,-0.528 -1.363,-0.269 h -1.411 l -1.367,0.269 -1.289,0.528 -1.152,0.781 -0.992,0.988 -0.782,1.156 -0.523,1.289 -0.27,1.364 v 1.41 l 0.149,0.812 -0.375,0.387 -0.016,-0.629 -0.703,-0.703 h -5.805 v 0.059 h -1.14 v -0.059 h -5.805 l -0.707,0.703 -0.012,2.973 0.043,0.566 0.164,0.528 0.274,0.496 0.344,0.433 0.433,0.344 0.496,0.27 0.524,0.168 0.57,0.043 h 2.551 l -8.086,8.07 -0.133,0.121 -0.121,0.133 -0.359,0.453 -0.36,0.656 -0.211,0.723 -0.074,0.75 0.016,0.195 v 6.074 l -0.285,-0.226 -0.961,-0.524 -1.051,-0.316 -1.078,-0.106 -1.082,0.106 -1.051,0.316 -0.957,0.524 -0.844,0.691 -0.687,0.84 -0.528,0.961 -0.312,1.051 -0.074,0.808 v 0.809 l 0.074,0.812 0.312,1.047 0.528,0.961 0.687,0.84 0.106,0.09 v 6.449 l -0.012,0.195 0.012,0.196 0.062,0.554 0.207,0.723 0.106,0.207 0.257,0.453 0.36,0.449 0.121,0.133 0.133,0.121 3.586,3.571 -0.047,0.179 v 1.231 l 0.242,1.199 0.48,1.141 0.672,1.019 0.871,0.871 1.02,0.676 1.141,0.481 1.199,0.238 h 1.23 l 1.199,-0.238 1.141,-0.481 1.02,-0.676 0.871,-0.871 0.105,-0.148 h 6.059 l 0.136,0.133 0.84,0.554 0.93,0.391 0.977,0.195 h 1.019 l 0.973,-0.195 0.929,-0.391 0.84,-0.554 0.121,-0.118 v 10.364 l -0.015,0.195 0.015,0.195 0.063,0.555 0.207,0.719 0.168,0.316 0.191,0.344 0.364,0.449 0.117,0.137 0.136,0.121 3.344,3.344 0.121,0.136 0.133,0.118 0.453,0.363 0.328,0.18 0.332,0.179 0.719,0.207 0.555,0.063 0.195,0.015 h 0.059 l -0.239,0.254 -0.539,0.793 -0.375,0.887 -0.179,0.945 v 0.961 l 0.179,0.946 0.375,0.882 0.539,0.797 0.676,0.672 0.793,0.543 0.887,0.375 0.945,0.18 h 0.957 l 0.946,-0.18 0.886,-0.375 0.735,-0.496 h 9.765 l 0.075,0.074 v 3.106 l 0.058,0.554 0.152,0.528 0.27,0.492 0.359,0.437 0.422,0.36 0.492,0.254 0.301,0.09 -0.855,0.855 h -6.688 l -0.195,-0.016 -0.195,0.016 -0.555,0.059 -0.723,0.211 -0.629,0.332 v -0.887 l -0.195,-0.977 -0.391,-0.929 -0.554,-0.84 -0.703,-0.703 -0.84,-0.555 -0.93,-0.391 -0.976,-0.195 h -1.02 l -0.977,0.195 -0.929,0.391 -0.84,0.555 -0.133,0.132 h -7.172 l 0.121,-0.117 0.555,-0.84 0.391,-0.929 0.195,-0.977 v -1.019 l -0.195,-0.977 -0.391,-0.93 -0.555,-0.839 -0.707,-0.704 -0.84,-0.554 -0.929,-0.391 -0.973,-0.195 h -1.019 l -0.977,0.195 -0.93,0.391 -0.84,0.554 -0.707,0.704 -0.554,0.839 -0.391,0.93 -0.191,0.977 v 1.019 l 0.191,0.977 0.391,0.929 0.554,0.84 0.137,0.133 v 0.422 l -0.137,0.133 -0.554,0.84 -0.391,0.929 -0.191,0.977 v 1.019 l 0.191,0.977 0.391,0.93 0.554,0.839 0.707,0.704 0.84,0.554 0.93,0.391 0.977,0.195 h 1.019 l 0.973,-0.195 0.929,-0.391 0.84,-0.554 0.137,-0.133 h 7.621 l 0.133,0.133 0.84,0.554 0.929,0.391 0.977,0.195 h 0.797 l -2.867,2.867 -0.133,0.118 -0.121,0.136 -0.36,0.45 -0.363,0.66 -0.207,0.718 -0.074,0.75 0.012,0.196 v 14.418 l -0.133,0.133 -0.555,0.839 -0.391,0.93 -0.195,0.977 v 1.019 l 0.195,0.977 0.391,0.929 0.555,0.84 0.703,0.703 0.84,0.555 0.929,0.391 0.977,0.195 h 1.02 l 0.976,-0.195 0.93,-0.391 0.84,-0.555 0.703,-0.703 0.554,-0.84 0.391,-0.929 0.195,-0.977 v -1.019 l -0.195,-0.977 -0.391,-0.93 -0.554,-0.839 -0.133,-0.133 v -13.024 l 4.965,-4.965 h 6.703 l 0.18,0.016 0.195,-0.016 0.555,-0.058 0.722,-0.211 0.66,-0.359 0.582,-0.481 0.122,-0.133 7.171,-7.172 0.524,-0.043 0.961,-0.3 0.883,-0.465 0.527,-0.438 v 2.446 l -0.137,0.136 -0.554,0.84 -0.391,0.93 -0.195,0.976 v 1.02 l 0.195,0.973 0.391,0.929 0.554,0.84 0.707,0.707 0.84,0.555 0.93,0.39 0.972,0.196 h 1.024 l 0.973,-0.196 0.929,-0.39 0.84,-0.555 0.707,-0.707 0.555,-0.84 0.39,-0.929 0.196,-0.973 v -0.152 h 0.582 l 0.168,0.992 0.359,0.945 0.133,0.238 0.961,0.164 2.699,-2.699 -2.699,-2.699 -0.961,0.164 -0.402,0.914 -0.227,0.977 -0.031,1.004 h -0.582 v -0.868 l -0.196,-0.976 -0.39,-0.93 -0.555,-0.84 -0.137,-0.136 v -0.106 h 4.278 l 2.699,2.703 2.699,-2.703 -0.164,-0.957 -0.918,-0.406 -0.973,-0.227 -1.003,-0.027 -0.993,0.164 -0.945,0.359 -0.238,0.137 -0.164,0.957 h -4.278 v -2.324 l 0.164,0.168 0.84,0.539 1.024,0.375 0.777,-0.57 v -4.922 h 1.141 v 4.922 l 0.781,0.57 1.019,-0.375 0.84,-0.539 0.719,-0.707 0.57,-0.824 0.391,-0.93 0.211,-0.992 v -1.125 h -5.731 v -1.141 h 0.059 v -0.058 h 1.141 v 0.058 h 4.531 v -1.125 l -0.211,-0.988 -0.285,-0.692 h 1.23 l 3.465,3.465 v 0.184 l 0.195,0.988 0.391,0.93 0.555,0.84 0.703,0.707 0.84,0.554 0.929,0.387 0.977,0.195 h 1.02 l -6.211,6.211 0.015,-0.644 -0.164,-0.988 -0.359,-0.946 -0.137,-0.242 -0.961,-0.164 -2.699,2.699 0.047,0.047 -0.797,0.793 -0.043,-0.043 -2.699,2.699 0.164,0.961 0.914,0.403 0.976,0.226 1.004,0.031 h 0.016 l -0.332,0.614 -0.207,0.718 -0.078,0.75 0.015,0.196 v 5.418 l -10.89,10.886 h -0.196 l -0.972,0.196 -0.93,0.39 -0.84,0.555 -0.707,0.707 -0.554,0.84 -0.391,0.93 -0.195,0.972 v 0.196 l -1.079,1.082 -2.609,2.609 H 384.75 l -4.125,-4.125 0.18,-0.18 0.675,-1.019 0.133,-0.301 h 3.828 l 0.36,0.93 0.539,0.855 0.676,0.719 0.824,0.586 0.914,0.406 0.258,0.074 0.777,-0.57 v -3.781 h 1.141 v 3.781 l 0.781,0.57 0.254,-0.074 0.914,-0.406 0.824,-0.586 0.676,-0.719 0.543,-0.855 0.359,-0.93 -0.554,-0.781 h -8.731 l -0.555,0.781 h -3.828 l 0.348,-0.84 0.238,-1.199 v -0.66 h 3.242 l 0.555,0.777 h 3.793 v -3.777 h 1.141 v 3.777 h 3.797 l 0.554,-0.777 -0.359,-0.93 -0.543,-0.855 -0.676,-0.719 -0.824,-0.586 -0.914,-0.406 -0.254,-0.075 -0.781,0.571 h -1.141 l -0.777,-0.571 -0.258,0.075 -0.914,0.406 -0.824,0.586 -0.676,0.719 -0.539,0.855 -0.36,0.93 h -3.242 v -0.571 l -0.238,-1.199 -0.481,-1.14 -0.675,-1.02 -0.871,-0.871 -0.149,-0.09 v -0.765 l 0.016,-0.196 -0.016,-0.195 -0.058,-0.555 -0.211,-0.719 -0.36,-0.66 -0.48,-0.586 -0.137,-0.121 -20.355,-20.351 v -76.024 l 1.367,-1.363 h 3.238 l 0.465,0.691 0.992,0.989 1.152,0.781 1.293,0.523 1.364,0.27 h 1.41 l 1.363,-0.27 1.293,-0.523 1.152,-0.781 0.993,-0.989 0.781,-1.156 0.523,-1.289 0.27,-1.367 v -1.41 l -0.27,-1.364 -0.523,-1.289 -0.602,-0.886 h 1.621 l 0.012,2.968 0.707,0.707 h 5.805 v -5.804 h 1.14 v 5.804 h 5.805 l 0.703,-0.707 0.016,-2.968 -0.043,-0.571 -0.164,-0.523 -0.274,-0.496 -0.343,-0.434 -0.434,-0.347 -0.496,-0.27 -0.523,-0.164 -0.571,-0.047 -2.972,0.016 -0.704,0.707 h -1.14 l -0.703,-0.707 -2.973,-0.016 -0.57,0.047 -0.524,0.164 -0.496,0.27 -0.433,0.347 -0.344,0.434 -0.274,0.496 -0.164,0.523 -0.043,0.571 h -1.621 l -0.179,-0.27 -0.993,-0.988 -1.152,-0.781 -1.293,-0.528 -1.363,-0.269 h -1.41 l -1.364,0.269 -1.293,0.528 -1.152,0.781 -0.992,0.988 -0.465,0.692 h -4.633 l -0.195,-0.016 -0.195,0.016 -0.555,0.058 -0.723,0.211 -0.312,0.164 -0.348,0.195 -0.449,0.36 -0.133,0.121 -0.121,0.133 -1.453,1.472 v -10.382 h 124.633 l -0.629,0.929"
             style="fill:#000000;fill-opacity:1;fill-rule:nonzero;stroke:#000000;stroke-width:1.14;stroke-linecap:round;stroke-linejoin:round;stroke-miterlimit:10;stroke-dasharray:none;stroke-opacity:1"
             id="path230" /></g><g
           id="g232"><path
             d="M 433.559,360.602 437.16,357"
             style="fill:none;stroke:#000000;stroke-width:1.98;stroke-linecap:round;stroke-linejoin:round;stroke-miterlimit:10;stroke-dasharray:none;stroke-opacity:1"
             id="path234" /></g><g
           id="g236"><path
             d="m 437.16,357 14.399,-14.398"
             style="fill:none;stroke:#000000;stroke-width:1.98;stroke-linecap:round;stroke-linejoin:round;stroke-miterlimit:10;stroke-dasharray:none;stroke-opacity:1"
             id="path238" /></g><g
           id="g240"><path
             d="m 429.961,364.199 3.598,-3.597"
             style="fill:none;stroke:#000000;stroke-width:1.98;stroke-linecap:round;stroke-linejoin:round;stroke-miterlimit:10;stroke-dasharray:none;stroke-opacity:1"
             id="path242" /></g><g
           id="g244"><path
             d="m 383.16,364.199 h 46.801"
             style="fill:none;stroke:#000000;stroke-width:1.98;stroke-linecap:round;stroke-linejoin:round;stroke-miterlimit:10;stroke-dasharray:none;stroke-opacity:1"
             id="path246" /></g><g
           id="g248"><path
             d="m 404.762,353.398 v -18"
             style="fill:none;stroke:#000000;stroke-width:1.98;stroke-linecap:round;stroke-linejoin:round;stroke-miterlimit:10;stroke-dasharray:none;stroke-opacity:1"
             id="path250" /></g><g
           id="g252"><path
             d="m 415.559,360.602 32.402,-32.403"
             style="fill:none;stroke:#000000;stroke-width:1.98;stroke-linecap:round;stroke-linejoin:round;stroke-miterlimit:10;stroke-dasharray:none;stroke-opacity:1"
             id="path254" /></g><g
           id="g256"><path
             d="m 397.559,360.602 h 18"
             style="fill:none;stroke:#000000;stroke-width:1.98;stroke-linecap:round;stroke-linejoin:round;stroke-miterlimit:10;stroke-dasharray:none;stroke-opacity:1"
             id="path258" /></g><g
           id="g260"><path
             d="m 390.359,353.398 7.2,7.204"
             style="fill:none;stroke:#000000;stroke-width:1.98;stroke-linecap:round;stroke-linejoin:round;stroke-miterlimit:10;stroke-dasharray:none;stroke-opacity:1"
             id="path262" /></g><g
           id="g264"><path
             d="M 375.961,346.199 354.359,324.602"
             style="fill:none;stroke:#000000;stroke-width:1.98;stroke-linecap:round;stroke-linejoin:round;stroke-miterlimit:10;stroke-dasharray:none;stroke-opacity:1"
             id="path266" /></g><g
           id="g268"><path
             d="m 375.961,352.094 v -5.895"
             style="fill:none;stroke:#000000;stroke-width:1.98;stroke-linecap:round;stroke-linejoin:round;stroke-miterlimit:10;stroke-dasharray:none;stroke-opacity:1"
             id="path270" /></g><g
           id="g272"><path
             d="M 375.961,352.094 V 357"
             style="fill:none;stroke:#000000;stroke-width:1.98;stroke-linecap:round;stroke-linejoin:round;stroke-miterlimit:10;stroke-dasharray:none;stroke-opacity:1"
             id="path274" /></g><g
           id="g276"><path
             d="m 375.961,357 7.199,7.199"
             style="fill:none;stroke:#000000;stroke-width:1.98;stroke-linecap:round;stroke-linejoin:round;stroke-miterlimit:10;stroke-dasharray:none;stroke-opacity:1"
             id="path278" /></g><g
           id="g280"><path
             d="M 390.359,346.199 357.961,313.801"
             style="fill:none;stroke:#000000;stroke-width:1.98;stroke-linecap:round;stroke-linejoin:round;stroke-miterlimit:10;stroke-dasharray:none;stroke-opacity:1"
             id="path282" /></g><g
           id="g284"><path
             d="m 390.359,353.398 v -7.199"
             style="fill:none;stroke:#000000;stroke-width:1.98;stroke-linecap:round;stroke-linejoin:round;stroke-miterlimit:10;stroke-dasharray:none;stroke-opacity:1"
             id="path286" /></g><g
           id="g288"><path
             d="m 375.961,288.602 h 14.398"
             style="fill:none;stroke:#000000;stroke-width:1.98;stroke-linecap:round;stroke-linejoin:round;stroke-miterlimit:10;stroke-dasharray:none;stroke-opacity:1"
             id="path290" /></g><g
           id="g292"><path
             d="m 368.762,276 v -5.398"
             style="fill:none;stroke:#000000;stroke-width:1.98;stroke-linecap:round;stroke-linejoin:round;stroke-miterlimit:10;stroke-dasharray:none;stroke-opacity:1"
             id="path294" /></g><g
           id="g296"><path
             d="m 383.16,267 7.199,-7.199"
             style="fill:none;stroke:#000000;stroke-width:1.98;stroke-linecap:round;stroke-linejoin:round;stroke-miterlimit:10;stroke-dasharray:none;stroke-opacity:1"
             id="path298" /></g><g
           id="g300"><path
             d="M 383.16,270.602 V 267"
             style="fill:none;stroke:#000000;stroke-width:1.98;stroke-linecap:round;stroke-linejoin:round;stroke-miterlimit:10;stroke-dasharray:none;stroke-opacity:1"
             id="path302" /></g><g
           id="g304"><path
             d="M 426.359,288.602 V 277.801"
             style="fill:none;stroke:#000000;stroke-width:1.98;stroke-linecap:round;stroke-linejoin:round;stroke-miterlimit:10;stroke-dasharray:none;stroke-opacity:1"
             id="path306" /></g><g
           id="g308"><path
             d="M 375.961,270.602 V 259.801"
             style="fill:none;stroke:#000000;stroke-width:1.98;stroke-linecap:round;stroke-linejoin:round;stroke-miterlimit:10;stroke-dasharray:none;stroke-opacity:1"
             id="path310" /></g><g
           id="g312"><path
             d="m 357.961,241.801 h 10.801"
             style="fill:none;stroke:#000000;stroke-width:1.98;stroke-linecap:round;stroke-linejoin:round;stroke-miterlimit:10;stroke-dasharray:none;stroke-opacity:1"
             id="path314" /></g><g
           id="g316"><path
             d="m 354.359,245.398 3.602,-3.597"
             style="fill:none;stroke:#000000;stroke-width:1.98;stroke-linecap:round;stroke-linejoin:round;stroke-miterlimit:10;stroke-dasharray:none;stroke-opacity:1"
             id="path318" /></g><g
           id="g320"><path
             d="m 383.16,241.801 v -3.602"
             style="fill:none;stroke:#000000;stroke-width:1.98;stroke-linecap:round;stroke-linejoin:round;stroke-miterlimit:10;stroke-dasharray:none;stroke-opacity:1"
             id="path322" /></g><g
           id="g324"><path
             d="m 383.16,238.199 3.602,-3.597"
             style="fill:none;stroke:#000000;stroke-width:1.98;stroke-linecap:round;stroke-linejoin:round;stroke-miterlimit:10;stroke-dasharray:none;stroke-opacity:1"
             id="path326" /></g><g
           id="g328"><path
             d="m 375.961,249 7.199,-7.199"
             style="fill:none;stroke:#000000;stroke-width:1.98;stroke-linecap:round;stroke-linejoin:round;stroke-miterlimit:10;stroke-dasharray:none;stroke-opacity:1"
             id="path330" /></g><g
           id="g332"><path
             d="M 375.961,259.801 386.762,249"
             style="fill:none;stroke:#000000;stroke-width:1.98;stroke-linecap:round;stroke-linejoin:round;stroke-miterlimit:10;stroke-dasharray:none;stroke-opacity:1"
             id="path334" /></g><g
           id="g336"><path
             d="m 411.961,241.801 v 3.597"
             style="fill:none;stroke:#000000;stroke-width:1.98;stroke-linecap:round;stroke-linejoin:round;stroke-miterlimit:10;stroke-dasharray:none;stroke-opacity:1"
             id="path338" /></g><g
           id="g340"><path
             d="m 411.961,241.801 h 14.398"
             style="fill:none;stroke:#000000;stroke-width:1.98;stroke-linecap:round;stroke-linejoin:round;stroke-miterlimit:10;stroke-dasharray:none;stroke-opacity:1"
             id="path342" /></g><g
           id="g344"><path
             d="m 427.891,243.328 -1.532,-1.527"
             style="fill:none;stroke:#000000;stroke-width:1.98;stroke-linecap:round;stroke-linejoin:round;stroke-miterlimit:10;stroke-dasharray:none;stroke-opacity:1"
             id="path346" /></g><g
           id="g348"><path
             d="m 427.891,263.398 v -20.07"
             style="fill:none;stroke:#000000;stroke-width:1.98;stroke-linecap:round;stroke-linejoin:round;stroke-miterlimit:10;stroke-dasharray:none;stroke-opacity:1"
             id="path350" /></g><g
           id="g352"><path
             d="M 397.559,241.801 V 267"
             style="fill:none;stroke:#000000;stroke-width:1.98;stroke-linecap:round;stroke-linejoin:round;stroke-miterlimit:10;stroke-dasharray:none;stroke-opacity:1"
             id="path354" /></g><g
           id="g356"><path
             d="m 397.559,267 7.203,7.199"
             style="fill:none;stroke:#000000;stroke-width:1.98;stroke-linecap:round;stroke-linejoin:round;stroke-miterlimit:10;stroke-dasharray:none;stroke-opacity:1"
             id="path358" /></g><g
           id="g360"><path
             d="m 415.559,263.398 v 7.204"
             style="fill:none;stroke:#000000;stroke-width:1.98;stroke-linecap:round;stroke-linejoin:round;stroke-miterlimit:10;stroke-dasharray:none;stroke-opacity:1"
             id="path362" /></g><g
           id="g364"><path
             d="m 415.559,263.398 3.601,-3.597"
             style="fill:none;stroke:#000000;stroke-width:1.98;stroke-linecap:round;stroke-linejoin:round;stroke-miterlimit:10;stroke-dasharray:none;stroke-opacity:1"
             id="path366" /></g><g
           id="g368"><path
             d="m 422.762,267 3.597,-3.602"
             style="fill:none;stroke:#000000;stroke-width:1.98;stroke-linecap:round;stroke-linejoin:round;stroke-miterlimit:10;stroke-dasharray:none;stroke-opacity:1"
             id="path370" /></g><g
           id="g372"><path
             d="M 422.762,274.199 V 267"
             style="fill:none;stroke:#000000;stroke-width:1.98;stroke-linecap:round;stroke-linejoin:round;stroke-miterlimit:10;stroke-dasharray:none;stroke-opacity:1"
             id="path374" /></g><g
           id="g376"><path
             d="m 415.559,281.398 7.203,-7.199"
             style="fill:none;stroke:#000000;stroke-width:1.98;stroke-linecap:round;stroke-linejoin:round;stroke-miterlimit:10;stroke-dasharray:none;stroke-opacity:1"
             id="path378" /></g><g
           id="g380"><path
             d="m 433.559,270.602 v -7.204"
             style="fill:none;stroke:#000000;stroke-width:1.98;stroke-linecap:round;stroke-linejoin:round;stroke-miterlimit:10;stroke-dasharray:none;stroke-opacity:1"
             id="path382" /></g><g
           id="g384"><path
             d="m 426.359,277.801 7.2,-7.199"
             style="fill:none;stroke:#000000;stroke-width:1.98;stroke-linecap:round;stroke-linejoin:round;stroke-miterlimit:10;stroke-dasharray:none;stroke-opacity:1"
             id="path386" /></g><g
           id="g388"><path
             d="m 404.762,274.199 v 7.199"
             style="fill:none;stroke:#000000;stroke-width:1.98;stroke-linecap:round;stroke-linejoin:round;stroke-miterlimit:10;stroke-dasharray:none;stroke-opacity:1"
             id="path390" /></g><g
           id="g392"><path
             d="m 426.359,263.398 h 1.532"
             style="fill:none;stroke:#000000;stroke-width:1.98;stroke-linecap:round;stroke-linejoin:round;stroke-miterlimit:10;stroke-dasharray:none;stroke-opacity:1"
             id="path394" /></g><g
           id="g396"><path
             d="m 440.762,263.398 3.597,-3.597"
             style="fill:none;stroke:#000000;stroke-width:1.98;stroke-linecap:round;stroke-linejoin:round;stroke-miterlimit:10;stroke-dasharray:none;stroke-opacity:1"
             id="path398" /></g><g
           id="g400"><path
             d="m 433.559,263.398 h 7.203"
             style="fill:none;stroke:#000000;stroke-width:1.98;stroke-linecap:round;stroke-linejoin:round;stroke-miterlimit:10;stroke-dasharray:none;stroke-opacity:1"
             id="path402" /></g><g
           id="g404"><path
             d="m 451.559,259.801 v -7.199"
             style="fill:none;stroke:#000000;stroke-width:1.98;stroke-linecap:round;stroke-linejoin:round;stroke-miterlimit:10;stroke-dasharray:none;stroke-opacity:1"
             id="path406" /></g><g
           id="g408"><path
             d="m 451.559,259.801 h 7.203"
             style="fill:none;stroke:#000000;stroke-width:1.98;stroke-linecap:round;stroke-linejoin:round;stroke-miterlimit:10;stroke-dasharray:none;stroke-opacity:1"
             id="path410" /></g><g
           id="g412"><path
             d="m 462.359,238.32 v -3.718"
             style="fill:none;stroke:#000000;stroke-width:1.98;stroke-linecap:round;stroke-linejoin:round;stroke-miterlimit:10;stroke-dasharray:none;stroke-opacity:1"
             id="path414" /></g><g
           id="g416"><path
             d="m 469.68,238.32 h -7.321"
             style="fill:none;stroke:#000000;stroke-width:1.98;stroke-linecap:round;stroke-linejoin:round;stroke-miterlimit:10;stroke-dasharray:none;stroke-opacity:1"
             id="path418" /></g><g
           id="g420"><path
             d="M 476.879,238.32 H 469.68"
             style="fill:none;stroke:#000000;stroke-width:1.98;stroke-linecap:round;stroke-linejoin:round;stroke-miterlimit:10;stroke-dasharray:none;stroke-opacity:1"
             id="path422" /></g><g
           id="g424"><path
             d="m 483.961,245.398 -7.082,-7.078"
             style="fill:none;stroke:#000000;stroke-width:1.98;stroke-linecap:round;stroke-linejoin:round;stroke-miterlimit:10;stroke-dasharray:none;stroke-opacity:1"
             id="path426" /></g><g
           id="g428"><path
             d="m 465.961,249 -3.602,-3.602"
             style="fill:none;stroke:#000000;stroke-width:1.98;stroke-linecap:round;stroke-linejoin:round;stroke-miterlimit:10;stroke-dasharray:none;stroke-opacity:1"
             id="path430" /></g><g
           id="g432"><path
             d="m 404.762,234.602 7.199,7.199"
             style="fill:none;stroke:#000000;stroke-width:1.98;stroke-linecap:round;stroke-linejoin:round;stroke-miterlimit:10;stroke-dasharray:none;stroke-opacity:1"
             id="path434" /></g><g
           id="g436"><path
             d="m 386.762,234.602 h 18"
             style="fill:none;stroke:#000000;stroke-width:1.98;stroke-linecap:round;stroke-linejoin:round;stroke-miterlimit:10;stroke-dasharray:none;stroke-opacity:1"
             id="path438" /></g><g
           id="g440"><path
             d="m 397.559,249 v -7.199"
             style="fill:none;stroke:#000000;stroke-width:1.98;stroke-linecap:round;stroke-linejoin:round;stroke-miterlimit:10;stroke-dasharray:none;stroke-opacity:1"
             id="path442" /></g><g
           id="g444"><path
             d="m 390.359,249 7.2,-7.199"
             style="fill:none;stroke:#000000;stroke-width:1.98;stroke-linecap:round;stroke-linejoin:round;stroke-miterlimit:10;stroke-dasharray:none;stroke-opacity:1"
             id="path446" /></g><g
           id="g448"><path
             d="m 386.762,249 h 3.597"
             style="fill:none;stroke:#000000;stroke-width:1.98;stroke-linecap:round;stroke-linejoin:round;stroke-miterlimit:10;stroke-dasharray:none;stroke-opacity:1"
             id="path450" /></g><g
           id="g452"><path
             d="M 462.359,234.602 458.762,231"
             style="fill:none;stroke:#000000;stroke-width:1.98;stroke-linecap:round;stroke-linejoin:round;stroke-miterlimit:10;stroke-dasharray:none;stroke-opacity:1"
             id="path454" /></g><g
           id="g456"><path
             d="m 437.16,231 -10.801,10.801"
             style="fill:none;stroke:#000000;stroke-width:1.98;stroke-linecap:round;stroke-linejoin:round;stroke-miterlimit:10;stroke-dasharray:none;stroke-opacity:1"
             id="path458" /></g><g
           id="g460"><path
             d="M 458.762,231 H 437.16"
             style="fill:none;stroke:#000000;stroke-width:1.98;stroke-linecap:round;stroke-linejoin:round;stroke-miterlimit:10;stroke-dasharray:none;stroke-opacity:1"
             id="path462" /></g><g
           id="g464"><path
             d="M 451.559,252.602 440.762,241.801"
             style="fill:none;stroke:#000000;stroke-width:1.98;stroke-linecap:round;stroke-linejoin:round;stroke-miterlimit:10;stroke-dasharray:none;stroke-opacity:1"
             id="path466" /></g><g
           id="g468"><path
             d="M 483.961,259.801 V 245.398"
             style="fill:none;stroke:#000000;stroke-width:1.98;stroke-linecap:round;stroke-linejoin:round;stroke-miterlimit:10;stroke-dasharray:none;stroke-opacity:1"
             id="path470" /></g><g
           id="g472"><path
             d="m 465.961,277.801 18,-18"
             style="fill:none;stroke:#000000;stroke-width:1.98;stroke-linecap:round;stroke-linejoin:round;stroke-miterlimit:10;stroke-dasharray:none;stroke-opacity:1"
             id="path474" /></g><g
           id="g476"><path
             d="m 465.961,281.398 v -3.597"
             style="fill:none;stroke:#000000;stroke-width:1.98;stroke-linecap:round;stroke-linejoin:round;stroke-miterlimit:10;stroke-dasharray:none;stroke-opacity:1"
             id="path478" /></g><g
           id="g480"><path
             d="M 476.762,252.602 H 465.961"
             style="fill:none;stroke:#000000;stroke-width:1.98;stroke-linecap:round;stroke-linejoin:round;stroke-miterlimit:10;stroke-dasharray:none;stroke-opacity:1"
             id="path482" /></g><g
           id="g484"><path
             d="M 465.961,252.602 V 249"
             style="fill:none;stroke:#000000;stroke-width:1.98;stroke-linecap:round;stroke-linejoin:round;stroke-miterlimit:10;stroke-dasharray:none;stroke-opacity:1"
             id="path486" /></g><g
           id="g488"><path
             d="m 465.961,259.801 v -7.199"
             style="fill:none;stroke:#000000;stroke-width:1.98;stroke-linecap:round;stroke-linejoin:round;stroke-miterlimit:10;stroke-dasharray:none;stroke-opacity:1"
             id="path490" /></g><g
           id="g492"><path
             d="M 491.16,227.398 H 350.762"
             style="fill:none;stroke:#000000;stroke-width:0.135;stroke-linecap:round;stroke-linejoin:round;stroke-miterlimit:10;stroke-dasharray:none;stroke-opacity:1"
             id="path494" /></g><g
           id="g496"><path
             d="M 491.16,367.801 V 227.398"
             style="fill:none;stroke:#000000;stroke-width:0.135;stroke-linecap:round;stroke-linejoin:round;stroke-miterlimit:10;stroke-dasharray:none;stroke-opacity:1"
             id="path498" /></g><g
           id="g500"><path
             d="M 350.762,367.801 H 491.16"
             style="fill:none;stroke:#000000;stroke-width:0.135;stroke-linecap:round;stroke-linejoin:round;stroke-miterlimit:10;stroke-dasharray:none;stroke-opacity:1"
             id="path502" /></g><g
           id="g504"><path
             d="M 350.762,227.398 V 367.801"
             style="fill:none;stroke:#000000;stroke-width:0.135;stroke-linecap:round;stroke-linejoin:round;stroke-miterlimit:10;stroke-dasharray:none;stroke-opacity:1"
             id="path506" /></g><path
           d="m 362.211,360.602 c 0,2.347 -1.902,4.25 -4.25,4.25 -2.348,0 -4.254,-1.903 -4.254,-4.25 0,-2.352 1.906,-4.254 4.254,-4.254 2.348,0 4.25,1.902 4.25,4.254 z"
           style="fill:#000000;fill-opacity:1;fill-rule:nonzero;stroke:none"
           id="path508" /><path
           d="m 375.961,352.094 v -3.399 c 1.879,0 3.402,1.52 3.402,3.399 0,1.879 -1.523,3.402 -3.402,3.402 z"
           style="fill:#000000;fill-opacity:1;fill-rule:nonzero;stroke:none"
           id="path510" /><path
           d="m 375.961,352.094 v 3.402 c -1.879,0 -3.402,-1.523 -3.402,-3.402 0,-1.879 1.523,-3.399 3.402,-3.399 z"
           style="fill:#000000;fill-opacity:1;fill-rule:nonzero;stroke:none"
           id="path512" /><path
           d="m 390.359,353.398 v -2.265 c 1.254,0 2.27,1.015 2.27,2.265 0,1.254 -1.016,2.27 -2.27,2.27 z"
           style="fill:#000000;fill-opacity:1;fill-rule:nonzero;stroke:none"
           id="path514" /><path
           d="m 390.359,353.398 v 2.27 c -1.25,0 -2.265,-1.016 -2.265,-2.27 0,-1.25 1.015,-2.265 2.265,-2.265 z"
           style="fill:#000000;fill-opacity:1;fill-rule:nonzero;stroke:none"
           id="path516" /><path
           d="m 407.031,353.398 c 0,1.258 -1.015,2.274 -2.269,2.274 -1.258,0 -2.274,-1.016 -2.274,-2.274 0,-1.253 1.016,-2.269 2.274,-2.269 1.254,0 2.269,1.016 2.269,2.269 z"
           style="fill:#000000;fill-opacity:1;fill-rule:nonzero;stroke:none"
           id="path518" /><path
           d="m 406.809,299.398 c 0,1.133 -0.918,2.051 -2.047,2.051 -1.133,0 -2.051,-0.918 -2.051,-2.051 0,-1.128 0.918,-2.046 2.051,-2.046 1.129,0 2.047,0.918 2.047,2.046 z"
           style="fill:#000000;fill-opacity:1;fill-rule:nonzero;stroke:none"
           id="path520" /><path
           d="m 422.762,296.941 h 2.265 c 0,1.25 -1.015,2.266 -2.265,2.266 -1.254,0 -2.27,-1.016 -2.27,-2.266 z"
           style="fill:#000000;fill-opacity:1;fill-rule:nonzero;stroke:none"
           id="path522" /><path
           d="m 422.762,294.66 h -2.27 c 0,-1.254 1.016,-2.269 2.27,-2.269 1.25,0 2.265,1.015 2.265,2.269 z"
           style="fill:#000000;fill-opacity:1;fill-rule:nonzero;stroke:none"
           id="path524" /><path
           d="m 420.496,294.66 h 4.527 v 2.281 h -4.527 z"
           style="fill:#000000;fill-opacity:1;fill-rule:nonzero;stroke:none"
           id="path526" /><path
           d="m 429.961,296.941 h 2.266 c 0,1.25 -1.016,2.266 -2.266,2.266 -1.254,0 -2.27,-1.016 -2.27,-2.266 z"
           style="fill:#000000;fill-opacity:1;fill-rule:nonzero;stroke:none"
           id="path528" /><path
           d="m 429.961,294.66 h -2.27 c 0,-1.254 1.016,-2.269 2.27,-2.269 1.25,0 2.266,1.015 2.266,2.269 z"
           style="fill:#000000;fill-opacity:1;fill-rule:nonzero;stroke:none"
           id="path530" /><path
           d="m 427.695,294.66 h 4.531 v 2.281 h -4.531 z"
           style="fill:#000000;fill-opacity:1;fill-rule:nonzero;stroke:none"
           id="path532" /><path
           d="m 437.16,296.941 h 2.266 c 0,1.25 -1.012,2.266 -2.266,2.266 -1.254,0 -2.269,-1.016 -2.269,-2.266 z"
           style="fill:#000000;fill-opacity:1;fill-rule:nonzero;stroke:none"
           id="path534" /><path
           d="m 437.16,294.66 h -2.269 c 0,-1.254 1.015,-2.269 2.269,-2.269 1.254,0 2.266,1.015 2.266,2.269 z"
           style="fill:#000000;fill-opacity:1;fill-rule:nonzero;stroke:none"
           id="path536" /><path
           d="m 434.895,294.66 h 4.531 v 2.281 h -4.531 z"
           style="fill:#000000;fill-opacity:1;fill-rule:nonzero;stroke:none"
           id="path538" /><path
           d="m 444.359,296.941 h 2.27 c 0,1.25 -1.016,2.266 -2.27,2.266 -1.25,0 -2.265,-1.016 -2.265,-2.266 z"
           style="fill:#000000;fill-opacity:1;fill-rule:nonzero;stroke:none"
           id="path540" /><path
           d="m 444.359,294.66 h -2.265 c 0,-1.254 1.015,-2.269 2.265,-2.269 1.254,0 2.27,1.015 2.27,2.269 z"
           style="fill:#000000;fill-opacity:1;fill-rule:nonzero;stroke:none"
           id="path542" /><path
           d="m 442.094,294.66 h 4.531 v 2.281 h -4.531 z"
           style="fill:#000000;fill-opacity:1;fill-rule:nonzero;stroke:none"
           id="path544" /><path
           d="m 401.812,241.801 c 0,2.347 -1.902,4.25 -4.253,4.25 -2.348,0 -4.25,-1.903 -4.25,-4.25 0,-2.348 1.902,-4.254 4.25,-4.254 2.351,0 4.253,1.906 4.253,4.254 z"
           style="fill:#000000;fill-opacity:1;fill-rule:nonzero;stroke:none"
           id="path546" /><path
           d="m 368.762,270.734 h 2.699 c 0,1.493 -1.211,2.7 -2.699,2.7 -1.492,0 -2.703,-1.207 -2.703,-2.7 z"
           style="fill:#000000;fill-opacity:1;fill-rule:nonzero;stroke:none"
           id="path548" /><path
           d="m 368.762,270.465 h -2.703 c 0,-1.492 1.211,-2.699 2.703,-2.699 1.488,0 2.699,1.207 2.699,2.699 z"
           style="fill:#000000;fill-opacity:1;fill-rule:nonzero;stroke:none"
           id="path550" /><path
           d="m 366.059,270.465 h 5.402 v 0.27 h -5.402 z"
           style="fill:#000000;fill-opacity:1;fill-rule:nonzero;stroke:none"
           id="path552" /><path
           d="m 375.961,270.734 h 2.699 c 0,1.493 -1.211,2.7 -2.699,2.7 -1.492,0 -2.699,-1.207 -2.699,-2.7 z"
           style="fill:#000000;fill-opacity:1;fill-rule:nonzero;stroke:none"
           id="path554" /><path
           d="m 375.961,270.465 h -2.699 c 0,-1.492 1.207,-2.699 2.699,-2.699 1.488,0 2.699,1.207 2.699,2.699 z"
           style="fill:#000000;fill-opacity:1;fill-rule:nonzero;stroke:none"
           id="path556" /><path
           d="m 373.262,270.465 h 5.398 v 0.27 h -5.398 z"
           style="fill:#000000;fill-opacity:1;fill-rule:nonzero;stroke:none"
           id="path558" /><path
           d="m 373.012,241.801 c 0,2.347 -1.903,4.25 -4.25,4.25 -2.352,0 -4.254,-1.903 -4.254,-4.25 0,-2.348 1.902,-4.254 4.254,-4.254 2.347,0 4.25,1.906 4.25,4.254 z"
           style="fill:#000000;fill-opacity:1;fill-rule:nonzero;stroke:none"
           id="path560" /><path
           d="m 378.914,237.555 h 8.492 v 8.492 h -8.492 z"
           style="fill:#000000;fill-opacity:1;fill-rule:nonzero;stroke:none"
           id="path562" /><path
           d="m 488.211,360.602 c 0,2.347 -1.902,4.25 -4.25,4.25 -2.348,0 -4.254,-1.903 -4.254,-4.25 0,-2.352 1.906,-4.254 4.254,-4.254 2.348,0 4.25,1.902 4.25,4.254 z"
           style="fill:#000000;fill-opacity:1;fill-rule:nonzero;stroke:none"
           id="path564" /><path
           d="m 461.031,317.176 c 0,1.254 -1.015,2.273 -2.269,2.273 -1.258,0 -2.274,-1.019 -2.274,-2.273 0,-1.254 1.016,-2.274 2.274,-2.274 1.254,0 2.269,1.02 2.269,2.274 z"
           style="fill:#000000;fill-opacity:1;fill-rule:nonzero;stroke:none"
           id="path566" /><path
           d="m 461.031,303 c 0,1.254 -1.015,2.273 -2.269,2.273 -1.258,0 -2.274,-1.019 -2.274,-2.273 0,-1.254 1.016,-2.273 2.274,-2.273 1.254,0 2.269,1.019 2.269,2.273 z"
           style="fill:#000000;fill-opacity:1;fill-rule:nonzero;stroke:none"
           id="path568" /><path
           d="m 437.16,357 v -2.27 c 1.254,0 2.266,1.016 2.266,2.27 0,1.254 -1.012,2.27 -2.266,2.27 z"
           style="fill:#000000;fill-opacity:1;fill-rule:nonzero;stroke:none"
           id="path570" /><path
           d="m 437.16,357 v 2.27 c -1.254,0 -2.269,-1.016 -2.269,-2.27 0,-1.254 1.015,-2.27 2.269,-2.27 z"
           style="fill:#000000;fill-opacity:1;fill-rule:nonzero;stroke:none"
           id="path572" /><path
           d="m 476.762,328.199 h -2.27 c 0,-1.25 1.016,-2.265 2.27,-2.265 1.25,0 2.265,1.015 2.265,2.265 z"
           style="fill:#000000;fill-opacity:1;fill-rule:nonzero;stroke:none"
           id="path574" /><path
           d="m 476.762,328.199 h 2.265 c 0,1.254 -1.015,2.27 -2.265,2.27 -1.254,0 -2.27,-1.016 -2.27,-2.27 z"
           style="fill:#000000;fill-opacity:1;fill-rule:nonzero;stroke:none"
           id="path576" /><path
           d="m 450.234,328.199 c 0,1.254 -1.019,2.274 -2.273,2.274 -1.258,0 -2.273,-1.02 -2.273,-2.274 0,-1.254 1.015,-2.273 2.273,-2.273 1.254,0 2.273,1.019 2.273,2.273 z"
           style="fill:#000000;fill-opacity:1;fill-rule:nonzero;stroke:none"
           id="path578" /><path
           d="m 444.359,318.539 h 2.27 c 0,1.254 -1.016,2.27 -2.27,2.27 -1.25,0 -2.265,-1.016 -2.265,-2.27 z"
           style="fill:#000000;fill-opacity:1;fill-rule:nonzero;stroke:none"
           id="path580" /><path
           d="m 444.359,316.262 h -2.265 c 0,-1.254 1.015,-2.27 2.265,-2.27 1.254,0 2.27,1.016 2.27,2.27 z"
           style="fill:#000000;fill-opacity:1;fill-rule:nonzero;stroke:none"
           id="path582" /><path
           d="m 442.094,316.262 h 4.531 v 2.277 h -4.531 z"
           style="fill:#000000;fill-opacity:1;fill-rule:nonzero;stroke:none"
           id="path584" /><path
           d="m 437.16,318.539 h 2.266 c 0,1.254 -1.012,2.27 -2.266,2.27 -1.254,0 -2.269,-1.016 -2.269,-2.27 z"
           style="fill:#000000;fill-opacity:1;fill-rule:nonzero;stroke:none"
           id="path586" /><path
           d="m 437.16,316.262 h -2.269 c 0,-1.254 1.015,-2.27 2.269,-2.27 1.254,0 2.266,1.016 2.266,2.27 z"
           style="fill:#000000;fill-opacity:1;fill-rule:nonzero;stroke:none"
           id="path588" /><path
           d="m 434.895,316.262 h 4.531 v 2.277 h -4.531 z"
           style="fill:#000000;fill-opacity:1;fill-rule:nonzero;stroke:none"
           id="path590" /><path
           d="m 429.961,318.539 h 2.266 c 0,1.254 -1.016,2.27 -2.266,2.27 -1.254,0 -2.27,-1.016 -2.27,-2.27 z"
           style="fill:#000000;fill-opacity:1;fill-rule:nonzero;stroke:none"
           id="path592" /><path
           d="m 429.961,316.262 h -2.27 c 0,-1.254 1.016,-2.27 2.27,-2.27 1.25,0 2.266,1.016 2.266,2.27 z"
           style="fill:#000000;fill-opacity:1;fill-rule:nonzero;stroke:none"
           id="path594" /><path
           d="m 427.695,316.262 h 4.531 v 2.277 h -4.531 z"
           style="fill:#000000;fill-opacity:1;fill-rule:nonzero;stroke:none"
           id="path596" /><path
           d="m 420.496,313.996 h 4.527 v 6.809 h -4.527 z"
           style="fill:#000000;fill-opacity:1;fill-rule:nonzero;stroke:none"
           id="path598" /><path
           d="m 439.434,328.199 c 0,1.254 -1.02,2.274 -2.274,2.274 -1.254,0 -2.273,-1.02 -2.273,-2.274 0,-1.254 1.019,-2.273 2.273,-2.273 1.254,0 2.274,1.019 2.274,2.273 z"
           style="fill:#000000;fill-opacity:1;fill-rule:nonzero;stroke:none"
           id="path600" /><path
           d="m 406.809,313.801 c 0,1.129 -0.918,2.047 -2.047,2.047 -1.133,0 -2.051,-0.918 -2.051,-2.047 0,-1.133 0.918,-2.047 2.051,-2.047 1.129,0 2.047,0.914 2.047,2.047 z"
           style="fill:#000000;fill-opacity:1;fill-rule:nonzero;stroke:none"
           id="path602" /><path
           d="m 406.809,306.602 c 0,1.128 -0.918,2.046 -2.047,2.046 -1.133,0 -2.051,-0.918 -2.051,-2.046 0,-1.133 0.918,-2.051 2.051,-2.051 1.129,0 2.047,0.918 2.047,2.051 z"
           style="fill:#000000;fill-opacity:1;fill-rule:nonzero;stroke:none"
           id="path604" /><path
           d="m 392.633,324.602 c 0,1.253 -1.02,2.269 -2.274,2.269 -1.254,0 -2.273,-1.016 -2.273,-2.269 0,-1.258 1.019,-2.274 2.273,-2.274 1.254,0 2.274,1.016 2.274,2.274 z"
           style="fill:#000000;fill-opacity:1;fill-rule:nonzero;stroke:none"
           id="path606" /><path
           d="m 404.762,324.602 v 2.265 c -1.254,0 -2.27,-1.015 -2.27,-2.265 0,-1.254 1.016,-2.27 2.27,-2.27 z"
           style="fill:#000000;fill-opacity:1;fill-rule:nonzero;stroke:none"
           id="path608" /><path
           d="m 404.762,324.602 v -2.27 c 1.25,0 2.265,1.016 2.265,2.27 0,1.25 -1.015,2.265 -2.265,2.265 z"
           style="fill:#000000;fill-opacity:1;fill-rule:nonzero;stroke:none"
           id="path610" /><path
           d="m 390.359,317.398 v -2.265 c 1.254,0 2.27,1.015 2.27,2.265 0,1.254 -1.016,2.27 -2.27,2.27 z"
           style="fill:#000000;fill-opacity:1;fill-rule:nonzero;stroke:none"
           id="path612" /><path
           d="m 390.359,317.398 v 2.27 c -1.25,0 -2.265,-1.016 -2.265,-2.27 0,-1.25 1.015,-2.265 2.265,-2.265 z"
           style="fill:#000000;fill-opacity:1;fill-rule:nonzero;stroke:none"
           id="path614" /><path
           d="m 488.211,234.602 c 0,2.347 -1.902,4.25 -4.25,4.25 -2.348,0 -4.254,-1.903 -4.254,-4.25 0,-2.352 1.906,-4.254 4.254,-4.254 2.348,0 4.25,1.902 4.25,4.254 z"
           style="fill:#000000;fill-opacity:1;fill-rule:nonzero;stroke:none"
           id="path616" /><path
           d="m 458.762,260.941 h 2.265 c 0,1.25 -1.015,2.266 -2.265,2.266 -1.254,0 -2.27,-1.016 -2.27,-2.266 z"
           style="fill:#000000;fill-opacity:1;fill-rule:nonzero;stroke:none"
           id="path618" /><path
           d="m 458.762,258.66 h -2.27 c 0,-1.254 1.016,-2.269 2.27,-2.269 1.25,0 2.265,1.015 2.265,2.269 z"
           style="fill:#000000;fill-opacity:1;fill-rule:nonzero;stroke:none"
           id="path620" /><path
           d="m 456.496,258.66 h 4.527 v 2.281 h -4.527 z"
           style="fill:#000000;fill-opacity:1;fill-rule:nonzero;stroke:none"
           id="path622" /><path
           d="m 479.031,252.602 c 0,1.253 -1.015,2.269 -2.269,2.269 -1.258,0 -2.274,-1.016 -2.274,-2.269 0,-1.258 1.016,-2.274 2.274,-2.274 1.254,0 2.269,1.016 2.269,2.274 z"
           style="fill:#000000;fill-opacity:1;fill-rule:nonzero;stroke:none"
           id="path624" /><path
           d="m 464.633,238.32 c 0,1.254 -1.02,2.274 -2.274,2.274 -1.254,0 -2.273,-1.02 -2.273,-2.274 0,-1.254 1.019,-2.273 2.273,-2.273 1.254,0 2.274,1.019 2.274,2.273 z"
           style="fill:#000000;fill-opacity:1;fill-rule:nonzero;stroke:none"
           id="path626" /><path
           d="m 460.094,243.137 h 4.531 v 4.527 h -4.531 z"
           style="fill:#000000;fill-opacity:1;fill-rule:nonzero;stroke:none"
           id="path628" /><path
           d="m 412.133,281.398 c 0,0.942 -0.762,1.704 -1.703,1.704 -0.942,0 -1.703,-0.762 -1.703,-1.704 0,-0.937 0.761,-1.699 1.703,-1.699 0.941,0 1.703,0.762 1.703,1.699 z"
           style="fill:#000000;fill-opacity:1;fill-rule:nonzero;stroke:none"
           id="path630" /><path
           d="m 403.066,279.703 h 3.387 v 3.391 h -3.387 z"
           style="fill:#000000;fill-opacity:1;fill-rule:nonzero;stroke:none"
           id="path632" /><path
           d="m 416.211,241.801 c 0,2.347 -1.902,4.25 -4.25,4.25 -2.348,0 -4.254,-1.903 -4.254,-4.25 0,-2.348 1.906,-4.254 4.254,-4.254 2.348,0 4.25,1.906 4.25,4.254 z"
           style="fill:#000000;fill-opacity:1;fill-rule:nonzero;stroke:none"
           id="path634" /><path
           d="m 380.461,267.766 h 5.398 v 5.668 h -5.398 z"
           style="fill:#000000;fill-opacity:1;fill-rule:nonzero;stroke:none"
           id="path636" /><path
           d="m 379.371,288.602 c 0,1.882 -1.527,3.41 -3.41,3.41 -1.887,0 -3.414,-1.528 -3.414,-3.41 0,-1.887 1.527,-3.414 3.414,-3.414 1.883,0 3.41,1.527 3.41,3.414 z"
           style="fill:#000000;fill-opacity:1;fill-rule:nonzero;stroke:none"
           id="path638" /><path
           d="m 392.633,259.801 c 0,1.254 -1.02,2.273 -2.274,2.273 -1.254,0 -2.273,-1.019 -2.273,-2.273 0,-1.254 1.019,-2.274 2.273,-2.274 1.254,0 2.274,1.02 2.274,2.274 z"
           style="fill:#000000;fill-opacity:1;fill-rule:nonzero;stroke:none"
           id="path640" /><path
           d="m 392.633,288.602 c 0,1.253 -1.02,2.269 -2.274,2.269 -1.254,0 -2.273,-1.016 -2.273,-2.269 0,-1.258 1.019,-2.274 2.273,-2.274 1.254,0 2.274,1.016 2.274,2.274 z"
           style="fill:#000000;fill-opacity:1;fill-rule:nonzero;stroke:none"
           id="path642" /><path
           d="m 436.516,237.555 h 8.488 v 8.492 h -8.488 z"
           style="fill:#000000;fill-opacity:1;fill-rule:nonzero;stroke:none"
           id="path644" /><path
           d="m 430.613,241.801 c 0,2.347 -1.906,4.25 -4.254,4.25 -2.347,0 -4.25,-1.903 -4.25,-4.25 0,-2.348 1.903,-4.254 4.25,-4.254 2.348,0 4.254,1.906 4.254,4.254 z"
           style="fill:#000000;fill-opacity:1;fill-rule:nonzero;stroke:none"
           id="path646" /><path
           d="m 429.594,263.398 c 0,0.942 -0.762,1.704 -1.703,1.704 -0.942,0 -1.703,-0.762 -1.703,-1.704 0,-0.937 0.761,-1.699 1.703,-1.699 0.941,0 1.703,0.762 1.703,1.699 z"
           style="fill:#000000;fill-opacity:1;fill-rule:nonzero;stroke:none"
           id="path648" /><path
           d="m 431.863,261.703 h 3.391 v 3.391 h -3.391 z"
           style="fill:#000000;fill-opacity:1;fill-rule:nonzero;stroke:none"
           id="path650" /><path
           d="m 419.16,259.801 h -2.269 c 0,-1.254 1.015,-2.27 2.269,-2.27 1.254,0 2.266,1.016 2.266,2.27 z"
           style="fill:#000000;fill-opacity:1;fill-rule:nonzero;stroke:none"
           id="path652" /><path
           d="m 419.16,259.801 h 2.266 c 0,1.25 -1.012,2.265 -2.266,2.265 -1.254,0 -2.269,-1.015 -2.269,-2.265 z"
           style="fill:#000000;fill-opacity:1;fill-rule:nonzero;stroke:none"
           id="path654" /><path
           d="m 465.961,282.539 h 2.266 c 0,1.254 -1.016,2.27 -2.266,2.27 -1.254,0 -2.27,-1.016 -2.27,-2.27 z"
           style="fill:#000000;fill-opacity:1;fill-rule:nonzero;stroke:none"
           id="path656" /><path
           d="m 465.961,280.262 h -2.27 c 0,-1.254 1.016,-2.27 2.27,-2.27 1.25,0 2.266,1.016 2.266,2.27 z"
           style="fill:#000000;fill-opacity:1;fill-rule:nonzero;stroke:none"
           id="path658" /><path
           d="m 463.695,280.262 h 4.531 v 2.277 h -4.531 z"
           style="fill:#000000;fill-opacity:1;fill-rule:nonzero;stroke:none"
           id="path660" /><path
           d="m 451.559,260.941 h 2.269 c 0,1.25 -1.016,2.266 -2.269,2.266 -1.25,0 -2.266,-1.016 -2.266,-2.266 z"
           style="fill:#000000;fill-opacity:1;fill-rule:nonzero;stroke:none"
           id="path662" /><path
           d="m 451.559,258.66 h -2.266 c 0,-1.254 1.016,-2.269 2.266,-2.269 1.253,0 2.269,1.015 2.269,2.269 z"
           style="fill:#000000;fill-opacity:1;fill-rule:nonzero;stroke:none"
           id="path664" /><path
           d="m 449.297,258.66 h 4.527 v 2.281 h -4.527 z"
           style="fill:#000000;fill-opacity:1;fill-rule:nonzero;stroke:none"
           id="path666" /><path
           d="m 465.961,260.941 h 2.266 c 0,1.25 -1.016,2.266 -2.266,2.266 -1.254,0 -2.27,-1.016 -2.27,-2.266 z"
           style="fill:#000000;fill-opacity:1;fill-rule:nonzero;stroke:none"
           id="path668" /><path
           d="m 465.961,258.66 h -2.27 c 0,-1.254 1.016,-2.269 2.27,-2.269 1.25,0 2.266,1.015 2.266,2.269 z"
           style="fill:#000000;fill-opacity:1;fill-rule:nonzero;stroke:none"
           id="path670" /><path
           d="m 463.695,258.66 h 4.531 v 2.281 h -4.531 z"
           style="fill:#000000;fill-opacity:1;fill-rule:nonzero;stroke:none"
           id="path672" /><path
           d="m 476.762,281.398 v -2.265 c 1.25,0 2.265,1.015 2.265,2.265 0,1.254 -1.015,2.27 -2.265,2.27 z"
           style="fill:#000000;fill-opacity:1;fill-rule:nonzero;stroke:none"
           id="path674" /><path
           d="m 476.762,281.398 v 2.27 c -1.254,0 -2.27,-1.016 -2.27,-2.27 0,-1.25 1.016,-2.265 2.27,-2.265 z"
           style="fill:#000000;fill-opacity:1;fill-rule:nonzero;stroke:none"
           id="path676" /><path
           d="m 483.961,292.199 h -2.27 c 0,-1.25 1.016,-2.265 2.27,-2.265 1.25,0 2.266,1.015 2.266,2.265 z"
           style="fill:#000000;fill-opacity:1;fill-rule:nonzero;stroke:none"
           id="path678" /><path
           d="m 483.961,292.199 h 2.266 c 0,1.254 -1.016,2.27 -2.266,2.27 -1.254,0 -2.27,-1.016 -2.27,-2.27 z"
           style="fill:#000000;fill-opacity:1;fill-rule:nonzero;stroke:none"
           id="path680" /><path
           d="m 457.434,292.199 c 0,1.254 -1.02,2.274 -2.274,2.274 -1.254,0 -2.273,-1.02 -2.273,-2.274 0,-1.254 1.019,-2.273 2.273,-2.273 1.254,0 2.274,1.019 2.274,2.273 z"
           style="fill:#000000;fill-opacity:1;fill-rule:nonzero;stroke:none"
           id="path682" /><path
           d="m 444.359,260.941 h 2.27 c 0,1.25 -1.016,2.266 -2.27,2.266 -1.25,0 -2.265,-1.016 -2.265,-2.266 z"
           style="fill:#000000;fill-opacity:1;fill-rule:nonzero;stroke:none"
           id="path684" /><path
           d="m 444.359,258.66 h -2.265 c 0,-1.254 1.015,-2.269 2.265,-2.269 1.254,0 2.27,1.015 2.27,2.269 z"
           style="fill:#000000;fill-opacity:1;fill-rule:nonzero;stroke:none"
           id="path686" /><path
           d="m 442.094,258.66 h 4.531 v 2.281 h -4.531 z"
           style="fill:#000000;fill-opacity:1;fill-rule:nonzero;stroke:none"
           id="path688" /><path
           d="m 458.762,282.539 h 2.265 c 0,1.254 -1.015,2.27 -2.265,2.27 -1.254,0 -2.27,-1.016 -2.27,-2.27 z"
           style="fill:#000000;fill-opacity:1;fill-rule:nonzero;stroke:none"
           id="path690" /><path
           d="m 458.762,280.262 h -2.27 c 0,-1.254 1.016,-2.27 2.27,-2.27 1.25,0 2.265,1.016 2.265,2.27 z"
           style="fill:#000000;fill-opacity:1;fill-rule:nonzero;stroke:none"
           id="path692" /><path
           d="m 456.496,280.262 h 4.527 v 2.277 h -4.527 z"
           style="fill:#000000;fill-opacity:1;fill-rule:nonzero;stroke:none"
           id="path694" /><path
           d="m 451.559,282.539 h 2.269 c 0,1.254 -1.016,2.27 -2.269,2.27 -1.25,0 -2.266,-1.016 -2.266,-2.27 z"
           style="fill:#000000;fill-opacity:1;fill-rule:nonzero;stroke:none"
           id="path696" /><path
           d="m 451.559,280.262 h -2.266 c 0,-1.254 1.016,-2.27 2.266,-2.27 1.253,0 2.269,1.016 2.269,2.27 z"
           style="fill:#000000;fill-opacity:1;fill-rule:nonzero;stroke:none"
           id="path698" /><path
           d="m 449.297,280.262 h 4.527 v 2.277 h -4.527 z"
           style="fill:#000000;fill-opacity:1;fill-rule:nonzero;stroke:none"
           id="path700" /><path
           d="m 442.094,277.996 h 4.531 v 6.809 h -4.531 z"
           style="fill:#000000;fill-opacity:1;fill-rule:nonzero;stroke:none"
           id="path702" /><path
           d="m 417.699,270.602 c 0,1.179 -0.957,2.136 -2.14,2.136 -1.18,0 -2.137,-0.957 -2.137,-2.136 0,-1.184 0.957,-2.141 2.137,-2.141 1.183,0 2.14,0.957 2.14,2.141 z"
           style="fill:#000000;fill-opacity:1;fill-rule:nonzero;stroke:none"
           id="path704" /><path
           d="m 435.699,285 c 0,1.18 -0.957,2.137 -2.14,2.137 -1.18,0 -2.137,-0.957 -2.137,-2.137 0,-1.18 0.957,-2.137 2.137,-2.137 1.183,0 2.14,0.957 2.14,2.137 z"
           style="fill:#000000;fill-opacity:1;fill-rule:nonzero;stroke:none"
           id="path706" /><path
           d="m 358.387,360.602 c 0,0.234 -0.192,0.425 -0.426,0.425 -0.238,0 -0.43,-0.191 -0.43,-0.425 0,-0.239 0.192,-0.43 0.43,-0.43 0.234,0 0.426,0.191 0.426,0.43 z"
           style="fill:#ffffff;fill-opacity:1;fill-rule:nonzero;stroke:none"
           id="path708" /><path
           d="m 484.387,360.602 c 0,0.234 -0.192,0.425 -0.426,0.425 -0.238,0 -0.43,-0.191 -0.43,-0.425 0,-0.239 0.192,-0.43 0.43,-0.43 0.234,0 0.426,0.191 0.426,0.43 z"
           style="fill:#ffffff;fill-opacity:1;fill-rule:nonzero;stroke:none"
           id="path710" /><path
           d="m 484.387,234.602 c 0,0.234 -0.192,0.425 -0.426,0.425 -0.238,0 -0.43,-0.191 -0.43,-0.425 0,-0.239 0.192,-0.43 0.43,-0.43 0.234,0 0.426,0.191 0.426,0.43 z"
           style="fill:#ffffff;fill-opacity:1;fill-rule:nonzero;stroke:none"
           id="path712" /><path
           d="m 405.188,306.602 c 0,0.234 -0.192,0.425 -0.426,0.425 -0.239,0 -0.43,-0.191 -0.43,-0.425 0,-0.239 0.191,-0.43 0.43,-0.43 0.234,0 0.426,0.191 0.426,0.43 z"
           style="fill:#ffffff;fill-opacity:1;fill-rule:nonzero;stroke:none"
           id="path714" /><path
           d="m 405.188,299.398 c 0,0.239 -0.192,0.43 -0.426,0.43 -0.239,0 -0.43,-0.191 -0.43,-0.43 0,-0.234 0.191,-0.425 0.43,-0.425 0.234,0 0.426,0.191 0.426,0.425 z"
           style="fill:#ffffff;fill-opacity:1;fill-rule:nonzero;stroke:none"
           id="path716" /><path
           d="m 410.859,281.398 c 0,0.239 -0.191,0.43 -0.429,0.43 -0.235,0 -0.426,-0.191 -0.426,-0.43 0,-0.234 0.191,-0.425 0.426,-0.425 0.238,0 0.429,0.191 0.429,0.425 z"
           style="fill:#ffffff;fill-opacity:1;fill-rule:nonzero;stroke:none"
           id="path718" /><path
           d="m 405.188,281.398 c 0,0.239 -0.192,0.43 -0.426,0.43 -0.239,0 -0.43,-0.191 -0.43,-0.43 0,-0.234 0.191,-0.425 0.43,-0.425 0.234,0 0.426,0.191 0.426,0.425 z"
           style="fill:#ffffff;fill-opacity:1;fill-rule:nonzero;stroke:none"
           id="path720" /><path
           d="m 423.188,295.801 c 0,0.234 -0.192,0.426 -0.426,0.426 -0.239,0 -0.43,-0.192 -0.43,-0.426 0,-0.239 0.191,-0.43 0.43,-0.43 0.234,0 0.426,0.191 0.426,0.43 z"
           style="fill:#ffffff;fill-opacity:1;fill-rule:nonzero;stroke:none"
           id="path722" /><path
           d="m 412.387,241.801 c 0,0.234 -0.192,0.426 -0.426,0.426 -0.238,0 -0.43,-0.192 -0.43,-0.426 0,-0.239 0.192,-0.43 0.43,-0.43 0.234,0 0.426,0.191 0.426,0.43 z"
           style="fill:#ffffff;fill-opacity:1;fill-rule:nonzero;stroke:none"
           id="path724" /><path
           d="m 426.789,241.801 c 0,0.234 -0.191,0.426 -0.43,0.426 -0.234,0 -0.425,-0.192 -0.425,-0.426 0,-0.239 0.191,-0.43 0.425,-0.43 0.239,0 0.43,0.191 0.43,0.43 z"
           style="fill:#ffffff;fill-opacity:1;fill-rule:nonzero;stroke:none"
           id="path726" /><path
           d="m 428.316,263.398 c 0,0.239 -0.191,0.43 -0.425,0.43 -0.239,0 -0.43,-0.191 -0.43,-0.43 0,-0.234 0.191,-0.425 0.43,-0.425 0.234,0 0.425,0.191 0.425,0.425 z"
           style="fill:#ffffff;fill-opacity:1;fill-rule:nonzero;stroke:none"
           id="path728" /><path
           d="m 433.988,263.398 c 0,0.239 -0.191,0.43 -0.429,0.43 -0.235,0 -0.426,-0.191 -0.426,-0.43 0,-0.234 0.191,-0.425 0.426,-0.425 0.238,0 0.429,0.191 0.429,0.425 z"
           style="fill:#ffffff;fill-opacity:1;fill-rule:nonzero;stroke:none"
           id="path730" /><path
           d="m 419.586,259.801 c 0,0.234 -0.191,0.426 -0.426,0.426 -0.234,0 -0.426,-0.192 -0.426,-0.426 0,-0.239 0.192,-0.43 0.426,-0.43 0.235,0 0.426,0.191 0.426,0.43 z"
           style="fill:#ffffff;fill-opacity:1;fill-rule:nonzero;stroke:none"
           id="path732" /><path
           d="m 444.789,317.398 c 0,0.239 -0.191,0.43 -0.43,0.43 -0.234,0 -0.425,-0.191 -0.425,-0.43 0,-0.234 0.191,-0.425 0.425,-0.425 0.239,0 0.43,0.191 0.43,0.425 z"
           style="fill:#ffffff;fill-opacity:1;fill-rule:nonzero;stroke:none"
           id="path734" /><path
           d="m 437.586,317.398 c 0,0.239 -0.191,0.43 -0.426,0.43 -0.234,0 -0.426,-0.191 -0.426,-0.43 0,-0.234 0.192,-0.425 0.426,-0.425 0.235,0 0.426,0.191 0.426,0.425 z"
           style="fill:#ffffff;fill-opacity:1;fill-rule:nonzero;stroke:none"
           id="path736" /><path
           d="m 437.586,295.801 c 0,0.234 -0.191,0.426 -0.426,0.426 -0.234,0 -0.426,-0.192 -0.426,-0.426 0,-0.239 0.192,-0.43 0.426,-0.43 0.235,0 0.426,0.191 0.426,0.43 z"
           style="fill:#ffffff;fill-opacity:1;fill-rule:nonzero;stroke:none"
           id="path738" /><path
           d="m 444.789,295.801 c 0,0.234 -0.191,0.426 -0.43,0.426 -0.234,0 -0.425,-0.192 -0.425,-0.426 0,-0.239 0.191,-0.43 0.425,-0.43 0.239,0 0.43,0.191 0.43,0.43 z"
           style="fill:#ffffff;fill-opacity:1;fill-rule:nonzero;stroke:none"
           id="path740" /><path
           d="m 459.188,317.176 c 0,0.234 -0.192,0.426 -0.426,0.426 -0.239,0 -0.43,-0.192 -0.43,-0.426 0,-0.238 0.191,-0.43 0.43,-0.43 0.234,0 0.426,0.192 0.426,0.43 z"
           style="fill:#ffffff;fill-opacity:1;fill-rule:nonzero;stroke:none"
           id="path742" /><path
           d="m 459.188,303 c 0,0.234 -0.192,0.426 -0.426,0.426 -0.239,0 -0.43,-0.192 -0.43,-0.426 0,-0.234 0.191,-0.426 0.43,-0.426 0.234,0 0.426,0.192 0.426,0.426 z"
           style="fill:#ffffff;fill-opacity:1;fill-rule:nonzero;stroke:none"
           id="path744" /><path
           d="m 477.188,328.199 c 0,0.239 -0.192,0.43 -0.426,0.43 -0.239,0 -0.43,-0.191 -0.43,-0.43 0,-0.234 0.191,-0.426 0.43,-0.426 0.234,0 0.426,0.192 0.426,0.426 z"
           style="fill:#ffffff;fill-opacity:1;fill-rule:nonzero;stroke:none"
           id="path746" /><path
           d="m 448.387,328.199 c 0,0.239 -0.192,0.43 -0.426,0.43 -0.238,0 -0.43,-0.191 -0.43,-0.43 0,-0.234 0.192,-0.426 0.43,-0.426 0.234,0 0.426,0.192 0.426,0.426 z"
           style="fill:#ffffff;fill-opacity:1;fill-rule:nonzero;stroke:none"
           id="path748" /><path
           d="m 405.188,313.801 c 0,0.234 -0.192,0.426 -0.426,0.426 -0.239,0 -0.43,-0.192 -0.43,-0.426 0,-0.239 0.191,-0.43 0.43,-0.43 0.234,0 0.426,0.191 0.426,0.43 z"
           style="fill:#ffffff;fill-opacity:1;fill-rule:nonzero;stroke:none"
           id="path750" /><path
           d="m 430.387,295.801 c 0,0.234 -0.192,0.426 -0.426,0.426 -0.238,0 -0.43,-0.192 -0.43,-0.426 0,-0.239 0.192,-0.43 0.43,-0.43 0.234,0 0.426,0.191 0.426,0.43 z"
           style="fill:#ffffff;fill-opacity:1;fill-rule:nonzero;stroke:none"
           id="path752" /><path
           d="m 430.387,317.398 c 0,0.239 -0.192,0.43 -0.426,0.43 -0.238,0 -0.43,-0.191 -0.43,-0.43 0,-0.234 0.192,-0.425 0.43,-0.425 0.234,0 0.426,0.191 0.426,0.425 z"
           style="fill:#ffffff;fill-opacity:1;fill-rule:nonzero;stroke:none"
           id="path754" /><path
           d="m 423.188,317.398 c 0,0.239 -0.192,0.43 -0.426,0.43 -0.239,0 -0.43,-0.191 -0.43,-0.43 0,-0.234 0.191,-0.425 0.43,-0.425 0.234,0 0.426,0.191 0.426,0.425 z"
           style="fill:#ffffff;fill-opacity:1;fill-rule:nonzero;stroke:none"
           id="path756" /><path
           d="m 376.387,288.602 c 0,0.234 -0.192,0.425 -0.426,0.425 -0.238,0 -0.43,-0.191 -0.43,-0.425 0,-0.239 0.192,-0.43 0.43,-0.43 0.234,0 0.426,0.191 0.426,0.43 z"
           style="fill:#ffffff;fill-opacity:1;fill-rule:nonzero;stroke:none"
           id="path758" /><path
           d="m 390.789,317.398 c 0,0.239 -0.191,0.43 -0.43,0.43 -0.234,0 -0.425,-0.191 -0.425,-0.43 0,-0.234 0.191,-0.425 0.425,-0.425 0.239,0 0.43,0.191 0.43,0.425 z"
           style="fill:#ffffff;fill-opacity:1;fill-rule:nonzero;stroke:none"
           id="path760" /><path
           d="m 390.789,288.602 c 0,0.234 -0.191,0.425 -0.43,0.425 -0.234,0 -0.425,-0.191 -0.425,-0.425 0,-0.239 0.191,-0.43 0.425,-0.43 0.239,0 0.43,0.191 0.43,0.43 z"
           style="fill:#ffffff;fill-opacity:1;fill-rule:nonzero;stroke:none"
           id="path762" /><path
           d="m 441.188,241.801 c 0,0.234 -0.192,0.426 -0.426,0.426 -0.239,0 -0.43,-0.192 -0.43,-0.426 0,-0.239 0.191,-0.43 0.43,-0.43 0.234,0 0.426,0.191 0.426,0.43 z"
           style="fill:#ffffff;fill-opacity:1;fill-rule:nonzero;stroke:none"
           id="path764" /><path
           d="m 444.789,259.801 c 0,0.234 -0.191,0.426 -0.43,0.426 -0.234,0 -0.425,-0.192 -0.425,-0.426 0,-0.239 0.191,-0.43 0.425,-0.43 0.239,0 0.43,0.191 0.43,0.43 z"
           style="fill:#ffffff;fill-opacity:1;fill-rule:nonzero;stroke:none"
           id="path766" /><path
           d="m 451.988,259.801 c 0,0.234 -0.191,0.426 -0.429,0.426 -0.235,0 -0.426,-0.192 -0.426,-0.426 0,-0.239 0.191,-0.43 0.426,-0.43 0.238,0 0.429,0.191 0.429,0.43 z"
           style="fill:#ffffff;fill-opacity:1;fill-rule:nonzero;stroke:none"
           id="path768" /><path
           d="m 459.188,259.801 c 0,0.234 -0.192,0.426 -0.426,0.426 -0.239,0 -0.43,-0.192 -0.43,-0.426 0,-0.239 0.191,-0.43 0.43,-0.43 0.234,0 0.426,0.191 0.426,0.43 z"
           style="fill:#ffffff;fill-opacity:1;fill-rule:nonzero;stroke:none"
           id="path770" /><path
           d="m 466.387,259.801 c 0,0.234 -0.192,0.426 -0.426,0.426 -0.238,0 -0.43,-0.192 -0.43,-0.426 0,-0.239 0.192,-0.43 0.43,-0.43 0.234,0 0.426,0.191 0.426,0.43 z"
           style="fill:#ffffff;fill-opacity:1;fill-rule:nonzero;stroke:none"
           id="path772" /><path
           d="m 477.188,252.602 c 0,0.234 -0.192,0.425 -0.426,0.425 -0.239,0 -0.43,-0.191 -0.43,-0.425 0,-0.239 0.191,-0.43 0.43,-0.43 0.234,0 0.426,0.191 0.426,0.43 z"
           style="fill:#ffffff;fill-opacity:1;fill-rule:nonzero;stroke:none"
           id="path774" /><path
           d="m 462.789,238.32 c 0,0.235 -0.191,0.426 -0.43,0.426 -0.234,0 -0.425,-0.191 -0.425,-0.426 0,-0.238 0.191,-0.429 0.425,-0.429 0.239,0 0.43,0.191 0.43,0.429 z"
           style="fill:#ffffff;fill-opacity:1;fill-rule:nonzero;stroke:none"
           id="path776" /><path
           d="m 462.789,245.398 c 0,0.239 -0.191,0.43 -0.43,0.43 -0.234,0 -0.425,-0.191 -0.425,-0.43 0,-0.234 0.191,-0.425 0.425,-0.425 0.239,0 0.43,0.191 0.43,0.425 z"
           style="fill:#ffffff;fill-opacity:1;fill-rule:nonzero;stroke:none"
           id="path778" /><path
           d="m 466.387,281.398 c 0,0.239 -0.192,0.43 -0.426,0.43 -0.238,0 -0.43,-0.191 -0.43,-0.43 0,-0.234 0.192,-0.425 0.43,-0.425 0.234,0 0.426,0.191 0.426,0.425 z"
           style="fill:#ffffff;fill-opacity:1;fill-rule:nonzero;stroke:none"
           id="path780" /><path
           d="m 459.188,281.398 c 0,0.239 -0.192,0.43 -0.426,0.43 -0.239,0 -0.43,-0.191 -0.43,-0.43 0,-0.234 0.191,-0.425 0.43,-0.425 0.234,0 0.426,0.191 0.426,0.425 z"
           style="fill:#ffffff;fill-opacity:1;fill-rule:nonzero;stroke:none"
           id="path782" /><path
           d="m 451.988,281.398 c 0,0.239 -0.191,0.43 -0.429,0.43 -0.235,0 -0.426,-0.191 -0.426,-0.43 0,-0.234 0.191,-0.425 0.426,-0.425 0.238,0 0.429,0.191 0.429,0.425 z"
           style="fill:#ffffff;fill-opacity:1;fill-rule:nonzero;stroke:none"
           id="path784" /><path
           d="m 444.789,281.398 c 0,0.239 -0.191,0.43 -0.43,0.43 -0.234,0 -0.425,-0.191 -0.425,-0.43 0,-0.234 0.191,-0.425 0.425,-0.425 0.239,0 0.43,0.191 0.43,0.425 z"
           style="fill:#ffffff;fill-opacity:1;fill-rule:nonzero;stroke:none"
           id="path786" /><path
           d="m 477.188,281.398 c 0,0.239 -0.192,0.43 -0.426,0.43 -0.239,0 -0.43,-0.191 -0.43,-0.43 0,-0.234 0.191,-0.425 0.43,-0.425 0.234,0 0.426,0.191 0.426,0.425 z"
           style="fill:#ffffff;fill-opacity:1;fill-rule:nonzero;stroke:none"
           id="path788" /><path
           d="m 484.387,292.199 c 0,0.239 -0.192,0.43 -0.426,0.43 -0.238,0 -0.43,-0.191 -0.43,-0.43 0,-0.234 0.192,-0.426 0.43,-0.426 0.234,0 0.426,0.192 0.426,0.426 z"
           style="fill:#ffffff;fill-opacity:1;fill-rule:nonzero;stroke:none"
           id="path790" /><path
           d="m 455.586,292.199 c 0,0.239 -0.191,0.43 -0.426,0.43 -0.234,0 -0.426,-0.191 -0.426,-0.43 0,-0.234 0.192,-0.426 0.426,-0.426 0.235,0 0.426,0.192 0.426,0.426 z"
           style="fill:#ffffff;fill-opacity:1;fill-rule:nonzero;stroke:none"
           id="path792" /><path
           d="m 397.988,241.801 c 0,0.234 -0.191,0.426 -0.429,0.426 -0.235,0 -0.426,-0.192 -0.426,-0.426 0,-0.239 0.191,-0.43 0.426,-0.43 0.238,0 0.429,0.191 0.429,0.43 z"
           style="fill:#ffffff;fill-opacity:1;fill-rule:nonzero;stroke:none"
           id="path794" /><path
           d="m 369.188,270.602 c 0,0.234 -0.192,0.425 -0.426,0.425 -0.239,0 -0.43,-0.191 -0.43,-0.425 0,-0.239 0.191,-0.43 0.43,-0.43 0.234,0 0.426,0.191 0.426,0.43 z"
           style="fill:#ffffff;fill-opacity:1;fill-rule:nonzero;stroke:none"
           id="path796" /><path
           d="m 376.387,270.602 c 0,0.234 -0.192,0.425 -0.426,0.425 -0.238,0 -0.43,-0.191 -0.43,-0.425 0,-0.239 0.192,-0.43 0.43,-0.43 0.234,0 0.426,0.191 0.426,0.43 z"
           style="fill:#ffffff;fill-opacity:1;fill-rule:nonzero;stroke:none"
           id="path798" /><path
           d="m 383.586,270.602 c 0,0.234 -0.191,0.425 -0.426,0.425 -0.234,0 -0.426,-0.191 -0.426,-0.425 0,-0.239 0.192,-0.43 0.426,-0.43 0.235,0 0.426,0.191 0.426,0.43 z"
           style="fill:#ffffff;fill-opacity:1;fill-rule:nonzero;stroke:none"
           id="path800" /><path
           d="m 369.188,241.801 c 0,0.234 -0.192,0.426 -0.426,0.426 -0.239,0 -0.43,-0.192 -0.43,-0.426 0,-0.239 0.191,-0.43 0.43,-0.43 0.234,0 0.426,0.191 0.426,0.43 z"
           style="fill:#ffffff;fill-opacity:1;fill-rule:nonzero;stroke:none"
           id="path802" /><path
           d="m 383.586,241.801 c 0,0.234 -0.191,0.426 -0.426,0.426 -0.234,0 -0.426,-0.192 -0.426,-0.426 0,-0.239 0.192,-0.43 0.426,-0.43 0.235,0 0.426,0.191 0.426,0.43 z"
           style="fill:#ffffff;fill-opacity:1;fill-rule:nonzero;stroke:none"
           id="path804" /><path
           d="m 390.789,259.801 c 0,0.234 -0.191,0.426 -0.43,0.426 -0.234,0 -0.425,-0.192 -0.425,-0.426 0,-0.239 0.191,-0.43 0.425,-0.43 0.239,0 0.43,0.191 0.43,0.43 z"
           style="fill:#ffffff;fill-opacity:1;fill-rule:nonzero;stroke:none"
           id="path806" /><path
           d="m 376.387,352.094 c 0,0.238 -0.192,0.429 -0.426,0.429 -0.238,0 -0.43,-0.191 -0.43,-0.429 0,-0.235 0.192,-0.426 0.43,-0.426 0.234,0 0.426,0.191 0.426,0.426 z"
           style="fill:#ffffff;fill-opacity:1;fill-rule:nonzero;stroke:none"
           id="path808" /><path
           d="m 390.789,353.398 c 0,0.239 -0.191,0.43 -0.43,0.43 -0.234,0 -0.425,-0.191 -0.425,-0.43 0,-0.234 0.191,-0.425 0.425,-0.425 0.239,0 0.43,0.191 0.43,0.425 z"
           style="fill:#ffffff;fill-opacity:1;fill-rule:nonzero;stroke:none"
           id="path810" /><path
           d="m 390.789,324.602 c 0,0.234 -0.191,0.425 -0.43,0.425 -0.234,0 -0.425,-0.191 -0.425,-0.425 0,-0.239 0.191,-0.43 0.425,-0.43 0.239,0 0.43,0.191 0.43,0.43 z"
           style="fill:#ffffff;fill-opacity:1;fill-rule:nonzero;stroke:none"
           id="path812" /><path
           d="m 405.188,324.602 c 0,0.234 -0.192,0.425 -0.426,0.425 -0.239,0 -0.43,-0.191 -0.43,-0.425 0,-0.239 0.191,-0.43 0.43,-0.43 0.234,0 0.426,0.191 0.426,0.43 z"
           style="fill:#ffffff;fill-opacity:1;fill-rule:nonzero;stroke:none"
           id="path814" /><path
           d="m 405.188,353.398 c 0,0.239 -0.192,0.43 -0.426,0.43 -0.239,0 -0.43,-0.191 -0.43,-0.43 0,-0.234 0.191,-0.425 0.43,-0.425 0.234,0 0.426,0.191 0.426,0.425 z"
           style="fill:#ffffff;fill-opacity:1;fill-rule:nonzero;stroke:none"
           id="path816" /><path
           d="m 437.586,357 c 0,0.234 -0.191,0.426 -0.426,0.426 -0.234,0 -0.426,-0.192 -0.426,-0.426 0,-0.234 0.192,-0.426 0.426,-0.426 0.235,0 0.426,0.192 0.426,0.426 z"
           style="fill:#ffffff;fill-opacity:1;fill-rule:nonzero;stroke:none"
           id="path818" /><path
           d="m 437.586,328.199 c 0,0.239 -0.191,0.43 -0.426,0.43 -0.234,0 -0.426,-0.191 -0.426,-0.43 0,-0.234 0.192,-0.426 0.426,-0.426 0.235,0 0.426,0.192 0.426,0.426 z"
           style="fill:#ffffff;fill-opacity:1;fill-rule:nonzero;stroke:none"
           id="path820" /><path
           d="m 415.988,270.602 c 0,0.234 -0.191,0.425 -0.429,0.425 -0.235,0 -0.426,-0.191 -0.426,-0.425 0,-0.239 0.191,-0.43 0.426,-0.43 0.238,0 0.429,0.191 0.429,0.43 z"
           style="fill:#ffffff;fill-opacity:1;fill-rule:nonzero;stroke:none"
           id="path822" /><path
           d="m 433.988,285 c 0,0.234 -0.191,0.426 -0.429,0.426 -0.235,0 -0.426,-0.192 -0.426,-0.426 0,-0.234 0.191,-0.426 0.426,-0.426 0.238,0 0.429,0.192 0.429,0.426 z"
           style="fill:#ffffff;fill-opacity:1;fill-rule:nonzero;stroke:none"
           id="path824" /></g></g></g></svg>
