M48
; DRILL file {KiCad 5.1.10} date Wed Jun 16 12:34:52 2021
; FORMAT={-:-/ absolute / metric / decimal}
; #@! TF.CreationDate,2021-06-16T12:34:52-03:00
; #@! TF.GenerationSoftware,Kicad,Pcbnew,5.1.10
; #@! TF.FileFunction,Plated,1,2,PTH
FMAT,2
METRIC
T1C0.400
T2C0.800
T3C1.000
T4C1.100
T5C1.200
T6C1.520
T7C3.000
%
G90
G05
T1
X53.34Y-57.15
X53.34Y-143.51
X55.88Y-31.75
X58.42Y-50.8
X63.5Y-87.63
X68.58Y-91.44
X68.58Y-111.76
X73.66Y-151.13
X85.09Y-67.31
X85.09Y-91.1
X88.9Y-50.8
X92.71Y-87.63
X95.25Y-87.63
X95.25Y-128.27
X99.06Y-91.44
X99.06Y-111.76
X115.57Y-67.31
X115.57Y-91.1
X119.38Y-50.8
X123.19Y-87.63
X125.73Y-87.63
X125.73Y-128.27
X129.54Y-91.44
X129.54Y-111.76
X146.05Y-67.31
X146.05Y-91.1
X149.86Y-50.8
X153.67Y-87.63
X156.21Y-87.63
X156.21Y-128.27
X160.02Y-91.44
X160.02Y-111.76
X176.53Y-67.31
X176.53Y-91.1
X177.8Y-151.13
X181.61Y-34.29
X184.15Y-87.63
X186.69Y-128.27
X207.01Y-114.3
T2
X64.77Y-25.4
X64.77Y-33.02
X64.77Y-100.33
X64.77Y-110.49
X64.77Y-113.03
X64.77Y-123.19
X66.04Y-146.05
X66.08Y-69.85
X66.08Y-74.93
X68.58Y-45.72
X68.58Y-55.88
X68.58Y-60.96
X68.58Y-65.96
X68.58Y-69.85
X68.58Y-74.93
X68.58Y-115.57
X68.58Y-118.07
X71.12Y-100.33
X71.12Y-123.19
X71.12Y-127.0
X71.12Y-130.81
X72.39Y-48.26
X72.39Y-52.07
X72.39Y-55.88
X72.39Y-78.74
X72.39Y-104.14
X72.39Y-106.68
X72.39Y-109.22
X72.39Y-111.76
X72.39Y-114.3
X72.39Y-116.84
X72.39Y-119.38
X73.66Y-59.69
X73.66Y-62.23
X73.66Y-64.77
X73.66Y-67.31
X73.66Y-69.85
X73.66Y-72.39
X73.66Y-74.93
X76.2Y-146.05
X77.47Y-33.02
X80.01Y-104.14
X80.01Y-106.68
X80.01Y-109.22
X80.01Y-111.76
X80.01Y-114.3
X80.01Y-116.84
X80.01Y-119.38
X81.28Y-59.69
X81.28Y-62.23
X81.28Y-64.77
X81.28Y-67.31
X81.28Y-69.85
X81.28Y-72.39
X81.28Y-74.93
X81.28Y-100.33
X81.28Y-123.19
X81.28Y-127.0
X81.28Y-130.81
X82.55Y-48.26
X82.55Y-52.07
X82.55Y-55.88
X82.55Y-78.74
X85.09Y-61.0
X85.09Y-63.5
X85.09Y-104.14
X85.09Y-109.22
X85.09Y-113.11
X85.09Y-118.11
X85.09Y-123.19
X85.09Y-133.35
X87.59Y-104.14
X87.59Y-109.22
X87.63Y-33.02
X88.9Y-57.15
X88.9Y-67.31
X88.9Y-69.85
X88.9Y-80.01
X88.9Y-146.05
X88.9Y-153.67
X93.98Y-25.4
X93.98Y-33.02
X95.25Y-99.06
X95.25Y-109.22
X95.25Y-111.76
X95.25Y-121.92
X96.52Y-146.05
X96.56Y-69.85
X96.56Y-74.93
X99.06Y-45.72
X99.06Y-55.88
X99.06Y-60.96
X99.06Y-65.96
X99.06Y-69.85
X99.06Y-74.93
X99.06Y-115.57
X99.06Y-118.07
X101.6Y-100.33
X101.6Y-123.19
X101.6Y-127.0
X101.6Y-130.81
X102.87Y-48.26
X102.87Y-52.07
X102.87Y-55.88
X102.87Y-78.74
X102.87Y-104.14
X102.87Y-106.68
X102.87Y-109.22
X102.87Y-111.76
X102.87Y-114.3
X102.87Y-116.84
X102.87Y-119.38
X104.14Y-59.69
X104.14Y-62.23
X104.14Y-64.77
X104.14Y-67.31
X104.14Y-69.85
X104.14Y-72.39
X104.14Y-74.93
X106.68Y-146.05
X107.95Y-33.02
X110.49Y-104.14
X110.49Y-106.68
X110.49Y-109.22
X110.49Y-111.76
X110.49Y-114.3
X110.49Y-116.84
X110.49Y-119.38
X111.76Y-59.69
X111.76Y-62.23
X111.76Y-64.77
X111.76Y-67.31
X111.76Y-69.85
X111.76Y-72.39
X111.76Y-74.93
X111.76Y-100.33
X111.76Y-123.19
X111.76Y-127.0
X111.76Y-130.81
X113.03Y-48.26
X113.03Y-52.07
X113.03Y-55.88
X113.03Y-78.74
X115.57Y-61.0
X115.57Y-63.5
X115.57Y-104.14
X115.57Y-109.22
X115.57Y-113.11
X115.57Y-118.11
X115.57Y-123.19
X115.57Y-133.35
X118.07Y-104.14
X118.07Y-109.22
X118.11Y-33.02
X119.38Y-57.15
X119.38Y-67.31
X119.38Y-69.85
X119.38Y-80.01
X119.38Y-146.05
X119.38Y-153.67
X124.46Y-25.4
X124.46Y-33.02
X125.73Y-99.06
X125.73Y-109.22
X125.73Y-111.76
X125.73Y-121.92
X127.0Y-146.05
X127.04Y-69.85
X127.04Y-74.93
X129.54Y-45.72
X129.54Y-55.88
X129.54Y-61.04
X129.54Y-66.04
X129.54Y-69.85
X129.54Y-74.93
X129.54Y-115.57
X129.54Y-118.07
X132.08Y-100.33
X132.08Y-123.19
X132.08Y-127.0
X132.08Y-130.81
X133.35Y-48.26
X133.35Y-52.07
X133.35Y-55.88
X133.35Y-78.74
X133.35Y-104.14
X133.35Y-106.68
X133.35Y-109.22
X133.35Y-111.76
X133.35Y-114.3
X133.35Y-116.84
X133.35Y-119.38
X134.62Y-59.69
X134.62Y-62.23
X134.62Y-64.77
X134.62Y-67.31
X134.62Y-69.85
X134.62Y-72.39
X134.62Y-74.93
X137.16Y-146.05
X138.43Y-33.02
X140.97Y-104.14
X140.97Y-106.68
X140.97Y-109.22
X140.97Y-111.76
X140.97Y-114.3
X140.97Y-116.84
X140.97Y-119.38
X142.24Y-59.69
X142.24Y-62.23
X142.24Y-64.77
X142.24Y-67.31
X142.24Y-69.85
X142.24Y-72.39
X142.24Y-74.93
X142.24Y-100.33
X142.24Y-123.19
X142.24Y-127.0
X142.24Y-130.81
X143.51Y-48.26
X143.51Y-52.07
X143.51Y-55.88
X143.51Y-78.74
X146.05Y-61.0
X146.05Y-63.5
X146.05Y-104.14
X146.05Y-109.22
X146.05Y-113.11
X146.05Y-118.11
X146.05Y-123.19
X146.05Y-133.35
X148.55Y-104.14
X148.55Y-109.22
X148.59Y-33.02
X149.86Y-57.15
X149.86Y-67.31
X149.86Y-69.85
X149.86Y-80.01
X149.86Y-146.05
X149.86Y-153.67
X153.67Y-25.4
X153.67Y-33.02
X156.21Y-99.06
X156.21Y-109.22
X156.21Y-111.76
X156.21Y-121.92
X157.48Y-146.05
X157.52Y-69.85
X157.52Y-74.93
X160.02Y-45.72
X160.02Y-55.88
X160.02Y-60.96
X160.02Y-65.96
X160.02Y-69.85
X160.02Y-74.93
X160.02Y-115.57
X160.02Y-118.07
X162.56Y-100.33
X162.56Y-123.19
X162.56Y-127.0
X162.68Y-130.81
X163.83Y-48.26
X163.83Y-52.07
X163.83Y-55.88
X163.83Y-78.74
X163.83Y-104.14
X163.83Y-106.68
X163.83Y-109.22
X163.83Y-111.76
X163.83Y-114.3
X163.83Y-116.84
X163.83Y-119.38
X165.1Y-59.69
X165.1Y-62.23
X165.1Y-64.77
X165.1Y-67.31
X165.1Y-69.85
X165.1Y-72.39
X165.1Y-74.93
X167.64Y-146.05
X168.91Y-33.02
X171.45Y-104.14
X171.45Y-106.68
X171.45Y-109.22
X171.45Y-111.76
X171.45Y-114.3
X171.45Y-116.84
X171.45Y-119.38
X172.72Y-59.69
X172.72Y-62.23
X172.72Y-64.77
X172.72Y-67.31
X172.72Y-69.85
X172.72Y-72.39
X172.72Y-74.93
X172.72Y-100.33
X172.72Y-123.19
X172.72Y-127.0
X172.84Y-130.81
X173.99Y-48.26
X173.99Y-52.07
X173.99Y-55.88
X173.99Y-78.74
X176.53Y-61.0
X176.53Y-63.5
X176.53Y-104.14
X176.53Y-109.22
X176.53Y-113.11
X176.53Y-118.11
X176.53Y-123.19
X176.53Y-133.35
X179.03Y-104.14
X179.03Y-109.22
X179.07Y-33.02
X180.34Y-57.15
X180.34Y-67.31
X180.34Y-69.85
X180.34Y-80.01
X182.88Y-146.05
X182.88Y-153.67
X185.42Y-66.04
X187.96Y-66.04
X190.5Y-66.04
X194.31Y-55.88
X194.31Y-66.04
X194.31Y-74.93
X194.31Y-85.09
X195.62Y-71.12
X198.12Y-71.12
X198.12Y-74.93
X198.12Y-85.09
T3
X55.88Y-78.74
X55.88Y-81.28
X55.88Y-83.82
X55.88Y-86.36
X55.88Y-88.9
X55.88Y-91.44
X55.88Y-93.98
X55.88Y-96.52
X55.88Y-99.06
X71.12Y-33.02
X73.66Y-33.02
X80.01Y-146.05
X82.55Y-146.05
X101.6Y-33.02
X104.14Y-33.02
X110.49Y-146.05
X113.03Y-146.05
X132.08Y-33.02
X134.62Y-33.02
X140.97Y-146.05
X143.51Y-146.05
X162.56Y-33.02
X165.1Y-33.02
X171.45Y-146.05
X173.99Y-146.05
T4
X63.5Y-48.26
X63.5Y-50.8
X63.5Y-53.34
X90.17Y-125.73
X90.17Y-128.27
X90.17Y-130.81
X93.98Y-48.26
X93.98Y-50.8
X93.98Y-53.34
X120.65Y-125.73
X120.65Y-128.27
X120.65Y-130.81
X124.46Y-48.26
X124.46Y-50.8
X124.46Y-53.34
X151.13Y-125.73
X151.13Y-128.27
X151.13Y-130.81
X154.94Y-48.26
X154.94Y-50.8
X154.94Y-53.34
X181.61Y-125.73
X181.61Y-128.27
X181.61Y-130.81
X189.23Y-72.39
X189.23Y-82.55
T5
X68.58Y-40.64
X69.85Y-138.43
X83.82Y-40.64
X85.09Y-138.43
X99.06Y-40.64
X100.33Y-138.43
X114.3Y-40.64
X115.57Y-138.43
X129.54Y-40.64
X130.81Y-138.43
X144.78Y-40.64
X146.05Y-138.43
X160.02Y-40.64
X161.29Y-138.43
X175.26Y-40.64
X176.53Y-138.43
T6
X207.01Y-76.2
X207.01Y-81.28
X207.01Y-86.36
X207.01Y-91.44
X207.01Y-96.52
X207.01Y-101.6
T7
X55.88Y-19.05
X55.88Y-157.48
X210.82Y-19.05
X210.82Y-157.48
T0
M30
