%TF.GenerationSoftware,KiCad,Pcbnew,5.1.10*%
%TF.CreationDate,2021-06-29T12:58:40-03:00*%
%TF.ProjectId,cta,6374612e-6b69-4636-9164-5f7063625858,rev?*%
%TF.SameCoordinates,Original*%
%TF.FileFunction,Soldermask,Top*%
%TF.FilePolarity,Negative*%
%FSLAX46Y46*%
G04 Gerber Fmt 4.6, Leading zero omitted, Abs format (unit mm)*
G04 Created by KiCad (PCBNEW 5.1.10) date 2021-06-29 12:58:40*
%MOMM*%
%LPD*%
G01*
G04 APERTURE LIST*
%ADD10C,6.000000*%
%ADD11C,3.000000*%
%ADD12R,3.000000X3.000000*%
%ADD13O,2.400000X1.600000*%
%ADD14R,2.400000X1.600000*%
%ADD15O,1.700000X1.700000*%
%ADD16R,1.700000X1.700000*%
%ADD17O,1.600000X1.600000*%
%ADD18R,1.600000X1.600000*%
%ADD19C,1.600000*%
%ADD20R,1.500000X1.500000*%
%ADD21C,1.500000*%
%ADD22O,2.200000X2.200000*%
%ADD23R,2.200000X2.200000*%
%ADD24O,2.400000X2.400000*%
%ADD25C,2.400000*%
%ADD26O,2.000000X1.905000*%
%ADD27R,2.000000X1.905000*%
G04 APERTURE END LIST*
D10*
X210820000Y-19050000D03*
X210820000Y-157480000D03*
X55880000Y-157480000D03*
X55880000Y-19050000D03*
D11*
X207010000Y-101600000D03*
X207010000Y-96520000D03*
X207010000Y-91440000D03*
D12*
X207010000Y-76200000D03*
D11*
X207010000Y-86360000D03*
X207010000Y-81280000D03*
D13*
X72390000Y-119380000D03*
X80010000Y-104140000D03*
X72390000Y-116840000D03*
X80010000Y-106680000D03*
X72390000Y-114300000D03*
X80010000Y-109220000D03*
X72390000Y-111760000D03*
X80010000Y-111760000D03*
X72390000Y-109220000D03*
X80010000Y-114300000D03*
X72390000Y-106680000D03*
X80010000Y-116840000D03*
X72390000Y-104140000D03*
D14*
X80010000Y-119380000D03*
D15*
X55880000Y-99060000D03*
X55880000Y-96520000D03*
X55880000Y-93980000D03*
X55880000Y-91440000D03*
X55880000Y-88900000D03*
X55880000Y-86360000D03*
X55880000Y-83820000D03*
X55880000Y-81280000D03*
D16*
X55880000Y-78740000D03*
D17*
X182880000Y-153670000D03*
D18*
X182880000Y-146050000D03*
D17*
X149860000Y-153670000D03*
D18*
X149860000Y-146050000D03*
D17*
X119380000Y-153670000D03*
D18*
X119380000Y-146050000D03*
D17*
X88900000Y-153670000D03*
D18*
X88900000Y-146050000D03*
D17*
X153670000Y-25400000D03*
D18*
X153670000Y-33020000D03*
D17*
X124460000Y-25400000D03*
D18*
X124460000Y-33020000D03*
D17*
X93980000Y-25400000D03*
D18*
X93980000Y-33020000D03*
D17*
X64770000Y-25400000D03*
D18*
X64770000Y-33020000D03*
D17*
X194310000Y-74930000D03*
D19*
X194310000Y-85090000D03*
D17*
X198120000Y-74930000D03*
D19*
X198120000Y-85090000D03*
D17*
X194310000Y-55880000D03*
D19*
X194310000Y-66040000D03*
D20*
X190500000Y-66040000D03*
D21*
X185420000Y-66040000D03*
X187960000Y-66040000D03*
D22*
X189230000Y-82550000D03*
D23*
X189230000Y-72390000D03*
D19*
X195620000Y-71120000D03*
D18*
X198120000Y-71120000D03*
D19*
X176530000Y-113110000D03*
X176530000Y-118110000D03*
X146050000Y-113110000D03*
X146050000Y-118110000D03*
X115570000Y-113110000D03*
X115570000Y-118110000D03*
X85090000Y-113110000D03*
X85090000Y-118110000D03*
X160020000Y-65960000D03*
X160020000Y-60960000D03*
X129540000Y-66040000D03*
X129540000Y-61040000D03*
D24*
X161290000Y-138430000D03*
D25*
X176530000Y-138430000D03*
D24*
X130810000Y-138430000D03*
D25*
X146050000Y-138430000D03*
D24*
X100330000Y-138430000D03*
D25*
X115570000Y-138430000D03*
D24*
X69850000Y-138430000D03*
D25*
X85090000Y-138430000D03*
D24*
X175260000Y-40640000D03*
D25*
X160020000Y-40640000D03*
D24*
X144780000Y-40640000D03*
D25*
X129540000Y-40640000D03*
D24*
X114300000Y-40640000D03*
D25*
X99060000Y-40640000D03*
D24*
X83820000Y-40640000D03*
D25*
X68580000Y-40640000D03*
D19*
X179030000Y-109220000D03*
X176530000Y-109220000D03*
X148550000Y-109220000D03*
X146050000Y-109220000D03*
X118070000Y-109220000D03*
X115570000Y-109220000D03*
X87590000Y-109220000D03*
X85090000Y-109220000D03*
X157520000Y-69850000D03*
X160020000Y-69850000D03*
X127040000Y-69850000D03*
X129540000Y-69850000D03*
X96560000Y-69850000D03*
X99060000Y-69850000D03*
X66080000Y-69850000D03*
X68580000Y-69850000D03*
X160020000Y-118070000D03*
X160020000Y-115570000D03*
X129540000Y-118070000D03*
X129540000Y-115570000D03*
X99060000Y-118070000D03*
X99060000Y-115570000D03*
X68580000Y-118070000D03*
X68580000Y-115570000D03*
X176530000Y-61000000D03*
X176530000Y-63500000D03*
X146050000Y-61000000D03*
X146050000Y-63500000D03*
X115570000Y-61000000D03*
X115570000Y-63500000D03*
X85090000Y-61000000D03*
X85090000Y-63500000D03*
D15*
X173990000Y-146050000D03*
D16*
X171450000Y-146050000D03*
D15*
X143510000Y-146050000D03*
D16*
X140970000Y-146050000D03*
D15*
X113030000Y-146050000D03*
D16*
X110490000Y-146050000D03*
D15*
X82550000Y-146050000D03*
D16*
X80010000Y-146050000D03*
D15*
X162560000Y-33020000D03*
D16*
X165100000Y-33020000D03*
D15*
X132080000Y-33020000D03*
D16*
X134620000Y-33020000D03*
D15*
X101600000Y-33020000D03*
D16*
X104140000Y-33020000D03*
D15*
X71120000Y-33020000D03*
D16*
X73660000Y-33020000D03*
D19*
X99060000Y-65960000D03*
X99060000Y-60960000D03*
X68580000Y-65960000D03*
X68580000Y-60960000D03*
D13*
X163830000Y-119380000D03*
X171450000Y-104140000D03*
X163830000Y-116840000D03*
X171450000Y-106680000D03*
X163830000Y-114300000D03*
X171450000Y-109220000D03*
X163830000Y-111760000D03*
X171450000Y-111760000D03*
X163830000Y-109220000D03*
X171450000Y-114300000D03*
X163830000Y-106680000D03*
X171450000Y-116840000D03*
X163830000Y-104140000D03*
D14*
X171450000Y-119380000D03*
D17*
X157480000Y-146050000D03*
D19*
X167640000Y-146050000D03*
D17*
X162560000Y-123190000D03*
D19*
X172720000Y-123190000D03*
D17*
X176530000Y-133350000D03*
D19*
X176530000Y-123190000D03*
D17*
X162560000Y-100330000D03*
D19*
X172720000Y-100330000D03*
D17*
X156210000Y-99060000D03*
D19*
X156210000Y-109220000D03*
D17*
X156210000Y-111760000D03*
D19*
X156210000Y-121920000D03*
D17*
X172720000Y-127000000D03*
D19*
X162560000Y-127000000D03*
D17*
X162680225Y-130810000D03*
D19*
X172840225Y-130810000D03*
D26*
X181610000Y-125730000D03*
X181610000Y-128270000D03*
D27*
X181610000Y-130810000D03*
D19*
X179030000Y-104140000D03*
D18*
X176530000Y-104140000D03*
D13*
X133350000Y-119380000D03*
X140970000Y-104140000D03*
X133350000Y-116840000D03*
X140970000Y-106680000D03*
X133350000Y-114300000D03*
X140970000Y-109220000D03*
X133350000Y-111760000D03*
X140970000Y-111760000D03*
X133350000Y-109220000D03*
X140970000Y-114300000D03*
X133350000Y-106680000D03*
X140970000Y-116840000D03*
X133350000Y-104140000D03*
D14*
X140970000Y-119380000D03*
D17*
X127000000Y-146050000D03*
D19*
X137160000Y-146050000D03*
D17*
X132080000Y-123190000D03*
D19*
X142240000Y-123190000D03*
D17*
X146050000Y-133350000D03*
D19*
X146050000Y-123190000D03*
D17*
X132080000Y-100330000D03*
D19*
X142240000Y-100330000D03*
D17*
X125730000Y-99060000D03*
D19*
X125730000Y-109220000D03*
D17*
X125730000Y-111760000D03*
D19*
X125730000Y-121920000D03*
D17*
X142240000Y-127000000D03*
D19*
X132080000Y-127000000D03*
D17*
X132080000Y-130810000D03*
D19*
X142240000Y-130810000D03*
D26*
X151130000Y-125730000D03*
X151130000Y-128270000D03*
D27*
X151130000Y-130810000D03*
D19*
X148550000Y-104140000D03*
D18*
X146050000Y-104140000D03*
D13*
X102870000Y-119380000D03*
X110490000Y-104140000D03*
X102870000Y-116840000D03*
X110490000Y-106680000D03*
X102870000Y-114300000D03*
X110490000Y-109220000D03*
X102870000Y-111760000D03*
X110490000Y-111760000D03*
X102870000Y-109220000D03*
X110490000Y-114300000D03*
X102870000Y-106680000D03*
X110490000Y-116840000D03*
X102870000Y-104140000D03*
D14*
X110490000Y-119380000D03*
D17*
X96520000Y-146050000D03*
D19*
X106680000Y-146050000D03*
D17*
X101600000Y-123190000D03*
D19*
X111760000Y-123190000D03*
D17*
X115570000Y-133350000D03*
D19*
X115570000Y-123190000D03*
D17*
X101600000Y-100330000D03*
D19*
X111760000Y-100330000D03*
D17*
X95250000Y-99060000D03*
D19*
X95250000Y-109220000D03*
D17*
X95250000Y-111760000D03*
D19*
X95250000Y-121920000D03*
D17*
X111760000Y-127000000D03*
D19*
X101600000Y-127000000D03*
D17*
X101600000Y-130810000D03*
D19*
X111760000Y-130810000D03*
D26*
X120650000Y-125730000D03*
X120650000Y-128270000D03*
D27*
X120650000Y-130810000D03*
D19*
X118070000Y-104140000D03*
D18*
X115570000Y-104140000D03*
D17*
X66040000Y-146050000D03*
D19*
X76200000Y-146050000D03*
D17*
X71120000Y-123190000D03*
D19*
X81280000Y-123190000D03*
D17*
X85090000Y-133350000D03*
D19*
X85090000Y-123190000D03*
D17*
X71120000Y-100330000D03*
D19*
X81280000Y-100330000D03*
D17*
X64770000Y-100330000D03*
D19*
X64770000Y-110490000D03*
D17*
X64770000Y-113030000D03*
D19*
X64770000Y-123190000D03*
D17*
X81280000Y-127000000D03*
D19*
X71120000Y-127000000D03*
D17*
X71120000Y-130810000D03*
D19*
X81280000Y-130810000D03*
D26*
X90170000Y-125730000D03*
X90170000Y-128270000D03*
D27*
X90170000Y-130810000D03*
D19*
X87590000Y-104140000D03*
D18*
X85090000Y-104140000D03*
D13*
X172720000Y-59690000D03*
X165100000Y-74930000D03*
X172720000Y-62230000D03*
X165100000Y-72390000D03*
X172720000Y-64770000D03*
X165100000Y-69850000D03*
X172720000Y-67310000D03*
X165100000Y-67310000D03*
X172720000Y-69850000D03*
X165100000Y-64770000D03*
X172720000Y-72390000D03*
X165100000Y-62230000D03*
X172720000Y-74930000D03*
D14*
X165100000Y-59690000D03*
D17*
X179070000Y-33020000D03*
D19*
X168910000Y-33020000D03*
D17*
X173990000Y-55880000D03*
D19*
X163830000Y-55880000D03*
D17*
X160020000Y-45720000D03*
D19*
X160020000Y-55880000D03*
D17*
X173990000Y-78740000D03*
D19*
X163830000Y-78740000D03*
D17*
X180340000Y-80010000D03*
D19*
X180340000Y-69850000D03*
D17*
X180340000Y-67310000D03*
D19*
X180340000Y-57150000D03*
D17*
X163830000Y-52070000D03*
D19*
X173990000Y-52070000D03*
D17*
X173990000Y-48260000D03*
D19*
X163830000Y-48260000D03*
D26*
X154940000Y-53340000D03*
X154940000Y-50800000D03*
D27*
X154940000Y-48260000D03*
D19*
X157520000Y-74930000D03*
D18*
X160020000Y-74930000D03*
D13*
X142240000Y-59690000D03*
X134620000Y-74930000D03*
X142240000Y-62230000D03*
X134620000Y-72390000D03*
X142240000Y-64770000D03*
X134620000Y-69850000D03*
X142240000Y-67310000D03*
X134620000Y-67310000D03*
X142240000Y-69850000D03*
X134620000Y-64770000D03*
X142240000Y-72390000D03*
X134620000Y-62230000D03*
X142240000Y-74930000D03*
D14*
X134620000Y-59690000D03*
D17*
X148590000Y-33020000D03*
D19*
X138430000Y-33020000D03*
D17*
X143510000Y-55880000D03*
D19*
X133350000Y-55880000D03*
D17*
X129540000Y-45720000D03*
D19*
X129540000Y-55880000D03*
D17*
X143510000Y-78740000D03*
D19*
X133350000Y-78740000D03*
D17*
X149860000Y-80010000D03*
D19*
X149860000Y-69850000D03*
D17*
X149860000Y-67310000D03*
D19*
X149860000Y-57150000D03*
D17*
X133350000Y-52070000D03*
D19*
X143510000Y-52070000D03*
D17*
X143510000Y-48260000D03*
D19*
X133350000Y-48260000D03*
D26*
X124460000Y-53340000D03*
X124460000Y-50800000D03*
D27*
X124460000Y-48260000D03*
D19*
X127040000Y-74930000D03*
D18*
X129540000Y-74930000D03*
D26*
X93980000Y-53340000D03*
X93980000Y-50800000D03*
D27*
X93980000Y-48260000D03*
D13*
X111760000Y-59690000D03*
X104140000Y-74930000D03*
X111760000Y-62230000D03*
X104140000Y-72390000D03*
X111760000Y-64770000D03*
X104140000Y-69850000D03*
X111760000Y-67310000D03*
X104140000Y-67310000D03*
X111760000Y-69850000D03*
X104140000Y-64770000D03*
X111760000Y-72390000D03*
X104140000Y-62230000D03*
X111760000Y-74930000D03*
D14*
X104140000Y-59690000D03*
D17*
X118110000Y-33020000D03*
D19*
X107950000Y-33020000D03*
D17*
X113030000Y-55880000D03*
D19*
X102870000Y-55880000D03*
D17*
X99060000Y-45720000D03*
D19*
X99060000Y-55880000D03*
D17*
X113030000Y-78740000D03*
D19*
X102870000Y-78740000D03*
D17*
X119380000Y-80010000D03*
D19*
X119380000Y-69850000D03*
D17*
X119380000Y-67310000D03*
D19*
X119380000Y-57150000D03*
D17*
X102870000Y-52070000D03*
D19*
X113030000Y-52070000D03*
D17*
X113030000Y-48260000D03*
D19*
X102870000Y-48260000D03*
X96560000Y-74930000D03*
D18*
X99060000Y-74930000D03*
D13*
X81280000Y-59690000D03*
X73660000Y-74930000D03*
X81280000Y-62230000D03*
X73660000Y-72390000D03*
X81280000Y-64770000D03*
X73660000Y-69850000D03*
X81280000Y-67310000D03*
X73660000Y-67310000D03*
X81280000Y-69850000D03*
X73660000Y-64770000D03*
X81280000Y-72390000D03*
X73660000Y-62230000D03*
X81280000Y-74930000D03*
D14*
X73660000Y-59690000D03*
D17*
X87630000Y-33020000D03*
D19*
X77470000Y-33020000D03*
D17*
X82550000Y-55880000D03*
D19*
X72390000Y-55880000D03*
D17*
X68580000Y-45720000D03*
D19*
X68580000Y-55880000D03*
D17*
X82550000Y-78740000D03*
D19*
X72390000Y-78740000D03*
D17*
X88900000Y-80010000D03*
D19*
X88900000Y-69850000D03*
D17*
X88900000Y-67310000D03*
D19*
X88900000Y-57150000D03*
D17*
X72390000Y-52070000D03*
D19*
X82550000Y-52070000D03*
D17*
X82550000Y-48260000D03*
D19*
X72390000Y-48260000D03*
D26*
X63500000Y-53340000D03*
X63500000Y-50800000D03*
D27*
X63500000Y-48260000D03*
D19*
X66080000Y-74930000D03*
D18*
X68580000Y-74930000D03*
M02*
