%FSLAX45Y45*%
G04 Gerber Fmt 4.5, Leading zero omitted, Abs format (unit mm)*
G04 Created by KiCad (PCBNEW 5.1.10) date 2021-06-16 12:34:30*
%MOMM*%
%LPD*%
G01*
G04 APERTURE LIST*
%TA.AperFunction,Profile*%
%ADD10C,0.050000*%
%TD*%
%ADD11C,0.200000*%
%ADD12C,0.300000*%
G04 APERTURE END LIST*
D10*
X21590000Y-1397000D02*
X5080000Y-1397000D01*
X21590000Y-16256000D02*
X21590000Y-1397000D01*
X5080000Y-16256000D02*
X21590000Y-16256000D01*
X5080000Y-1397000D02*
X5080000Y-16256000D01*
D11*
X5314000Y-5695000D02*
X5354000Y-5735000D01*
X5354000Y-5695000D02*
X5314000Y-5735000D01*
X5314000Y-14331000D02*
X5354000Y-14371000D01*
X5354000Y-14331000D02*
X5314000Y-14371000D01*
X5568000Y-3155000D02*
X5608000Y-3195000D01*
X5608000Y-3155000D02*
X5568000Y-3195000D01*
X5822000Y-5060000D02*
X5862000Y-5100000D01*
X5862000Y-5060000D02*
X5822000Y-5100000D01*
X6330000Y-8743000D02*
X6370000Y-8783000D01*
X6370000Y-8743000D02*
X6330000Y-8783000D01*
X6838000Y-9124000D02*
X6878000Y-9164000D01*
X6878000Y-9124000D02*
X6838000Y-9164000D01*
X6838000Y-11156000D02*
X6878000Y-11196000D01*
X6878000Y-11156000D02*
X6838000Y-11196000D01*
X7346000Y-15093000D02*
X7386000Y-15133000D01*
X7386000Y-15093000D02*
X7346000Y-15133000D01*
X8489000Y-6711000D02*
X8529000Y-6751000D01*
X8529000Y-6711000D02*
X8489000Y-6751000D01*
X8489000Y-9090000D02*
X8529000Y-9130000D01*
X8529000Y-9090000D02*
X8489000Y-9130000D01*
X8870000Y-5060000D02*
X8910000Y-5100000D01*
X8910000Y-5060000D02*
X8870000Y-5100000D01*
X9251000Y-8743000D02*
X9291000Y-8783000D01*
X9291000Y-8743000D02*
X9251000Y-8783000D01*
X9505000Y-8743000D02*
X9545000Y-8783000D01*
X9545000Y-8743000D02*
X9505000Y-8783000D01*
X9505000Y-12807000D02*
X9545000Y-12847000D01*
X9545000Y-12807000D02*
X9505000Y-12847000D01*
X9886000Y-9124000D02*
X9926000Y-9164000D01*
X9926000Y-9124000D02*
X9886000Y-9164000D01*
X9886000Y-11156000D02*
X9926000Y-11196000D01*
X9926000Y-11156000D02*
X9886000Y-11196000D01*
X11537000Y-6711000D02*
X11577000Y-6751000D01*
X11577000Y-6711000D02*
X11537000Y-6751000D01*
X11537000Y-9090000D02*
X11577000Y-9130000D01*
X11577000Y-9090000D02*
X11537000Y-9130000D01*
X11918000Y-5060000D02*
X11958000Y-5100000D01*
X11958000Y-5060000D02*
X11918000Y-5100000D01*
X12299000Y-8743000D02*
X12339000Y-8783000D01*
X12339000Y-8743000D02*
X12299000Y-8783000D01*
X12553000Y-8743000D02*
X12593000Y-8783000D01*
X12593000Y-8743000D02*
X12553000Y-8783000D01*
X12553000Y-12807000D02*
X12593000Y-12847000D01*
X12593000Y-12807000D02*
X12553000Y-12847000D01*
X12934000Y-9124000D02*
X12974000Y-9164000D01*
X12974000Y-9124000D02*
X12934000Y-9164000D01*
X12934000Y-11156000D02*
X12974000Y-11196000D01*
X12974000Y-11156000D02*
X12934000Y-11196000D01*
X14585000Y-6711000D02*
X14625000Y-6751000D01*
X14625000Y-6711000D02*
X14585000Y-6751000D01*
X14585000Y-9090000D02*
X14625000Y-9130000D01*
X14625000Y-9090000D02*
X14585000Y-9130000D01*
X14966000Y-5060000D02*
X15006000Y-5100000D01*
X15006000Y-5060000D02*
X14966000Y-5100000D01*
X15347000Y-8743000D02*
X15387000Y-8783000D01*
X15387000Y-8743000D02*
X15347000Y-8783000D01*
X15601000Y-8743000D02*
X15641000Y-8783000D01*
X15641000Y-8743000D02*
X15601000Y-8783000D01*
X15601000Y-12807000D02*
X15641000Y-12847000D01*
X15641000Y-12807000D02*
X15601000Y-12847000D01*
X15982000Y-9124000D02*
X16022000Y-9164000D01*
X16022000Y-9124000D02*
X15982000Y-9164000D01*
X15982000Y-11156000D02*
X16022000Y-11196000D01*
X16022000Y-11156000D02*
X15982000Y-11196000D01*
X17633000Y-6711000D02*
X17673000Y-6751000D01*
X17673000Y-6711000D02*
X17633000Y-6751000D01*
X17633000Y-9090000D02*
X17673000Y-9130000D01*
X17673000Y-9090000D02*
X17633000Y-9130000D01*
X17760000Y-15093000D02*
X17800000Y-15133000D01*
X17800000Y-15093000D02*
X17760000Y-15133000D01*
X18141000Y-3409000D02*
X18181000Y-3449000D01*
X18181000Y-3409000D02*
X18141000Y-3449000D01*
X18395000Y-8743000D02*
X18435000Y-8783000D01*
X18435000Y-8743000D02*
X18395000Y-8783000D01*
X18649000Y-12807000D02*
X18689000Y-12847000D01*
X18689000Y-12807000D02*
X18649000Y-12847000D01*
X20681000Y-11410000D02*
X20721000Y-11450000D01*
X20721000Y-11410000D02*
X20681000Y-11450000D01*
X6517000Y-2540000D02*
G75*
G03*
X6517000Y-2540000I-40000J0D01*
G01*
X6517000Y-3302000D02*
G75*
G03*
X6517000Y-3302000I-40000J0D01*
G01*
X6517000Y-10033000D02*
G75*
G03*
X6517000Y-10033000I-40000J0D01*
G01*
X6517000Y-11049000D02*
G75*
G03*
X6517000Y-11049000I-40000J0D01*
G01*
X6517000Y-11303000D02*
G75*
G03*
X6517000Y-11303000I-40000J0D01*
G01*
X6517000Y-12319000D02*
G75*
G03*
X6517000Y-12319000I-40000J0D01*
G01*
X6644000Y-14605000D02*
G75*
G03*
X6644000Y-14605000I-40000J0D01*
G01*
X6648000Y-6985000D02*
G75*
G03*
X6648000Y-6985000I-40000J0D01*
G01*
X6648000Y-7493000D02*
G75*
G03*
X6648000Y-7493000I-40000J0D01*
G01*
X6898000Y-4572000D02*
G75*
G03*
X6898000Y-4572000I-40000J0D01*
G01*
X6898000Y-5588000D02*
G75*
G03*
X6898000Y-5588000I-40000J0D01*
G01*
X6898000Y-6096000D02*
G75*
G03*
X6898000Y-6096000I-40000J0D01*
G01*
X6898000Y-6596000D02*
G75*
G03*
X6898000Y-6596000I-40000J0D01*
G01*
X6898000Y-6985000D02*
G75*
G03*
X6898000Y-6985000I-40000J0D01*
G01*
X6898000Y-7493000D02*
G75*
G03*
X6898000Y-7493000I-40000J0D01*
G01*
X6898000Y-11557000D02*
G75*
G03*
X6898000Y-11557000I-40000J0D01*
G01*
X6898000Y-11807000D02*
G75*
G03*
X6898000Y-11807000I-40000J0D01*
G01*
X7152000Y-10033000D02*
G75*
G03*
X7152000Y-10033000I-40000J0D01*
G01*
X7152000Y-12319000D02*
G75*
G03*
X7152000Y-12319000I-40000J0D01*
G01*
X7152000Y-12700000D02*
G75*
G03*
X7152000Y-12700000I-40000J0D01*
G01*
X7152000Y-13081000D02*
G75*
G03*
X7152000Y-13081000I-40000J0D01*
G01*
X7279000Y-4826000D02*
G75*
G03*
X7279000Y-4826000I-40000J0D01*
G01*
X7279000Y-5207000D02*
G75*
G03*
X7279000Y-5207000I-40000J0D01*
G01*
X7279000Y-5588000D02*
G75*
G03*
X7279000Y-5588000I-40000J0D01*
G01*
X7279000Y-7874000D02*
G75*
G03*
X7279000Y-7874000I-40000J0D01*
G01*
X7279000Y-10414000D02*
G75*
G03*
X7279000Y-10414000I-40000J0D01*
G01*
X7279000Y-10668000D02*
G75*
G03*
X7279000Y-10668000I-40000J0D01*
G01*
X7279000Y-10922000D02*
G75*
G03*
X7279000Y-10922000I-40000J0D01*
G01*
X7279000Y-11176000D02*
G75*
G03*
X7279000Y-11176000I-40000J0D01*
G01*
X7279000Y-11430000D02*
G75*
G03*
X7279000Y-11430000I-40000J0D01*
G01*
X7279000Y-11684000D02*
G75*
G03*
X7279000Y-11684000I-40000J0D01*
G01*
X7279000Y-11938000D02*
G75*
G03*
X7279000Y-11938000I-40000J0D01*
G01*
X7406000Y-5969000D02*
G75*
G03*
X7406000Y-5969000I-40000J0D01*
G01*
X7406000Y-6223000D02*
G75*
G03*
X7406000Y-6223000I-40000J0D01*
G01*
X7406000Y-6477000D02*
G75*
G03*
X7406000Y-6477000I-40000J0D01*
G01*
X7406000Y-6731000D02*
G75*
G03*
X7406000Y-6731000I-40000J0D01*
G01*
X7406000Y-6985000D02*
G75*
G03*
X7406000Y-6985000I-40000J0D01*
G01*
X7406000Y-7239000D02*
G75*
G03*
X7406000Y-7239000I-40000J0D01*
G01*
X7406000Y-7493000D02*
G75*
G03*
X7406000Y-7493000I-40000J0D01*
G01*
X7660000Y-14605000D02*
G75*
G03*
X7660000Y-14605000I-40000J0D01*
G01*
X7787000Y-3302000D02*
G75*
G03*
X7787000Y-3302000I-40000J0D01*
G01*
X8041000Y-10414000D02*
G75*
G03*
X8041000Y-10414000I-40000J0D01*
G01*
X8041000Y-10668000D02*
G75*
G03*
X8041000Y-10668000I-40000J0D01*
G01*
X8041000Y-10922000D02*
G75*
G03*
X8041000Y-10922000I-40000J0D01*
G01*
X8041000Y-11176000D02*
G75*
G03*
X8041000Y-11176000I-40000J0D01*
G01*
X8041000Y-11430000D02*
G75*
G03*
X8041000Y-11430000I-40000J0D01*
G01*
X8041000Y-11684000D02*
G75*
G03*
X8041000Y-11684000I-40000J0D01*
G01*
X8041000Y-11938000D02*
G75*
G03*
X8041000Y-11938000I-40000J0D01*
G01*
X8168000Y-5969000D02*
G75*
G03*
X8168000Y-5969000I-40000J0D01*
G01*
X8168000Y-6223000D02*
G75*
G03*
X8168000Y-6223000I-40000J0D01*
G01*
X8168000Y-6477000D02*
G75*
G03*
X8168000Y-6477000I-40000J0D01*
G01*
X8168000Y-6731000D02*
G75*
G03*
X8168000Y-6731000I-40000J0D01*
G01*
X8168000Y-6985000D02*
G75*
G03*
X8168000Y-6985000I-40000J0D01*
G01*
X8168000Y-7239000D02*
G75*
G03*
X8168000Y-7239000I-40000J0D01*
G01*
X8168000Y-7493000D02*
G75*
G03*
X8168000Y-7493000I-40000J0D01*
G01*
X8168000Y-10033000D02*
G75*
G03*
X8168000Y-10033000I-40000J0D01*
G01*
X8168000Y-12319000D02*
G75*
G03*
X8168000Y-12319000I-40000J0D01*
G01*
X8168000Y-12700000D02*
G75*
G03*
X8168000Y-12700000I-40000J0D01*
G01*
X8168000Y-13081000D02*
G75*
G03*
X8168000Y-13081000I-40000J0D01*
G01*
X8295000Y-4826000D02*
G75*
G03*
X8295000Y-4826000I-40000J0D01*
G01*
X8295000Y-5207000D02*
G75*
G03*
X8295000Y-5207000I-40000J0D01*
G01*
X8295000Y-5588000D02*
G75*
G03*
X8295000Y-5588000I-40000J0D01*
G01*
X8295000Y-7874000D02*
G75*
G03*
X8295000Y-7874000I-40000J0D01*
G01*
X8549000Y-6100000D02*
G75*
G03*
X8549000Y-6100000I-40000J0D01*
G01*
X8549000Y-6350000D02*
G75*
G03*
X8549000Y-6350000I-40000J0D01*
G01*
X8549000Y-10414000D02*
G75*
G03*
X8549000Y-10414000I-40000J0D01*
G01*
X8549000Y-10922000D02*
G75*
G03*
X8549000Y-10922000I-40000J0D01*
G01*
X8549000Y-11311000D02*
G75*
G03*
X8549000Y-11311000I-40000J0D01*
G01*
X8549000Y-11811000D02*
G75*
G03*
X8549000Y-11811000I-40000J0D01*
G01*
X8549000Y-12319000D02*
G75*
G03*
X8549000Y-12319000I-40000J0D01*
G01*
X8549000Y-13335000D02*
G75*
G03*
X8549000Y-13335000I-40000J0D01*
G01*
X8799000Y-10414000D02*
G75*
G03*
X8799000Y-10414000I-40000J0D01*
G01*
X8799000Y-10922000D02*
G75*
G03*
X8799000Y-10922000I-40000J0D01*
G01*
X8803000Y-3302000D02*
G75*
G03*
X8803000Y-3302000I-40000J0D01*
G01*
X8930000Y-5715000D02*
G75*
G03*
X8930000Y-5715000I-40000J0D01*
G01*
X8930000Y-6731000D02*
G75*
G03*
X8930000Y-6731000I-40000J0D01*
G01*
X8930000Y-6985000D02*
G75*
G03*
X8930000Y-6985000I-40000J0D01*
G01*
X8930000Y-8001000D02*
G75*
G03*
X8930000Y-8001000I-40000J0D01*
G01*
X8930000Y-14605000D02*
G75*
G03*
X8930000Y-14605000I-40000J0D01*
G01*
X8930000Y-15367000D02*
G75*
G03*
X8930000Y-15367000I-40000J0D01*
G01*
X9438000Y-2540000D02*
G75*
G03*
X9438000Y-2540000I-40000J0D01*
G01*
X9438000Y-3302000D02*
G75*
G03*
X9438000Y-3302000I-40000J0D01*
G01*
X9565000Y-9906000D02*
G75*
G03*
X9565000Y-9906000I-40000J0D01*
G01*
X9565000Y-10922000D02*
G75*
G03*
X9565000Y-10922000I-40000J0D01*
G01*
X9565000Y-11176000D02*
G75*
G03*
X9565000Y-11176000I-40000J0D01*
G01*
X9565000Y-12192000D02*
G75*
G03*
X9565000Y-12192000I-40000J0D01*
G01*
X9692000Y-14605000D02*
G75*
G03*
X9692000Y-14605000I-40000J0D01*
G01*
X9696000Y-6985000D02*
G75*
G03*
X9696000Y-6985000I-40000J0D01*
G01*
X9696000Y-7493000D02*
G75*
G03*
X9696000Y-7493000I-40000J0D01*
G01*
X9946000Y-4572000D02*
G75*
G03*
X9946000Y-4572000I-40000J0D01*
G01*
X9946000Y-5588000D02*
G75*
G03*
X9946000Y-5588000I-40000J0D01*
G01*
X9946000Y-6096000D02*
G75*
G03*
X9946000Y-6096000I-40000J0D01*
G01*
X9946000Y-6596000D02*
G75*
G03*
X9946000Y-6596000I-40000J0D01*
G01*
X9946000Y-6985000D02*
G75*
G03*
X9946000Y-6985000I-40000J0D01*
G01*
X9946000Y-7493000D02*
G75*
G03*
X9946000Y-7493000I-40000J0D01*
G01*
X9946000Y-11557000D02*
G75*
G03*
X9946000Y-11557000I-40000J0D01*
G01*
X9946000Y-11807000D02*
G75*
G03*
X9946000Y-11807000I-40000J0D01*
G01*
X10200000Y-10033000D02*
G75*
G03*
X10200000Y-10033000I-40000J0D01*
G01*
X10200000Y-12319000D02*
G75*
G03*
X10200000Y-12319000I-40000J0D01*
G01*
X10200000Y-12700000D02*
G75*
G03*
X10200000Y-12700000I-40000J0D01*
G01*
X10200000Y-13081000D02*
G75*
G03*
X10200000Y-13081000I-40000J0D01*
G01*
X10327000Y-4826000D02*
G75*
G03*
X10327000Y-4826000I-40000J0D01*
G01*
X10327000Y-5207000D02*
G75*
G03*
X10327000Y-5207000I-40000J0D01*
G01*
X10327000Y-5588000D02*
G75*
G03*
X10327000Y-5588000I-40000J0D01*
G01*
X10327000Y-7874000D02*
G75*
G03*
X10327000Y-7874000I-40000J0D01*
G01*
X10327000Y-10414000D02*
G75*
G03*
X10327000Y-10414000I-40000J0D01*
G01*
X10327000Y-10668000D02*
G75*
G03*
X10327000Y-10668000I-40000J0D01*
G01*
X10327000Y-10922000D02*
G75*
G03*
X10327000Y-10922000I-40000J0D01*
G01*
X10327000Y-11176000D02*
G75*
G03*
X10327000Y-11176000I-40000J0D01*
G01*
X10327000Y-11430000D02*
G75*
G03*
X10327000Y-11430000I-40000J0D01*
G01*
X10327000Y-11684000D02*
G75*
G03*
X10327000Y-11684000I-40000J0D01*
G01*
X10327000Y-11938000D02*
G75*
G03*
X10327000Y-11938000I-40000J0D01*
G01*
X10454000Y-5969000D02*
G75*
G03*
X10454000Y-5969000I-40000J0D01*
G01*
X10454000Y-6223000D02*
G75*
G03*
X10454000Y-6223000I-40000J0D01*
G01*
X10454000Y-6477000D02*
G75*
G03*
X10454000Y-6477000I-40000J0D01*
G01*
X10454000Y-6731000D02*
G75*
G03*
X10454000Y-6731000I-40000J0D01*
G01*
X10454000Y-6985000D02*
G75*
G03*
X10454000Y-6985000I-40000J0D01*
G01*
X10454000Y-7239000D02*
G75*
G03*
X10454000Y-7239000I-40000J0D01*
G01*
X10454000Y-7493000D02*
G75*
G03*
X10454000Y-7493000I-40000J0D01*
G01*
X10708000Y-14605000D02*
G75*
G03*
X10708000Y-14605000I-40000J0D01*
G01*
X10835000Y-3302000D02*
G75*
G03*
X10835000Y-3302000I-40000J0D01*
G01*
X11089000Y-10414000D02*
G75*
G03*
X11089000Y-10414000I-40000J0D01*
G01*
X11089000Y-10668000D02*
G75*
G03*
X11089000Y-10668000I-40000J0D01*
G01*
X11089000Y-10922000D02*
G75*
G03*
X11089000Y-10922000I-40000J0D01*
G01*
X11089000Y-11176000D02*
G75*
G03*
X11089000Y-11176000I-40000J0D01*
G01*
X11089000Y-11430000D02*
G75*
G03*
X11089000Y-11430000I-40000J0D01*
G01*
X11089000Y-11684000D02*
G75*
G03*
X11089000Y-11684000I-40000J0D01*
G01*
X11089000Y-11938000D02*
G75*
G03*
X11089000Y-11938000I-40000J0D01*
G01*
X11216000Y-5969000D02*
G75*
G03*
X11216000Y-5969000I-40000J0D01*
G01*
X11216000Y-6223000D02*
G75*
G03*
X11216000Y-6223000I-40000J0D01*
G01*
X11216000Y-6477000D02*
G75*
G03*
X11216000Y-6477000I-40000J0D01*
G01*
X11216000Y-6731000D02*
G75*
G03*
X11216000Y-6731000I-40000J0D01*
G01*
X11216000Y-6985000D02*
G75*
G03*
X11216000Y-6985000I-40000J0D01*
G01*
X11216000Y-7239000D02*
G75*
G03*
X11216000Y-7239000I-40000J0D01*
G01*
X11216000Y-7493000D02*
G75*
G03*
X11216000Y-7493000I-40000J0D01*
G01*
X11216000Y-10033000D02*
G75*
G03*
X11216000Y-10033000I-40000J0D01*
G01*
X11216000Y-12319000D02*
G75*
G03*
X11216000Y-12319000I-40000J0D01*
G01*
X11216000Y-12700000D02*
G75*
G03*
X11216000Y-12700000I-40000J0D01*
G01*
X11216000Y-13081000D02*
G75*
G03*
X11216000Y-13081000I-40000J0D01*
G01*
X11343000Y-4826000D02*
G75*
G03*
X11343000Y-4826000I-40000J0D01*
G01*
X11343000Y-5207000D02*
G75*
G03*
X11343000Y-5207000I-40000J0D01*
G01*
X11343000Y-5588000D02*
G75*
G03*
X11343000Y-5588000I-40000J0D01*
G01*
X11343000Y-7874000D02*
G75*
G03*
X11343000Y-7874000I-40000J0D01*
G01*
X11597000Y-6100000D02*
G75*
G03*
X11597000Y-6100000I-40000J0D01*
G01*
X11597000Y-6350000D02*
G75*
G03*
X11597000Y-6350000I-40000J0D01*
G01*
X11597000Y-10414000D02*
G75*
G03*
X11597000Y-10414000I-40000J0D01*
G01*
X11597000Y-10922000D02*
G75*
G03*
X11597000Y-10922000I-40000J0D01*
G01*
X11597000Y-11311000D02*
G75*
G03*
X11597000Y-11311000I-40000J0D01*
G01*
X11597000Y-11811000D02*
G75*
G03*
X11597000Y-11811000I-40000J0D01*
G01*
X11597000Y-12319000D02*
G75*
G03*
X11597000Y-12319000I-40000J0D01*
G01*
X11597000Y-13335000D02*
G75*
G03*
X11597000Y-13335000I-40000J0D01*
G01*
X11847000Y-10414000D02*
G75*
G03*
X11847000Y-10414000I-40000J0D01*
G01*
X11847000Y-10922000D02*
G75*
G03*
X11847000Y-10922000I-40000J0D01*
G01*
X11851000Y-3302000D02*
G75*
G03*
X11851000Y-3302000I-40000J0D01*
G01*
X11978000Y-5715000D02*
G75*
G03*
X11978000Y-5715000I-40000J0D01*
G01*
X11978000Y-6731000D02*
G75*
G03*
X11978000Y-6731000I-40000J0D01*
G01*
X11978000Y-6985000D02*
G75*
G03*
X11978000Y-6985000I-40000J0D01*
G01*
X11978000Y-8001000D02*
G75*
G03*
X11978000Y-8001000I-40000J0D01*
G01*
X11978000Y-14605000D02*
G75*
G03*
X11978000Y-14605000I-40000J0D01*
G01*
X11978000Y-15367000D02*
G75*
G03*
X11978000Y-15367000I-40000J0D01*
G01*
X12486000Y-2540000D02*
G75*
G03*
X12486000Y-2540000I-40000J0D01*
G01*
X12486000Y-3302000D02*
G75*
G03*
X12486000Y-3302000I-40000J0D01*
G01*
X12613000Y-9906000D02*
G75*
G03*
X12613000Y-9906000I-40000J0D01*
G01*
X12613000Y-10922000D02*
G75*
G03*
X12613000Y-10922000I-40000J0D01*
G01*
X12613000Y-11176000D02*
G75*
G03*
X12613000Y-11176000I-40000J0D01*
G01*
X12613000Y-12192000D02*
G75*
G03*
X12613000Y-12192000I-40000J0D01*
G01*
X12740000Y-14605000D02*
G75*
G03*
X12740000Y-14605000I-40000J0D01*
G01*
X12744000Y-6985000D02*
G75*
G03*
X12744000Y-6985000I-40000J0D01*
G01*
X12744000Y-7493000D02*
G75*
G03*
X12744000Y-7493000I-40000J0D01*
G01*
X12994000Y-4572000D02*
G75*
G03*
X12994000Y-4572000I-40000J0D01*
G01*
X12994000Y-5588000D02*
G75*
G03*
X12994000Y-5588000I-40000J0D01*
G01*
X12994000Y-6104000D02*
G75*
G03*
X12994000Y-6104000I-40000J0D01*
G01*
X12994000Y-6604000D02*
G75*
G03*
X12994000Y-6604000I-40000J0D01*
G01*
X12994000Y-6985000D02*
G75*
G03*
X12994000Y-6985000I-40000J0D01*
G01*
X12994000Y-7493000D02*
G75*
G03*
X12994000Y-7493000I-40000J0D01*
G01*
X12994000Y-11557000D02*
G75*
G03*
X12994000Y-11557000I-40000J0D01*
G01*
X12994000Y-11807000D02*
G75*
G03*
X12994000Y-11807000I-40000J0D01*
G01*
X13248000Y-10033000D02*
G75*
G03*
X13248000Y-10033000I-40000J0D01*
G01*
X13248000Y-12319000D02*
G75*
G03*
X13248000Y-12319000I-40000J0D01*
G01*
X13248000Y-12700000D02*
G75*
G03*
X13248000Y-12700000I-40000J0D01*
G01*
X13248000Y-13081000D02*
G75*
G03*
X13248000Y-13081000I-40000J0D01*
G01*
X13375000Y-4826000D02*
G75*
G03*
X13375000Y-4826000I-40000J0D01*
G01*
X13375000Y-5207000D02*
G75*
G03*
X13375000Y-5207000I-40000J0D01*
G01*
X13375000Y-5588000D02*
G75*
G03*
X13375000Y-5588000I-40000J0D01*
G01*
X13375000Y-7874000D02*
G75*
G03*
X13375000Y-7874000I-40000J0D01*
G01*
X13375000Y-10414000D02*
G75*
G03*
X13375000Y-10414000I-40000J0D01*
G01*
X13375000Y-10668000D02*
G75*
G03*
X13375000Y-10668000I-40000J0D01*
G01*
X13375000Y-10922000D02*
G75*
G03*
X13375000Y-10922000I-40000J0D01*
G01*
X13375000Y-11176000D02*
G75*
G03*
X13375000Y-11176000I-40000J0D01*
G01*
X13375000Y-11430000D02*
G75*
G03*
X13375000Y-11430000I-40000J0D01*
G01*
X13375000Y-11684000D02*
G75*
G03*
X13375000Y-11684000I-40000J0D01*
G01*
X13375000Y-11938000D02*
G75*
G03*
X13375000Y-11938000I-40000J0D01*
G01*
X13502000Y-5969000D02*
G75*
G03*
X13502000Y-5969000I-40000J0D01*
G01*
X13502000Y-6223000D02*
G75*
G03*
X13502000Y-6223000I-40000J0D01*
G01*
X13502000Y-6477000D02*
G75*
G03*
X13502000Y-6477000I-40000J0D01*
G01*
X13502000Y-6731000D02*
G75*
G03*
X13502000Y-6731000I-40000J0D01*
G01*
X13502000Y-6985000D02*
G75*
G03*
X13502000Y-6985000I-40000J0D01*
G01*
X13502000Y-7239000D02*
G75*
G03*
X13502000Y-7239000I-40000J0D01*
G01*
X13502000Y-7493000D02*
G75*
G03*
X13502000Y-7493000I-40000J0D01*
G01*
X13756000Y-14605000D02*
G75*
G03*
X13756000Y-14605000I-40000J0D01*
G01*
X13883000Y-3302000D02*
G75*
G03*
X13883000Y-3302000I-40000J0D01*
G01*
X14137000Y-10414000D02*
G75*
G03*
X14137000Y-10414000I-40000J0D01*
G01*
X14137000Y-10668000D02*
G75*
G03*
X14137000Y-10668000I-40000J0D01*
G01*
X14137000Y-10922000D02*
G75*
G03*
X14137000Y-10922000I-40000J0D01*
G01*
X14137000Y-11176000D02*
G75*
G03*
X14137000Y-11176000I-40000J0D01*
G01*
X14137000Y-11430000D02*
G75*
G03*
X14137000Y-11430000I-40000J0D01*
G01*
X14137000Y-11684000D02*
G75*
G03*
X14137000Y-11684000I-40000J0D01*
G01*
X14137000Y-11938000D02*
G75*
G03*
X14137000Y-11938000I-40000J0D01*
G01*
X14264000Y-5969000D02*
G75*
G03*
X14264000Y-5969000I-40000J0D01*
G01*
X14264000Y-6223000D02*
G75*
G03*
X14264000Y-6223000I-40000J0D01*
G01*
X14264000Y-6477000D02*
G75*
G03*
X14264000Y-6477000I-40000J0D01*
G01*
X14264000Y-6731000D02*
G75*
G03*
X14264000Y-6731000I-40000J0D01*
G01*
X14264000Y-6985000D02*
G75*
G03*
X14264000Y-6985000I-40000J0D01*
G01*
X14264000Y-7239000D02*
G75*
G03*
X14264000Y-7239000I-40000J0D01*
G01*
X14264000Y-7493000D02*
G75*
G03*
X14264000Y-7493000I-40000J0D01*
G01*
X14264000Y-10033000D02*
G75*
G03*
X14264000Y-10033000I-40000J0D01*
G01*
X14264000Y-12319000D02*
G75*
G03*
X14264000Y-12319000I-40000J0D01*
G01*
X14264000Y-12700000D02*
G75*
G03*
X14264000Y-12700000I-40000J0D01*
G01*
X14264000Y-13081000D02*
G75*
G03*
X14264000Y-13081000I-40000J0D01*
G01*
X14391000Y-4826000D02*
G75*
G03*
X14391000Y-4826000I-40000J0D01*
G01*
X14391000Y-5207000D02*
G75*
G03*
X14391000Y-5207000I-40000J0D01*
G01*
X14391000Y-5588000D02*
G75*
G03*
X14391000Y-5588000I-40000J0D01*
G01*
X14391000Y-7874000D02*
G75*
G03*
X14391000Y-7874000I-40000J0D01*
G01*
X14645000Y-6100000D02*
G75*
G03*
X14645000Y-6100000I-40000J0D01*
G01*
X14645000Y-6350000D02*
G75*
G03*
X14645000Y-6350000I-40000J0D01*
G01*
X14645000Y-10414000D02*
G75*
G03*
X14645000Y-10414000I-40000J0D01*
G01*
X14645000Y-10922000D02*
G75*
G03*
X14645000Y-10922000I-40000J0D01*
G01*
X14645000Y-11311000D02*
G75*
G03*
X14645000Y-11311000I-40000J0D01*
G01*
X14645000Y-11811000D02*
G75*
G03*
X14645000Y-11811000I-40000J0D01*
G01*
X14645000Y-12319000D02*
G75*
G03*
X14645000Y-12319000I-40000J0D01*
G01*
X14645000Y-13335000D02*
G75*
G03*
X14645000Y-13335000I-40000J0D01*
G01*
X14895000Y-10414000D02*
G75*
G03*
X14895000Y-10414000I-40000J0D01*
G01*
X14895000Y-10922000D02*
G75*
G03*
X14895000Y-10922000I-40000J0D01*
G01*
X14899000Y-3302000D02*
G75*
G03*
X14899000Y-3302000I-40000J0D01*
G01*
X15026000Y-5715000D02*
G75*
G03*
X15026000Y-5715000I-40000J0D01*
G01*
X15026000Y-6731000D02*
G75*
G03*
X15026000Y-6731000I-40000J0D01*
G01*
X15026000Y-6985000D02*
G75*
G03*
X15026000Y-6985000I-40000J0D01*
G01*
X15026000Y-8001000D02*
G75*
G03*
X15026000Y-8001000I-40000J0D01*
G01*
X15026000Y-14605000D02*
G75*
G03*
X15026000Y-14605000I-40000J0D01*
G01*
X15026000Y-15367000D02*
G75*
G03*
X15026000Y-15367000I-40000J0D01*
G01*
X15407000Y-2540000D02*
G75*
G03*
X15407000Y-2540000I-40000J0D01*
G01*
X15407000Y-3302000D02*
G75*
G03*
X15407000Y-3302000I-40000J0D01*
G01*
X15661000Y-9906000D02*
G75*
G03*
X15661000Y-9906000I-40000J0D01*
G01*
X15661000Y-10922000D02*
G75*
G03*
X15661000Y-10922000I-40000J0D01*
G01*
X15661000Y-11176000D02*
G75*
G03*
X15661000Y-11176000I-40000J0D01*
G01*
X15661000Y-12192000D02*
G75*
G03*
X15661000Y-12192000I-40000J0D01*
G01*
X15788000Y-14605000D02*
G75*
G03*
X15788000Y-14605000I-40000J0D01*
G01*
X15792000Y-6985000D02*
G75*
G03*
X15792000Y-6985000I-40000J0D01*
G01*
X15792000Y-7493000D02*
G75*
G03*
X15792000Y-7493000I-40000J0D01*
G01*
X16042000Y-4572000D02*
G75*
G03*
X16042000Y-4572000I-40000J0D01*
G01*
X16042000Y-5588000D02*
G75*
G03*
X16042000Y-5588000I-40000J0D01*
G01*
X16042000Y-6096000D02*
G75*
G03*
X16042000Y-6096000I-40000J0D01*
G01*
X16042000Y-6596000D02*
G75*
G03*
X16042000Y-6596000I-40000J0D01*
G01*
X16042000Y-6985000D02*
G75*
G03*
X16042000Y-6985000I-40000J0D01*
G01*
X16042000Y-7493000D02*
G75*
G03*
X16042000Y-7493000I-40000J0D01*
G01*
X16042000Y-11557000D02*
G75*
G03*
X16042000Y-11557000I-40000J0D01*
G01*
X16042000Y-11807000D02*
G75*
G03*
X16042000Y-11807000I-40000J0D01*
G01*
X16296000Y-10033000D02*
G75*
G03*
X16296000Y-10033000I-40000J0D01*
G01*
X16296000Y-12319000D02*
G75*
G03*
X16296000Y-12319000I-40000J0D01*
G01*
X16296000Y-12700000D02*
G75*
G03*
X16296000Y-12700000I-40000J0D01*
G01*
X16308022Y-13081000D02*
G75*
G03*
X16308022Y-13081000I-40000J0D01*
G01*
X16423000Y-4826000D02*
G75*
G03*
X16423000Y-4826000I-40000J0D01*
G01*
X16423000Y-5207000D02*
G75*
G03*
X16423000Y-5207000I-40000J0D01*
G01*
X16423000Y-5588000D02*
G75*
G03*
X16423000Y-5588000I-40000J0D01*
G01*
X16423000Y-7874000D02*
G75*
G03*
X16423000Y-7874000I-40000J0D01*
G01*
X16423000Y-10414000D02*
G75*
G03*
X16423000Y-10414000I-40000J0D01*
G01*
X16423000Y-10668000D02*
G75*
G03*
X16423000Y-10668000I-40000J0D01*
G01*
X16423000Y-10922000D02*
G75*
G03*
X16423000Y-10922000I-40000J0D01*
G01*
X16423000Y-11176000D02*
G75*
G03*
X16423000Y-11176000I-40000J0D01*
G01*
X16423000Y-11430000D02*
G75*
G03*
X16423000Y-11430000I-40000J0D01*
G01*
X16423000Y-11684000D02*
G75*
G03*
X16423000Y-11684000I-40000J0D01*
G01*
X16423000Y-11938000D02*
G75*
G03*
X16423000Y-11938000I-40000J0D01*
G01*
X16550000Y-5969000D02*
G75*
G03*
X16550000Y-5969000I-40000J0D01*
G01*
X16550000Y-6223000D02*
G75*
G03*
X16550000Y-6223000I-40000J0D01*
G01*
X16550000Y-6477000D02*
G75*
G03*
X16550000Y-6477000I-40000J0D01*
G01*
X16550000Y-6731000D02*
G75*
G03*
X16550000Y-6731000I-40000J0D01*
G01*
X16550000Y-6985000D02*
G75*
G03*
X16550000Y-6985000I-40000J0D01*
G01*
X16550000Y-7239000D02*
G75*
G03*
X16550000Y-7239000I-40000J0D01*
G01*
X16550000Y-7493000D02*
G75*
G03*
X16550000Y-7493000I-40000J0D01*
G01*
X16804000Y-14605000D02*
G75*
G03*
X16804000Y-14605000I-40000J0D01*
G01*
X16931000Y-3302000D02*
G75*
G03*
X16931000Y-3302000I-40000J0D01*
G01*
X17185000Y-10414000D02*
G75*
G03*
X17185000Y-10414000I-40000J0D01*
G01*
X17185000Y-10668000D02*
G75*
G03*
X17185000Y-10668000I-40000J0D01*
G01*
X17185000Y-10922000D02*
G75*
G03*
X17185000Y-10922000I-40000J0D01*
G01*
X17185000Y-11176000D02*
G75*
G03*
X17185000Y-11176000I-40000J0D01*
G01*
X17185000Y-11430000D02*
G75*
G03*
X17185000Y-11430000I-40000J0D01*
G01*
X17185000Y-11684000D02*
G75*
G03*
X17185000Y-11684000I-40000J0D01*
G01*
X17185000Y-11938000D02*
G75*
G03*
X17185000Y-11938000I-40000J0D01*
G01*
X17312000Y-5969000D02*
G75*
G03*
X17312000Y-5969000I-40000J0D01*
G01*
X17312000Y-6223000D02*
G75*
G03*
X17312000Y-6223000I-40000J0D01*
G01*
X17312000Y-6477000D02*
G75*
G03*
X17312000Y-6477000I-40000J0D01*
G01*
X17312000Y-6731000D02*
G75*
G03*
X17312000Y-6731000I-40000J0D01*
G01*
X17312000Y-6985000D02*
G75*
G03*
X17312000Y-6985000I-40000J0D01*
G01*
X17312000Y-7239000D02*
G75*
G03*
X17312000Y-7239000I-40000J0D01*
G01*
X17312000Y-7493000D02*
G75*
G03*
X17312000Y-7493000I-40000J0D01*
G01*
X17312000Y-10033000D02*
G75*
G03*
X17312000Y-10033000I-40000J0D01*
G01*
X17312000Y-12319000D02*
G75*
G03*
X17312000Y-12319000I-40000J0D01*
G01*
X17312000Y-12700000D02*
G75*
G03*
X17312000Y-12700000I-40000J0D01*
G01*
X17324023Y-13081000D02*
G75*
G03*
X17324023Y-13081000I-40000J0D01*
G01*
X17439000Y-4826000D02*
G75*
G03*
X17439000Y-4826000I-40000J0D01*
G01*
X17439000Y-5207000D02*
G75*
G03*
X17439000Y-5207000I-40000J0D01*
G01*
X17439000Y-5588000D02*
G75*
G03*
X17439000Y-5588000I-40000J0D01*
G01*
X17439000Y-7874000D02*
G75*
G03*
X17439000Y-7874000I-40000J0D01*
G01*
X17693000Y-6100000D02*
G75*
G03*
X17693000Y-6100000I-40000J0D01*
G01*
X17693000Y-6350000D02*
G75*
G03*
X17693000Y-6350000I-40000J0D01*
G01*
X17693000Y-10414000D02*
G75*
G03*
X17693000Y-10414000I-40000J0D01*
G01*
X17693000Y-10922000D02*
G75*
G03*
X17693000Y-10922000I-40000J0D01*
G01*
X17693000Y-11311000D02*
G75*
G03*
X17693000Y-11311000I-40000J0D01*
G01*
X17693000Y-11811000D02*
G75*
G03*
X17693000Y-11811000I-40000J0D01*
G01*
X17693000Y-12319000D02*
G75*
G03*
X17693000Y-12319000I-40000J0D01*
G01*
X17693000Y-13335000D02*
G75*
G03*
X17693000Y-13335000I-40000J0D01*
G01*
X17943000Y-10414000D02*
G75*
G03*
X17943000Y-10414000I-40000J0D01*
G01*
X17943000Y-10922000D02*
G75*
G03*
X17943000Y-10922000I-40000J0D01*
G01*
X17947000Y-3302000D02*
G75*
G03*
X17947000Y-3302000I-40000J0D01*
G01*
X18074000Y-5715000D02*
G75*
G03*
X18074000Y-5715000I-40000J0D01*
G01*
X18074000Y-6731000D02*
G75*
G03*
X18074000Y-6731000I-40000J0D01*
G01*
X18074000Y-6985000D02*
G75*
G03*
X18074000Y-6985000I-40000J0D01*
G01*
X18074000Y-8001000D02*
G75*
G03*
X18074000Y-8001000I-40000J0D01*
G01*
X18328000Y-14605000D02*
G75*
G03*
X18328000Y-14605000I-40000J0D01*
G01*
X18328000Y-15367000D02*
G75*
G03*
X18328000Y-15367000I-40000J0D01*
G01*
X18582000Y-6604000D02*
G75*
G03*
X18582000Y-6604000I-40000J0D01*
G01*
X18836000Y-6604000D02*
G75*
G03*
X18836000Y-6604000I-40000J0D01*
G01*
X19090000Y-6604000D02*
G75*
G03*
X19090000Y-6604000I-40000J0D01*
G01*
X19471000Y-5588000D02*
G75*
G03*
X19471000Y-5588000I-40000J0D01*
G01*
X19471000Y-6604000D02*
G75*
G03*
X19471000Y-6604000I-40000J0D01*
G01*
X19471000Y-7493000D02*
G75*
G03*
X19471000Y-7493000I-40000J0D01*
G01*
X19471000Y-8509000D02*
G75*
G03*
X19471000Y-8509000I-40000J0D01*
G01*
X19602000Y-7112000D02*
G75*
G03*
X19602000Y-7112000I-40000J0D01*
G01*
X19852000Y-7112000D02*
G75*
G03*
X19852000Y-7112000I-40000J0D01*
G01*
X19852000Y-7493000D02*
G75*
G03*
X19852000Y-7493000I-40000J0D01*
G01*
X19852000Y-8509000D02*
G75*
G03*
X19852000Y-8509000I-40000J0D01*
G01*
X5588000Y-7824000D02*
X5588000Y-7924000D01*
X5538000Y-7874000D02*
X5638000Y-7874000D01*
X5588000Y-8078000D02*
X5588000Y-8178000D01*
X5538000Y-8128000D02*
X5638000Y-8128000D01*
X5588000Y-8332000D02*
X5588000Y-8432000D01*
X5538000Y-8382000D02*
X5638000Y-8382000D01*
X5588000Y-8586000D02*
X5588000Y-8686000D01*
X5538000Y-8636000D02*
X5638000Y-8636000D01*
X5588000Y-8840000D02*
X5588000Y-8940000D01*
X5538000Y-8890000D02*
X5638000Y-8890000D01*
X5588000Y-9094000D02*
X5588000Y-9194000D01*
X5538000Y-9144000D02*
X5638000Y-9144000D01*
X5588000Y-9348000D02*
X5588000Y-9448000D01*
X5538000Y-9398000D02*
X5638000Y-9398000D01*
X5588000Y-9602000D02*
X5588000Y-9702000D01*
X5538000Y-9652000D02*
X5638000Y-9652000D01*
X5588000Y-9856000D02*
X5588000Y-9956000D01*
X5538000Y-9906000D02*
X5638000Y-9906000D01*
X7112000Y-3252000D02*
X7112000Y-3352000D01*
X7062000Y-3302000D02*
X7162000Y-3302000D01*
X7366000Y-3252000D02*
X7366000Y-3352000D01*
X7316000Y-3302000D02*
X7416000Y-3302000D01*
X8001000Y-14555000D02*
X8001000Y-14655000D01*
X7951000Y-14605000D02*
X8051000Y-14605000D01*
X8255000Y-14555000D02*
X8255000Y-14655000D01*
X8205000Y-14605000D02*
X8305000Y-14605000D01*
X10160000Y-3252000D02*
X10160000Y-3352000D01*
X10110000Y-3302000D02*
X10210000Y-3302000D01*
X10414000Y-3252000D02*
X10414000Y-3352000D01*
X10364000Y-3302000D02*
X10464000Y-3302000D01*
X11049000Y-14555000D02*
X11049000Y-14655000D01*
X10999000Y-14605000D02*
X11099000Y-14605000D01*
X11303000Y-14555000D02*
X11303000Y-14655000D01*
X11253000Y-14605000D02*
X11353000Y-14605000D01*
X13208000Y-3252000D02*
X13208000Y-3352000D01*
X13158000Y-3302000D02*
X13258000Y-3302000D01*
X13462000Y-3252000D02*
X13462000Y-3352000D01*
X13412000Y-3302000D02*
X13512000Y-3302000D01*
X14097000Y-14555000D02*
X14097000Y-14655000D01*
X14047000Y-14605000D02*
X14147000Y-14605000D01*
X14351000Y-14555000D02*
X14351000Y-14655000D01*
X14301000Y-14605000D02*
X14401000Y-14605000D01*
X16256000Y-3252000D02*
X16256000Y-3352000D01*
X16206000Y-3302000D02*
X16306000Y-3302000D01*
X16510000Y-3252000D02*
X16510000Y-3352000D01*
X16460000Y-3302000D02*
X16560000Y-3302000D01*
X17145000Y-14555000D02*
X17145000Y-14655000D01*
X17095000Y-14605000D02*
X17195000Y-14605000D01*
X17399000Y-14555000D02*
X17399000Y-14655000D01*
X17349000Y-14605000D02*
X17449000Y-14605000D01*
X6388891Y-4864891D02*
X6388891Y-4787109D01*
X6311109Y-4787109D01*
X6311109Y-4864891D01*
X6388891Y-4864891D01*
X6388891Y-5118891D02*
X6388891Y-5041109D01*
X6311109Y-5041109D01*
X6311109Y-5118891D01*
X6388891Y-5118891D01*
X6388891Y-5372891D02*
X6388891Y-5295109D01*
X6311109Y-5295109D01*
X6311109Y-5372891D01*
X6388891Y-5372891D01*
X9055891Y-12611891D02*
X9055891Y-12534109D01*
X8978109Y-12534109D01*
X8978109Y-12611891D01*
X9055891Y-12611891D01*
X9055891Y-12865891D02*
X9055891Y-12788109D01*
X8978109Y-12788109D01*
X8978109Y-12865891D01*
X9055891Y-12865891D01*
X9055891Y-13119891D02*
X9055891Y-13042109D01*
X8978109Y-13042109D01*
X8978109Y-13119891D01*
X9055891Y-13119891D01*
X9436891Y-4864891D02*
X9436891Y-4787109D01*
X9359109Y-4787109D01*
X9359109Y-4864891D01*
X9436891Y-4864891D01*
X9436891Y-5118891D02*
X9436891Y-5041109D01*
X9359109Y-5041109D01*
X9359109Y-5118891D01*
X9436891Y-5118891D01*
X9436891Y-5372891D02*
X9436891Y-5295109D01*
X9359109Y-5295109D01*
X9359109Y-5372891D01*
X9436891Y-5372891D01*
X12103891Y-12611891D02*
X12103891Y-12534109D01*
X12026109Y-12534109D01*
X12026109Y-12611891D01*
X12103891Y-12611891D01*
X12103891Y-12865891D02*
X12103891Y-12788109D01*
X12026109Y-12788109D01*
X12026109Y-12865891D01*
X12103891Y-12865891D01*
X12103891Y-13119891D02*
X12103891Y-13042109D01*
X12026109Y-13042109D01*
X12026109Y-13119891D01*
X12103891Y-13119891D01*
X12484891Y-4864891D02*
X12484891Y-4787109D01*
X12407109Y-4787109D01*
X12407109Y-4864891D01*
X12484891Y-4864891D01*
X12484891Y-5118891D02*
X12484891Y-5041109D01*
X12407109Y-5041109D01*
X12407109Y-5118891D01*
X12484891Y-5118891D01*
X12484891Y-5372891D02*
X12484891Y-5295109D01*
X12407109Y-5295109D01*
X12407109Y-5372891D01*
X12484891Y-5372891D01*
X15151891Y-12611891D02*
X15151891Y-12534109D01*
X15074109Y-12534109D01*
X15074109Y-12611891D01*
X15151891Y-12611891D01*
X15151891Y-12865891D02*
X15151891Y-12788109D01*
X15074109Y-12788109D01*
X15074109Y-12865891D01*
X15151891Y-12865891D01*
X15151891Y-13119891D02*
X15151891Y-13042109D01*
X15074109Y-13042109D01*
X15074109Y-13119891D01*
X15151891Y-13119891D01*
X15532891Y-4864891D02*
X15532891Y-4787109D01*
X15455109Y-4787109D01*
X15455109Y-4864891D01*
X15532891Y-4864891D01*
X15532891Y-5118891D02*
X15532891Y-5041109D01*
X15455109Y-5041109D01*
X15455109Y-5118891D01*
X15532891Y-5118891D01*
X15532891Y-5372891D02*
X15532891Y-5295109D01*
X15455109Y-5295109D01*
X15455109Y-5372891D01*
X15532891Y-5372891D01*
X18199891Y-12611891D02*
X18199891Y-12534109D01*
X18122109Y-12534109D01*
X18122109Y-12611891D01*
X18199891Y-12611891D01*
X18199891Y-12865891D02*
X18199891Y-12788109D01*
X18122109Y-12788109D01*
X18122109Y-12865891D01*
X18199891Y-12865891D01*
X18199891Y-13119891D02*
X18199891Y-13042109D01*
X18122109Y-13042109D01*
X18122109Y-13119891D01*
X18199891Y-13119891D01*
X18961891Y-7277891D02*
X18961891Y-7200109D01*
X18884109Y-7200109D01*
X18884109Y-7277891D01*
X18961891Y-7277891D01*
X18961891Y-8293891D02*
X18961891Y-8216109D01*
X18884109Y-8216109D01*
X18884109Y-8293891D01*
X18961891Y-8293891D01*
X6858000Y-4124000D02*
X6918000Y-4064000D01*
X6858000Y-4004000D01*
X6798000Y-4064000D01*
X6858000Y-4124000D01*
X6985000Y-13903000D02*
X7045000Y-13843000D01*
X6985000Y-13783000D01*
X6925000Y-13843000D01*
X6985000Y-13903000D01*
X8382000Y-4124000D02*
X8442000Y-4064000D01*
X8382000Y-4004000D01*
X8322000Y-4064000D01*
X8382000Y-4124000D01*
X8509000Y-13903000D02*
X8569000Y-13843000D01*
X8509000Y-13783000D01*
X8449000Y-13843000D01*
X8509000Y-13903000D01*
X9906000Y-4124000D02*
X9966000Y-4064000D01*
X9906000Y-4004000D01*
X9846000Y-4064000D01*
X9906000Y-4124000D01*
X10033000Y-13903000D02*
X10093000Y-13843000D01*
X10033000Y-13783000D01*
X9973000Y-13843000D01*
X10033000Y-13903000D01*
X11430000Y-4124000D02*
X11490000Y-4064000D01*
X11430000Y-4004000D01*
X11370000Y-4064000D01*
X11430000Y-4124000D01*
X11557000Y-13903000D02*
X11617000Y-13843000D01*
X11557000Y-13783000D01*
X11497000Y-13843000D01*
X11557000Y-13903000D01*
X12954000Y-4124000D02*
X13014000Y-4064000D01*
X12954000Y-4004000D01*
X12894000Y-4064000D01*
X12954000Y-4124000D01*
X13081000Y-13903000D02*
X13141000Y-13843000D01*
X13081000Y-13783000D01*
X13021000Y-13843000D01*
X13081000Y-13903000D01*
X14478000Y-4124000D02*
X14538000Y-4064000D01*
X14478000Y-4004000D01*
X14418000Y-4064000D01*
X14478000Y-4124000D01*
X14605000Y-13903000D02*
X14665000Y-13843000D01*
X14605000Y-13783000D01*
X14545000Y-13843000D01*
X14605000Y-13903000D01*
X16002000Y-4124000D02*
X16062000Y-4064000D01*
X16002000Y-4004000D01*
X15942000Y-4064000D01*
X16002000Y-4124000D01*
X16129000Y-13903000D02*
X16189000Y-13843000D01*
X16129000Y-13783000D01*
X16069000Y-13843000D01*
X16129000Y-13903000D01*
X17526000Y-4124000D02*
X17586000Y-4064000D01*
X17526000Y-4004000D01*
X17466000Y-4064000D01*
X17526000Y-4124000D01*
X17653000Y-13903000D02*
X17713000Y-13843000D01*
X17653000Y-13783000D01*
X17593000Y-13843000D01*
X17653000Y-13903000D01*
X20625000Y-7544000D02*
X20777000Y-7696000D01*
X20777000Y-7544000D02*
X20625000Y-7696000D01*
X20777000Y-7620000D02*
G75*
G03*
X20777000Y-7620000I-76000J0D01*
G01*
X20625000Y-8052000D02*
X20777000Y-8204000D01*
X20777000Y-8052000D02*
X20625000Y-8204000D01*
X20777000Y-8128000D02*
G75*
G03*
X20777000Y-8128000I-76000J0D01*
G01*
X20625000Y-8560000D02*
X20777000Y-8712000D01*
X20777000Y-8560000D02*
X20625000Y-8712000D01*
X20777000Y-8636000D02*
G75*
G03*
X20777000Y-8636000I-76000J0D01*
G01*
X20625000Y-9068000D02*
X20777000Y-9220000D01*
X20777000Y-9068000D02*
X20625000Y-9220000D01*
X20777000Y-9144000D02*
G75*
G03*
X20777000Y-9144000I-76000J0D01*
G01*
X20625000Y-9576000D02*
X20777000Y-9728000D01*
X20777000Y-9576000D02*
X20625000Y-9728000D01*
X20777000Y-9652000D02*
G75*
G03*
X20777000Y-9652000I-76000J0D01*
G01*
X20625000Y-10084000D02*
X20777000Y-10236000D01*
X20777000Y-10084000D02*
X20625000Y-10236000D01*
X20777000Y-10160000D02*
G75*
G03*
X20777000Y-10160000I-76000J0D01*
G01*
X5438000Y-1755000D02*
X5738000Y-2055000D01*
X5738000Y-1755000D02*
X5438000Y-2055000D01*
X5588000Y-1755000D02*
X5588000Y-2055000D01*
X5438000Y-1905000D02*
X5738000Y-1905000D01*
X5438000Y-15598000D02*
X5738000Y-15898000D01*
X5738000Y-15598000D02*
X5438000Y-15898000D01*
X5588000Y-15598000D02*
X5588000Y-15898000D01*
X5438000Y-15748000D02*
X5738000Y-15748000D01*
X20932000Y-1755000D02*
X21232000Y-2055000D01*
X21232000Y-1755000D02*
X20932000Y-2055000D01*
X21082000Y-1755000D02*
X21082000Y-2055000D01*
X20932000Y-1905000D02*
X21232000Y-1905000D01*
X20932000Y-15598000D02*
X21232000Y-15898000D01*
X21232000Y-15598000D02*
X20932000Y-15898000D01*
X21082000Y-15598000D02*
X21082000Y-15898000D01*
X20932000Y-15748000D02*
X21232000Y-15748000D01*
D12*
X5363928Y-16724214D02*
X5363928Y-16424214D01*
X5435357Y-16424214D01*
X5478214Y-16438500D01*
X5506786Y-16467071D01*
X5521071Y-16495643D01*
X5535357Y-16552786D01*
X5535357Y-16595643D01*
X5521071Y-16652786D01*
X5506786Y-16681357D01*
X5478214Y-16709929D01*
X5435357Y-16724214D01*
X5363928Y-16724214D01*
X5663928Y-16724214D02*
X5663928Y-16524214D01*
X5663928Y-16581357D02*
X5678214Y-16552786D01*
X5692500Y-16538500D01*
X5721071Y-16524214D01*
X5749643Y-16524214D01*
X5849643Y-16724214D02*
X5849643Y-16524214D01*
X5849643Y-16424214D02*
X5835357Y-16438500D01*
X5849643Y-16452786D01*
X5863928Y-16438500D01*
X5849643Y-16424214D01*
X5849643Y-16452786D01*
X6035357Y-16724214D02*
X6006786Y-16709929D01*
X5992500Y-16681357D01*
X5992500Y-16424214D01*
X6192500Y-16724214D02*
X6163928Y-16709929D01*
X6149643Y-16681357D01*
X6149643Y-16424214D01*
X6535357Y-16724214D02*
X6535357Y-16424214D01*
X6635357Y-16638500D01*
X6735357Y-16424214D01*
X6735357Y-16724214D01*
X7006786Y-16724214D02*
X7006786Y-16567071D01*
X6992500Y-16538500D01*
X6963928Y-16524214D01*
X6906786Y-16524214D01*
X6878214Y-16538500D01*
X7006786Y-16709929D02*
X6978214Y-16724214D01*
X6906786Y-16724214D01*
X6878214Y-16709929D01*
X6863928Y-16681357D01*
X6863928Y-16652786D01*
X6878214Y-16624214D01*
X6906786Y-16609929D01*
X6978214Y-16609929D01*
X7006786Y-16595643D01*
X7149643Y-16524214D02*
X7149643Y-16824214D01*
X7149643Y-16538500D02*
X7178214Y-16524214D01*
X7235357Y-16524214D01*
X7263928Y-16538500D01*
X7278214Y-16552786D01*
X7292500Y-16581357D01*
X7292500Y-16667071D01*
X7278214Y-16695643D01*
X7263928Y-16709929D01*
X7235357Y-16724214D01*
X7178214Y-16724214D01*
X7149643Y-16709929D01*
X7421071Y-16695643D02*
X7435357Y-16709929D01*
X7421071Y-16724214D01*
X7406786Y-16709929D01*
X7421071Y-16695643D01*
X7421071Y-16724214D01*
X7421071Y-16538500D02*
X7435357Y-16552786D01*
X7421071Y-16567071D01*
X7406786Y-16552786D01*
X7421071Y-16538500D01*
X7421071Y-16567071D01*
X5037500Y-17198500D02*
X5077500Y-17238500D01*
X5077500Y-17198500D02*
X5037500Y-17238500D01*
X5421071Y-17054214D02*
X5449643Y-17054214D01*
X5478214Y-17068500D01*
X5492500Y-17082786D01*
X5506786Y-17111357D01*
X5521071Y-17168500D01*
X5521071Y-17239929D01*
X5506786Y-17297072D01*
X5492500Y-17325643D01*
X5478214Y-17339929D01*
X5449643Y-17354214D01*
X5421071Y-17354214D01*
X5392500Y-17339929D01*
X5378214Y-17325643D01*
X5363928Y-17297072D01*
X5349643Y-17239929D01*
X5349643Y-17168500D01*
X5363928Y-17111357D01*
X5378214Y-17082786D01*
X5392500Y-17068500D01*
X5421071Y-17054214D01*
X5649643Y-17325643D02*
X5663928Y-17339929D01*
X5649643Y-17354214D01*
X5635357Y-17339929D01*
X5649643Y-17325643D01*
X5649643Y-17354214D01*
X5921071Y-17154214D02*
X5921071Y-17354214D01*
X5849643Y-17039929D02*
X5778214Y-17254214D01*
X5963928Y-17254214D01*
X6135357Y-17054214D02*
X6163928Y-17054214D01*
X6192500Y-17068500D01*
X6206786Y-17082786D01*
X6221071Y-17111357D01*
X6235357Y-17168500D01*
X6235357Y-17239929D01*
X6221071Y-17297072D01*
X6206786Y-17325643D01*
X6192500Y-17339929D01*
X6163928Y-17354214D01*
X6135357Y-17354214D01*
X6106786Y-17339929D01*
X6092500Y-17325643D01*
X6078214Y-17297072D01*
X6063928Y-17239929D01*
X6063928Y-17168500D01*
X6078214Y-17111357D01*
X6092500Y-17082786D01*
X6106786Y-17068500D01*
X6135357Y-17054214D01*
X6421071Y-17054214D02*
X6449643Y-17054214D01*
X6478214Y-17068500D01*
X6492500Y-17082786D01*
X6506786Y-17111357D01*
X6521071Y-17168500D01*
X6521071Y-17239929D01*
X6506786Y-17297072D01*
X6492500Y-17325643D01*
X6478214Y-17339929D01*
X6449643Y-17354214D01*
X6421071Y-17354214D01*
X6392500Y-17339929D01*
X6378214Y-17325643D01*
X6363928Y-17297072D01*
X6349643Y-17239929D01*
X6349643Y-17168500D01*
X6363928Y-17111357D01*
X6378214Y-17082786D01*
X6392500Y-17068500D01*
X6421071Y-17054214D01*
X6649643Y-17354214D02*
X6649643Y-17154214D01*
X6649643Y-17182786D02*
X6663928Y-17168500D01*
X6692500Y-17154214D01*
X6735357Y-17154214D01*
X6763928Y-17168500D01*
X6778214Y-17197072D01*
X6778214Y-17354214D01*
X6778214Y-17197072D02*
X6792500Y-17168500D01*
X6821071Y-17154214D01*
X6863928Y-17154214D01*
X6892500Y-17168500D01*
X6906786Y-17197072D01*
X6906786Y-17354214D01*
X7049643Y-17354214D02*
X7049643Y-17154214D01*
X7049643Y-17182786D02*
X7063928Y-17168500D01*
X7092500Y-17154214D01*
X7135357Y-17154214D01*
X7163928Y-17168500D01*
X7178214Y-17197072D01*
X7178214Y-17354214D01*
X7178214Y-17197072D02*
X7192500Y-17168500D01*
X7221071Y-17154214D01*
X7263928Y-17154214D01*
X7292500Y-17168500D01*
X7306786Y-17197072D01*
X7306786Y-17354214D01*
X7892500Y-17039929D02*
X7635357Y-17425643D01*
X8278214Y-17054214D02*
X8306786Y-17054214D01*
X8335357Y-17068500D01*
X8349643Y-17082786D01*
X8363928Y-17111357D01*
X8378214Y-17168500D01*
X8378214Y-17239929D01*
X8363928Y-17297072D01*
X8349643Y-17325643D01*
X8335357Y-17339929D01*
X8306786Y-17354214D01*
X8278214Y-17354214D01*
X8249643Y-17339929D01*
X8235357Y-17325643D01*
X8221071Y-17297072D01*
X8206786Y-17239929D01*
X8206786Y-17168500D01*
X8221071Y-17111357D01*
X8235357Y-17082786D01*
X8249643Y-17068500D01*
X8278214Y-17054214D01*
X8506786Y-17325643D02*
X8521071Y-17339929D01*
X8506786Y-17354214D01*
X8492500Y-17339929D01*
X8506786Y-17325643D01*
X8506786Y-17354214D01*
X8706786Y-17054214D02*
X8735357Y-17054214D01*
X8763928Y-17068500D01*
X8778214Y-17082786D01*
X8792500Y-17111357D01*
X8806786Y-17168500D01*
X8806786Y-17239929D01*
X8792500Y-17297072D01*
X8778214Y-17325643D01*
X8763928Y-17339929D01*
X8735357Y-17354214D01*
X8706786Y-17354214D01*
X8678214Y-17339929D01*
X8663928Y-17325643D01*
X8649643Y-17297072D01*
X8635357Y-17239929D01*
X8635357Y-17168500D01*
X8649643Y-17111357D01*
X8663928Y-17082786D01*
X8678214Y-17068500D01*
X8706786Y-17054214D01*
X9092500Y-17354214D02*
X8921071Y-17354214D01*
X9006786Y-17354214D02*
X9006786Y-17054214D01*
X8978214Y-17097072D01*
X8949643Y-17125643D01*
X8921071Y-17139929D01*
X9363928Y-17054214D02*
X9221071Y-17054214D01*
X9206786Y-17197072D01*
X9221071Y-17182786D01*
X9249643Y-17168500D01*
X9321071Y-17168500D01*
X9349643Y-17182786D01*
X9363928Y-17197072D01*
X9378214Y-17225643D01*
X9378214Y-17297072D01*
X9363928Y-17325643D01*
X9349643Y-17339929D01*
X9321071Y-17354214D01*
X9249643Y-17354214D01*
X9221071Y-17339929D01*
X9206786Y-17325643D01*
X9478214Y-17054214D02*
X9678214Y-17054214D01*
X9549643Y-17354214D01*
X9778214Y-17054214D02*
X9778214Y-17111357D01*
X9892500Y-17054214D02*
X9892500Y-17111357D01*
X10335357Y-17468500D02*
X10321071Y-17454214D01*
X10292500Y-17411357D01*
X10278214Y-17382786D01*
X10263928Y-17339929D01*
X10249643Y-17268500D01*
X10249643Y-17211357D01*
X10263928Y-17139929D01*
X10278214Y-17097072D01*
X10292500Y-17068500D01*
X10321071Y-17025643D01*
X10335357Y-17011357D01*
X10421071Y-17054214D02*
X10606786Y-17054214D01*
X10506786Y-17168500D01*
X10549643Y-17168500D01*
X10578214Y-17182786D01*
X10592500Y-17197072D01*
X10606786Y-17225643D01*
X10606786Y-17297072D01*
X10592500Y-17325643D01*
X10578214Y-17339929D01*
X10549643Y-17354214D01*
X10463928Y-17354214D01*
X10435357Y-17339929D01*
X10421071Y-17325643D01*
X10749643Y-17354214D02*
X10806786Y-17354214D01*
X10835357Y-17339929D01*
X10849643Y-17325643D01*
X10878214Y-17282786D01*
X10892500Y-17225643D01*
X10892500Y-17111357D01*
X10878214Y-17082786D01*
X10863928Y-17068500D01*
X10835357Y-17054214D01*
X10778214Y-17054214D01*
X10749643Y-17068500D01*
X10735357Y-17082786D01*
X10721071Y-17111357D01*
X10721071Y-17182786D01*
X10735357Y-17211357D01*
X10749643Y-17225643D01*
X10778214Y-17239929D01*
X10835357Y-17239929D01*
X10863928Y-17225643D01*
X10878214Y-17211357D01*
X10892500Y-17182786D01*
X11249643Y-17354214D02*
X11249643Y-17054214D01*
X11378214Y-17354214D02*
X11378214Y-17197072D01*
X11363928Y-17168500D01*
X11335357Y-17154214D01*
X11292500Y-17154214D01*
X11263928Y-17168500D01*
X11249643Y-17182786D01*
X11563928Y-17354214D02*
X11535357Y-17339929D01*
X11521071Y-17325643D01*
X11506786Y-17297072D01*
X11506786Y-17211357D01*
X11521071Y-17182786D01*
X11535357Y-17168500D01*
X11563928Y-17154214D01*
X11606786Y-17154214D01*
X11635357Y-17168500D01*
X11649643Y-17182786D01*
X11663928Y-17211357D01*
X11663928Y-17297072D01*
X11649643Y-17325643D01*
X11635357Y-17339929D01*
X11606786Y-17354214D01*
X11563928Y-17354214D01*
X11835357Y-17354214D02*
X11806786Y-17339929D01*
X11792500Y-17311357D01*
X11792500Y-17054214D01*
X12063928Y-17339929D02*
X12035357Y-17354214D01*
X11978214Y-17354214D01*
X11949643Y-17339929D01*
X11935357Y-17311357D01*
X11935357Y-17197072D01*
X11949643Y-17168500D01*
X11978214Y-17154214D01*
X12035357Y-17154214D01*
X12063928Y-17168500D01*
X12078214Y-17197072D01*
X12078214Y-17225643D01*
X11935357Y-17254214D01*
X12192500Y-17339929D02*
X12221071Y-17354214D01*
X12278214Y-17354214D01*
X12306786Y-17339929D01*
X12321071Y-17311357D01*
X12321071Y-17297072D01*
X12306786Y-17268500D01*
X12278214Y-17254214D01*
X12235357Y-17254214D01*
X12206786Y-17239929D01*
X12192500Y-17211357D01*
X12192500Y-17197072D01*
X12206786Y-17168500D01*
X12235357Y-17154214D01*
X12278214Y-17154214D01*
X12306786Y-17168500D01*
X12421071Y-17468500D02*
X12435357Y-17454214D01*
X12463928Y-17411357D01*
X12478214Y-17382786D01*
X12492500Y-17339929D01*
X12506786Y-17268500D01*
X12506786Y-17211357D01*
X12492500Y-17139929D01*
X12478214Y-17097072D01*
X12463928Y-17068500D01*
X12435357Y-17025643D01*
X12421071Y-17011357D01*
X5077500Y-17614500D02*
G75*
G03*
X5077500Y-17614500I-40000J0D01*
G01*
X5421071Y-17450214D02*
X5449643Y-17450214D01*
X5478214Y-17464500D01*
X5492500Y-17478786D01*
X5506786Y-17507357D01*
X5521071Y-17564500D01*
X5521071Y-17635929D01*
X5506786Y-17693072D01*
X5492500Y-17721643D01*
X5478214Y-17735929D01*
X5449643Y-17750214D01*
X5421071Y-17750214D01*
X5392500Y-17735929D01*
X5378214Y-17721643D01*
X5363928Y-17693072D01*
X5349643Y-17635929D01*
X5349643Y-17564500D01*
X5363928Y-17507357D01*
X5378214Y-17478786D01*
X5392500Y-17464500D01*
X5421071Y-17450214D01*
X5649643Y-17721643D02*
X5663928Y-17735929D01*
X5649643Y-17750214D01*
X5635357Y-17735929D01*
X5649643Y-17721643D01*
X5649643Y-17750214D01*
X5835357Y-17578786D02*
X5806786Y-17564500D01*
X5792500Y-17550214D01*
X5778214Y-17521643D01*
X5778214Y-17507357D01*
X5792500Y-17478786D01*
X5806786Y-17464500D01*
X5835357Y-17450214D01*
X5892500Y-17450214D01*
X5921071Y-17464500D01*
X5935357Y-17478786D01*
X5949643Y-17507357D01*
X5949643Y-17521643D01*
X5935357Y-17550214D01*
X5921071Y-17564500D01*
X5892500Y-17578786D01*
X5835357Y-17578786D01*
X5806786Y-17593072D01*
X5792500Y-17607357D01*
X5778214Y-17635929D01*
X5778214Y-17693072D01*
X5792500Y-17721643D01*
X5806786Y-17735929D01*
X5835357Y-17750214D01*
X5892500Y-17750214D01*
X5921071Y-17735929D01*
X5935357Y-17721643D01*
X5949643Y-17693072D01*
X5949643Y-17635929D01*
X5935357Y-17607357D01*
X5921071Y-17593072D01*
X5892500Y-17578786D01*
X6135357Y-17450214D02*
X6163928Y-17450214D01*
X6192500Y-17464500D01*
X6206786Y-17478786D01*
X6221071Y-17507357D01*
X6235357Y-17564500D01*
X6235357Y-17635929D01*
X6221071Y-17693072D01*
X6206786Y-17721643D01*
X6192500Y-17735929D01*
X6163928Y-17750214D01*
X6135357Y-17750214D01*
X6106786Y-17735929D01*
X6092500Y-17721643D01*
X6078214Y-17693072D01*
X6063928Y-17635929D01*
X6063928Y-17564500D01*
X6078214Y-17507357D01*
X6092500Y-17478786D01*
X6106786Y-17464500D01*
X6135357Y-17450214D01*
X6421071Y-17450214D02*
X6449643Y-17450214D01*
X6478214Y-17464500D01*
X6492500Y-17478786D01*
X6506786Y-17507357D01*
X6521071Y-17564500D01*
X6521071Y-17635929D01*
X6506786Y-17693072D01*
X6492500Y-17721643D01*
X6478214Y-17735929D01*
X6449643Y-17750214D01*
X6421071Y-17750214D01*
X6392500Y-17735929D01*
X6378214Y-17721643D01*
X6363928Y-17693072D01*
X6349643Y-17635929D01*
X6349643Y-17564500D01*
X6363928Y-17507357D01*
X6378214Y-17478786D01*
X6392500Y-17464500D01*
X6421071Y-17450214D01*
X6649643Y-17750214D02*
X6649643Y-17550214D01*
X6649643Y-17578786D02*
X6663928Y-17564500D01*
X6692500Y-17550214D01*
X6735357Y-17550214D01*
X6763928Y-17564500D01*
X6778214Y-17593072D01*
X6778214Y-17750214D01*
X6778214Y-17593072D02*
X6792500Y-17564500D01*
X6821071Y-17550214D01*
X6863928Y-17550214D01*
X6892500Y-17564500D01*
X6906786Y-17593072D01*
X6906786Y-17750214D01*
X7049643Y-17750214D02*
X7049643Y-17550214D01*
X7049643Y-17578786D02*
X7063928Y-17564500D01*
X7092500Y-17550214D01*
X7135357Y-17550214D01*
X7163928Y-17564500D01*
X7178214Y-17593072D01*
X7178214Y-17750214D01*
X7178214Y-17593072D02*
X7192500Y-17564500D01*
X7221071Y-17550214D01*
X7263928Y-17550214D01*
X7292500Y-17564500D01*
X7306786Y-17593072D01*
X7306786Y-17750214D01*
X7892500Y-17435929D02*
X7635357Y-17821643D01*
X8278214Y-17450214D02*
X8306786Y-17450214D01*
X8335357Y-17464500D01*
X8349643Y-17478786D01*
X8363928Y-17507357D01*
X8378214Y-17564500D01*
X8378214Y-17635929D01*
X8363928Y-17693072D01*
X8349643Y-17721643D01*
X8335357Y-17735929D01*
X8306786Y-17750214D01*
X8278214Y-17750214D01*
X8249643Y-17735929D01*
X8235357Y-17721643D01*
X8221071Y-17693072D01*
X8206786Y-17635929D01*
X8206786Y-17564500D01*
X8221071Y-17507357D01*
X8235357Y-17478786D01*
X8249643Y-17464500D01*
X8278214Y-17450214D01*
X8506786Y-17721643D02*
X8521071Y-17735929D01*
X8506786Y-17750214D01*
X8492500Y-17735929D01*
X8506786Y-17721643D01*
X8506786Y-17750214D01*
X8706786Y-17450214D02*
X8735357Y-17450214D01*
X8763928Y-17464500D01*
X8778214Y-17478786D01*
X8792500Y-17507357D01*
X8806786Y-17564500D01*
X8806786Y-17635929D01*
X8792500Y-17693072D01*
X8778214Y-17721643D01*
X8763928Y-17735929D01*
X8735357Y-17750214D01*
X8706786Y-17750214D01*
X8678214Y-17735929D01*
X8663928Y-17721643D01*
X8649643Y-17693072D01*
X8635357Y-17635929D01*
X8635357Y-17564500D01*
X8649643Y-17507357D01*
X8663928Y-17478786D01*
X8678214Y-17464500D01*
X8706786Y-17450214D01*
X8906786Y-17450214D02*
X9092500Y-17450214D01*
X8992500Y-17564500D01*
X9035357Y-17564500D01*
X9063928Y-17578786D01*
X9078214Y-17593072D01*
X9092500Y-17621643D01*
X9092500Y-17693072D01*
X9078214Y-17721643D01*
X9063928Y-17735929D01*
X9035357Y-17750214D01*
X8949643Y-17750214D01*
X8921071Y-17735929D01*
X8906786Y-17721643D01*
X9378214Y-17750214D02*
X9206786Y-17750214D01*
X9292500Y-17750214D02*
X9292500Y-17450214D01*
X9263928Y-17493072D01*
X9235357Y-17521643D01*
X9206786Y-17535929D01*
X9649643Y-17450214D02*
X9506786Y-17450214D01*
X9492500Y-17593072D01*
X9506786Y-17578786D01*
X9535357Y-17564500D01*
X9606786Y-17564500D01*
X9635357Y-17578786D01*
X9649643Y-17593072D01*
X9663928Y-17621643D01*
X9663928Y-17693072D01*
X9649643Y-17721643D01*
X9635357Y-17735929D01*
X9606786Y-17750214D01*
X9535357Y-17750214D01*
X9506786Y-17735929D01*
X9492500Y-17721643D01*
X9778214Y-17450214D02*
X9778214Y-17507357D01*
X9892500Y-17450214D02*
X9892500Y-17507357D01*
X10335357Y-17864500D02*
X10321071Y-17850214D01*
X10292500Y-17807357D01*
X10278214Y-17778786D01*
X10263928Y-17735929D01*
X10249643Y-17664500D01*
X10249643Y-17607357D01*
X10263928Y-17535929D01*
X10278214Y-17493072D01*
X10292500Y-17464500D01*
X10321071Y-17421643D01*
X10335357Y-17407357D01*
X10421071Y-17450214D02*
X10606786Y-17450214D01*
X10506786Y-17564500D01*
X10549643Y-17564500D01*
X10578214Y-17578786D01*
X10592500Y-17593072D01*
X10606786Y-17621643D01*
X10606786Y-17693072D01*
X10592500Y-17721643D01*
X10578214Y-17735929D01*
X10549643Y-17750214D01*
X10463928Y-17750214D01*
X10435357Y-17735929D01*
X10421071Y-17721643D01*
X10706786Y-17450214D02*
X10892500Y-17450214D01*
X10792500Y-17564500D01*
X10835357Y-17564500D01*
X10863928Y-17578786D01*
X10878214Y-17593072D01*
X10892500Y-17621643D01*
X10892500Y-17693072D01*
X10878214Y-17721643D01*
X10863928Y-17735929D01*
X10835357Y-17750214D01*
X10749643Y-17750214D01*
X10721071Y-17735929D01*
X10706786Y-17721643D01*
X11178214Y-17750214D02*
X11006786Y-17750214D01*
X11092500Y-17750214D02*
X11092500Y-17450214D01*
X11063928Y-17493072D01*
X11035357Y-17521643D01*
X11006786Y-17535929D01*
X11535357Y-17750214D02*
X11535357Y-17450214D01*
X11663928Y-17750214D02*
X11663928Y-17593072D01*
X11649643Y-17564500D01*
X11621071Y-17550214D01*
X11578214Y-17550214D01*
X11549643Y-17564500D01*
X11535357Y-17578786D01*
X11849643Y-17750214D02*
X11821071Y-17735929D01*
X11806786Y-17721643D01*
X11792500Y-17693072D01*
X11792500Y-17607357D01*
X11806786Y-17578786D01*
X11821071Y-17564500D01*
X11849643Y-17550214D01*
X11892500Y-17550214D01*
X11921071Y-17564500D01*
X11935357Y-17578786D01*
X11949643Y-17607357D01*
X11949643Y-17693072D01*
X11935357Y-17721643D01*
X11921071Y-17735929D01*
X11892500Y-17750214D01*
X11849643Y-17750214D01*
X12121071Y-17750214D02*
X12092500Y-17735929D01*
X12078214Y-17707357D01*
X12078214Y-17450214D01*
X12349643Y-17735929D02*
X12321071Y-17750214D01*
X12263928Y-17750214D01*
X12235357Y-17735929D01*
X12221071Y-17707357D01*
X12221071Y-17593072D01*
X12235357Y-17564500D01*
X12263928Y-17550214D01*
X12321071Y-17550214D01*
X12349643Y-17564500D01*
X12363928Y-17593072D01*
X12363928Y-17621643D01*
X12221071Y-17650214D01*
X12478214Y-17735929D02*
X12506786Y-17750214D01*
X12563928Y-17750214D01*
X12592500Y-17735929D01*
X12606786Y-17707357D01*
X12606786Y-17693072D01*
X12592500Y-17664500D01*
X12563928Y-17650214D01*
X12521071Y-17650214D01*
X12492500Y-17635929D01*
X12478214Y-17607357D01*
X12478214Y-17593072D01*
X12492500Y-17564500D01*
X12521071Y-17550214D01*
X12563928Y-17550214D01*
X12592500Y-17564500D01*
X12706786Y-17864500D02*
X12721071Y-17850214D01*
X12749643Y-17807357D01*
X12763928Y-17778786D01*
X12778214Y-17735929D01*
X12792500Y-17664500D01*
X12792500Y-17607357D01*
X12778214Y-17535929D01*
X12763928Y-17493072D01*
X12749643Y-17464500D01*
X12721071Y-17421643D01*
X12706786Y-17407357D01*
X5027500Y-17960500D02*
X5027500Y-18060500D01*
X4977500Y-18010500D02*
X5077500Y-18010500D01*
X5521071Y-18146214D02*
X5349643Y-18146214D01*
X5435357Y-18146214D02*
X5435357Y-17846214D01*
X5406786Y-17889072D01*
X5378214Y-17917643D01*
X5349643Y-17931929D01*
X5649643Y-18117643D02*
X5663928Y-18131929D01*
X5649643Y-18146214D01*
X5635357Y-18131929D01*
X5649643Y-18117643D01*
X5649643Y-18146214D01*
X5849643Y-17846214D02*
X5878214Y-17846214D01*
X5906786Y-17860500D01*
X5921071Y-17874786D01*
X5935357Y-17903357D01*
X5949643Y-17960500D01*
X5949643Y-18031929D01*
X5935357Y-18089072D01*
X5921071Y-18117643D01*
X5906786Y-18131929D01*
X5878214Y-18146214D01*
X5849643Y-18146214D01*
X5821071Y-18131929D01*
X5806786Y-18117643D01*
X5792500Y-18089072D01*
X5778214Y-18031929D01*
X5778214Y-17960500D01*
X5792500Y-17903357D01*
X5806786Y-17874786D01*
X5821071Y-17860500D01*
X5849643Y-17846214D01*
X6135357Y-17846214D02*
X6163928Y-17846214D01*
X6192500Y-17860500D01*
X6206786Y-17874786D01*
X6221071Y-17903357D01*
X6235357Y-17960500D01*
X6235357Y-18031929D01*
X6221071Y-18089072D01*
X6206786Y-18117643D01*
X6192500Y-18131929D01*
X6163928Y-18146214D01*
X6135357Y-18146214D01*
X6106786Y-18131929D01*
X6092500Y-18117643D01*
X6078214Y-18089072D01*
X6063928Y-18031929D01*
X6063928Y-17960500D01*
X6078214Y-17903357D01*
X6092500Y-17874786D01*
X6106786Y-17860500D01*
X6135357Y-17846214D01*
X6421071Y-17846214D02*
X6449643Y-17846214D01*
X6478214Y-17860500D01*
X6492500Y-17874786D01*
X6506786Y-17903357D01*
X6521071Y-17960500D01*
X6521071Y-18031929D01*
X6506786Y-18089072D01*
X6492500Y-18117643D01*
X6478214Y-18131929D01*
X6449643Y-18146214D01*
X6421071Y-18146214D01*
X6392500Y-18131929D01*
X6378214Y-18117643D01*
X6363928Y-18089072D01*
X6349643Y-18031929D01*
X6349643Y-17960500D01*
X6363928Y-17903357D01*
X6378214Y-17874786D01*
X6392500Y-17860500D01*
X6421071Y-17846214D01*
X6649643Y-18146214D02*
X6649643Y-17946214D01*
X6649643Y-17974786D02*
X6663928Y-17960500D01*
X6692500Y-17946214D01*
X6735357Y-17946214D01*
X6763928Y-17960500D01*
X6778214Y-17989072D01*
X6778214Y-18146214D01*
X6778214Y-17989072D02*
X6792500Y-17960500D01*
X6821071Y-17946214D01*
X6863928Y-17946214D01*
X6892500Y-17960500D01*
X6906786Y-17989072D01*
X6906786Y-18146214D01*
X7049643Y-18146214D02*
X7049643Y-17946214D01*
X7049643Y-17974786D02*
X7063928Y-17960500D01*
X7092500Y-17946214D01*
X7135357Y-17946214D01*
X7163928Y-17960500D01*
X7178214Y-17989072D01*
X7178214Y-18146214D01*
X7178214Y-17989072D02*
X7192500Y-17960500D01*
X7221071Y-17946214D01*
X7263928Y-17946214D01*
X7292500Y-17960500D01*
X7306786Y-17989072D01*
X7306786Y-18146214D01*
X7892500Y-17831929D02*
X7635357Y-18217643D01*
X8278214Y-17846214D02*
X8306786Y-17846214D01*
X8335357Y-17860500D01*
X8349643Y-17874786D01*
X8363928Y-17903357D01*
X8378214Y-17960500D01*
X8378214Y-18031929D01*
X8363928Y-18089072D01*
X8349643Y-18117643D01*
X8335357Y-18131929D01*
X8306786Y-18146214D01*
X8278214Y-18146214D01*
X8249643Y-18131929D01*
X8235357Y-18117643D01*
X8221071Y-18089072D01*
X8206786Y-18031929D01*
X8206786Y-17960500D01*
X8221071Y-17903357D01*
X8235357Y-17874786D01*
X8249643Y-17860500D01*
X8278214Y-17846214D01*
X8506786Y-18117643D02*
X8521071Y-18131929D01*
X8506786Y-18146214D01*
X8492500Y-18131929D01*
X8506786Y-18117643D01*
X8506786Y-18146214D01*
X8706786Y-17846214D02*
X8735357Y-17846214D01*
X8763928Y-17860500D01*
X8778214Y-17874786D01*
X8792500Y-17903357D01*
X8806786Y-17960500D01*
X8806786Y-18031929D01*
X8792500Y-18089072D01*
X8778214Y-18117643D01*
X8763928Y-18131929D01*
X8735357Y-18146214D01*
X8706786Y-18146214D01*
X8678214Y-18131929D01*
X8663928Y-18117643D01*
X8649643Y-18089072D01*
X8635357Y-18031929D01*
X8635357Y-17960500D01*
X8649643Y-17903357D01*
X8663928Y-17874786D01*
X8678214Y-17860500D01*
X8706786Y-17846214D01*
X8906786Y-17846214D02*
X9092500Y-17846214D01*
X8992500Y-17960500D01*
X9035357Y-17960500D01*
X9063928Y-17974786D01*
X9078214Y-17989072D01*
X9092500Y-18017643D01*
X9092500Y-18089072D01*
X9078214Y-18117643D01*
X9063928Y-18131929D01*
X9035357Y-18146214D01*
X8949643Y-18146214D01*
X8921071Y-18131929D01*
X8906786Y-18117643D01*
X9235357Y-18146214D02*
X9292500Y-18146214D01*
X9321071Y-18131929D01*
X9335357Y-18117643D01*
X9363928Y-18074786D01*
X9378214Y-18017643D01*
X9378214Y-17903357D01*
X9363928Y-17874786D01*
X9349643Y-17860500D01*
X9321071Y-17846214D01*
X9263928Y-17846214D01*
X9235357Y-17860500D01*
X9221071Y-17874786D01*
X9206786Y-17903357D01*
X9206786Y-17974786D01*
X9221071Y-18003357D01*
X9235357Y-18017643D01*
X9263928Y-18031929D01*
X9321071Y-18031929D01*
X9349643Y-18017643D01*
X9363928Y-18003357D01*
X9378214Y-17974786D01*
X9635357Y-17946214D02*
X9635357Y-18146214D01*
X9563928Y-17831929D02*
X9492500Y-18046214D01*
X9678214Y-18046214D01*
X9778214Y-17846214D02*
X9778214Y-17903357D01*
X9892500Y-17846214D02*
X9892500Y-17903357D01*
X10335357Y-18260500D02*
X10321071Y-18246214D01*
X10292500Y-18203357D01*
X10278214Y-18174786D01*
X10263928Y-18131929D01*
X10249643Y-18060500D01*
X10249643Y-18003357D01*
X10263928Y-17931929D01*
X10278214Y-17889072D01*
X10292500Y-17860500D01*
X10321071Y-17817643D01*
X10335357Y-17803357D01*
X10435357Y-17874786D02*
X10449643Y-17860500D01*
X10478214Y-17846214D01*
X10549643Y-17846214D01*
X10578214Y-17860500D01*
X10592500Y-17874786D01*
X10606786Y-17903357D01*
X10606786Y-17931929D01*
X10592500Y-17974786D01*
X10421071Y-18146214D01*
X10606786Y-18146214D01*
X10878214Y-17846214D02*
X10735357Y-17846214D01*
X10721071Y-17989072D01*
X10735357Y-17974786D01*
X10763928Y-17960500D01*
X10835357Y-17960500D01*
X10863928Y-17974786D01*
X10878214Y-17989072D01*
X10892500Y-18017643D01*
X10892500Y-18089072D01*
X10878214Y-18117643D01*
X10863928Y-18131929D01*
X10835357Y-18146214D01*
X10763928Y-18146214D01*
X10735357Y-18131929D01*
X10721071Y-18117643D01*
X11249643Y-18146214D02*
X11249643Y-17846214D01*
X11378214Y-18146214D02*
X11378214Y-17989072D01*
X11363928Y-17960500D01*
X11335357Y-17946214D01*
X11292500Y-17946214D01*
X11263928Y-17960500D01*
X11249643Y-17974786D01*
X11563928Y-18146214D02*
X11535357Y-18131929D01*
X11521071Y-18117643D01*
X11506786Y-18089072D01*
X11506786Y-18003357D01*
X11521071Y-17974786D01*
X11535357Y-17960500D01*
X11563928Y-17946214D01*
X11606786Y-17946214D01*
X11635357Y-17960500D01*
X11649643Y-17974786D01*
X11663928Y-18003357D01*
X11663928Y-18089072D01*
X11649643Y-18117643D01*
X11635357Y-18131929D01*
X11606786Y-18146214D01*
X11563928Y-18146214D01*
X11835357Y-18146214D02*
X11806786Y-18131929D01*
X11792500Y-18103357D01*
X11792500Y-17846214D01*
X12063928Y-18131929D02*
X12035357Y-18146214D01*
X11978214Y-18146214D01*
X11949643Y-18131929D01*
X11935357Y-18103357D01*
X11935357Y-17989072D01*
X11949643Y-17960500D01*
X11978214Y-17946214D01*
X12035357Y-17946214D01*
X12063928Y-17960500D01*
X12078214Y-17989072D01*
X12078214Y-18017643D01*
X11935357Y-18046214D01*
X12192500Y-18131929D02*
X12221071Y-18146214D01*
X12278214Y-18146214D01*
X12306786Y-18131929D01*
X12321071Y-18103357D01*
X12321071Y-18089072D01*
X12306786Y-18060500D01*
X12278214Y-18046214D01*
X12235357Y-18046214D01*
X12206786Y-18031929D01*
X12192500Y-18003357D01*
X12192500Y-17989072D01*
X12206786Y-17960500D01*
X12235357Y-17946214D01*
X12278214Y-17946214D01*
X12306786Y-17960500D01*
X12421071Y-18260500D02*
X12435357Y-18246214D01*
X12463928Y-18203357D01*
X12478214Y-18174786D01*
X12492500Y-18131929D01*
X12506786Y-18060500D01*
X12506786Y-18003357D01*
X12492500Y-17931929D01*
X12478214Y-17889072D01*
X12463928Y-17860500D01*
X12435357Y-17817643D01*
X12421071Y-17803357D01*
X5061391Y-18445391D02*
X5061391Y-18367609D01*
X4983609Y-18367609D01*
X4983609Y-18445391D01*
X5061391Y-18445391D01*
X5521071Y-18542214D02*
X5349643Y-18542214D01*
X5435357Y-18542214D02*
X5435357Y-18242214D01*
X5406786Y-18285072D01*
X5378214Y-18313643D01*
X5349643Y-18327929D01*
X5649643Y-18513643D02*
X5663928Y-18527929D01*
X5649643Y-18542214D01*
X5635357Y-18527929D01*
X5649643Y-18513643D01*
X5649643Y-18542214D01*
X5949643Y-18542214D02*
X5778214Y-18542214D01*
X5863928Y-18542214D02*
X5863928Y-18242214D01*
X5835357Y-18285072D01*
X5806786Y-18313643D01*
X5778214Y-18327929D01*
X6135357Y-18242214D02*
X6163928Y-18242214D01*
X6192500Y-18256500D01*
X6206786Y-18270786D01*
X6221071Y-18299357D01*
X6235357Y-18356500D01*
X6235357Y-18427929D01*
X6221071Y-18485072D01*
X6206786Y-18513643D01*
X6192500Y-18527929D01*
X6163928Y-18542214D01*
X6135357Y-18542214D01*
X6106786Y-18527929D01*
X6092500Y-18513643D01*
X6078214Y-18485072D01*
X6063928Y-18427929D01*
X6063928Y-18356500D01*
X6078214Y-18299357D01*
X6092500Y-18270786D01*
X6106786Y-18256500D01*
X6135357Y-18242214D01*
X6421071Y-18242214D02*
X6449643Y-18242214D01*
X6478214Y-18256500D01*
X6492500Y-18270786D01*
X6506786Y-18299357D01*
X6521071Y-18356500D01*
X6521071Y-18427929D01*
X6506786Y-18485072D01*
X6492500Y-18513643D01*
X6478214Y-18527929D01*
X6449643Y-18542214D01*
X6421071Y-18542214D01*
X6392500Y-18527929D01*
X6378214Y-18513643D01*
X6363928Y-18485072D01*
X6349643Y-18427929D01*
X6349643Y-18356500D01*
X6363928Y-18299357D01*
X6378214Y-18270786D01*
X6392500Y-18256500D01*
X6421071Y-18242214D01*
X6649643Y-18542214D02*
X6649643Y-18342214D01*
X6649643Y-18370786D02*
X6663928Y-18356500D01*
X6692500Y-18342214D01*
X6735357Y-18342214D01*
X6763928Y-18356500D01*
X6778214Y-18385072D01*
X6778214Y-18542214D01*
X6778214Y-18385072D02*
X6792500Y-18356500D01*
X6821071Y-18342214D01*
X6863928Y-18342214D01*
X6892500Y-18356500D01*
X6906786Y-18385072D01*
X6906786Y-18542214D01*
X7049643Y-18542214D02*
X7049643Y-18342214D01*
X7049643Y-18370786D02*
X7063928Y-18356500D01*
X7092500Y-18342214D01*
X7135357Y-18342214D01*
X7163928Y-18356500D01*
X7178214Y-18385072D01*
X7178214Y-18542214D01*
X7178214Y-18385072D02*
X7192500Y-18356500D01*
X7221071Y-18342214D01*
X7263928Y-18342214D01*
X7292500Y-18356500D01*
X7306786Y-18385072D01*
X7306786Y-18542214D01*
X7892500Y-18227929D02*
X7635357Y-18613643D01*
X8278214Y-18242214D02*
X8306786Y-18242214D01*
X8335357Y-18256500D01*
X8349643Y-18270786D01*
X8363928Y-18299357D01*
X8378214Y-18356500D01*
X8378214Y-18427929D01*
X8363928Y-18485072D01*
X8349643Y-18513643D01*
X8335357Y-18527929D01*
X8306786Y-18542214D01*
X8278214Y-18542214D01*
X8249643Y-18527929D01*
X8235357Y-18513643D01*
X8221071Y-18485072D01*
X8206786Y-18427929D01*
X8206786Y-18356500D01*
X8221071Y-18299357D01*
X8235357Y-18270786D01*
X8249643Y-18256500D01*
X8278214Y-18242214D01*
X8506786Y-18513643D02*
X8521071Y-18527929D01*
X8506786Y-18542214D01*
X8492500Y-18527929D01*
X8506786Y-18513643D01*
X8506786Y-18542214D01*
X8706786Y-18242214D02*
X8735357Y-18242214D01*
X8763928Y-18256500D01*
X8778214Y-18270786D01*
X8792500Y-18299357D01*
X8806786Y-18356500D01*
X8806786Y-18427929D01*
X8792500Y-18485072D01*
X8778214Y-18513643D01*
X8763928Y-18527929D01*
X8735357Y-18542214D01*
X8706786Y-18542214D01*
X8678214Y-18527929D01*
X8663928Y-18513643D01*
X8649643Y-18485072D01*
X8635357Y-18427929D01*
X8635357Y-18356500D01*
X8649643Y-18299357D01*
X8663928Y-18270786D01*
X8678214Y-18256500D01*
X8706786Y-18242214D01*
X9063928Y-18342214D02*
X9063928Y-18542214D01*
X8992500Y-18227929D02*
X8921071Y-18442214D01*
X9106786Y-18442214D01*
X9192500Y-18242214D02*
X9378214Y-18242214D01*
X9278214Y-18356500D01*
X9321071Y-18356500D01*
X9349643Y-18370786D01*
X9363928Y-18385072D01*
X9378214Y-18413643D01*
X9378214Y-18485072D01*
X9363928Y-18513643D01*
X9349643Y-18527929D01*
X9321071Y-18542214D01*
X9235357Y-18542214D01*
X9206786Y-18527929D01*
X9192500Y-18513643D01*
X9478214Y-18242214D02*
X9663928Y-18242214D01*
X9563928Y-18356500D01*
X9606786Y-18356500D01*
X9635357Y-18370786D01*
X9649643Y-18385072D01*
X9663928Y-18413643D01*
X9663928Y-18485072D01*
X9649643Y-18513643D01*
X9635357Y-18527929D01*
X9606786Y-18542214D01*
X9521071Y-18542214D01*
X9492500Y-18527929D01*
X9478214Y-18513643D01*
X9778214Y-18242214D02*
X9778214Y-18299357D01*
X9892500Y-18242214D02*
X9892500Y-18299357D01*
X10335357Y-18656500D02*
X10321071Y-18642214D01*
X10292500Y-18599357D01*
X10278214Y-18570786D01*
X10263928Y-18527929D01*
X10249643Y-18456500D01*
X10249643Y-18399357D01*
X10263928Y-18327929D01*
X10278214Y-18285072D01*
X10292500Y-18256500D01*
X10321071Y-18213643D01*
X10335357Y-18199357D01*
X10435357Y-18270786D02*
X10449643Y-18256500D01*
X10478214Y-18242214D01*
X10549643Y-18242214D01*
X10578214Y-18256500D01*
X10592500Y-18270786D01*
X10606786Y-18299357D01*
X10606786Y-18327929D01*
X10592500Y-18370786D01*
X10421071Y-18542214D01*
X10606786Y-18542214D01*
X10863928Y-18242214D02*
X10806786Y-18242214D01*
X10778214Y-18256500D01*
X10763928Y-18270786D01*
X10735357Y-18313643D01*
X10721071Y-18370786D01*
X10721071Y-18485072D01*
X10735357Y-18513643D01*
X10749643Y-18527929D01*
X10778214Y-18542214D01*
X10835357Y-18542214D01*
X10863928Y-18527929D01*
X10878214Y-18513643D01*
X10892500Y-18485072D01*
X10892500Y-18413643D01*
X10878214Y-18385072D01*
X10863928Y-18370786D01*
X10835357Y-18356500D01*
X10778214Y-18356500D01*
X10749643Y-18370786D01*
X10735357Y-18385072D01*
X10721071Y-18413643D01*
X11249643Y-18542214D02*
X11249643Y-18242214D01*
X11378214Y-18542214D02*
X11378214Y-18385072D01*
X11363928Y-18356500D01*
X11335357Y-18342214D01*
X11292500Y-18342214D01*
X11263928Y-18356500D01*
X11249643Y-18370786D01*
X11563928Y-18542214D02*
X11535357Y-18527929D01*
X11521071Y-18513643D01*
X11506786Y-18485072D01*
X11506786Y-18399357D01*
X11521071Y-18370786D01*
X11535357Y-18356500D01*
X11563928Y-18342214D01*
X11606786Y-18342214D01*
X11635357Y-18356500D01*
X11649643Y-18370786D01*
X11663928Y-18399357D01*
X11663928Y-18485072D01*
X11649643Y-18513643D01*
X11635357Y-18527929D01*
X11606786Y-18542214D01*
X11563928Y-18542214D01*
X11835357Y-18542214D02*
X11806786Y-18527929D01*
X11792500Y-18499357D01*
X11792500Y-18242214D01*
X12063928Y-18527929D02*
X12035357Y-18542214D01*
X11978214Y-18542214D01*
X11949643Y-18527929D01*
X11935357Y-18499357D01*
X11935357Y-18385072D01*
X11949643Y-18356500D01*
X11978214Y-18342214D01*
X12035357Y-18342214D01*
X12063928Y-18356500D01*
X12078214Y-18385072D01*
X12078214Y-18413643D01*
X11935357Y-18442214D01*
X12192500Y-18527929D02*
X12221071Y-18542214D01*
X12278214Y-18542214D01*
X12306786Y-18527929D01*
X12321071Y-18499357D01*
X12321071Y-18485072D01*
X12306786Y-18456500D01*
X12278214Y-18442214D01*
X12235357Y-18442214D01*
X12206786Y-18427929D01*
X12192500Y-18399357D01*
X12192500Y-18385072D01*
X12206786Y-18356500D01*
X12235357Y-18342214D01*
X12278214Y-18342214D01*
X12306786Y-18356500D01*
X12421071Y-18656500D02*
X12435357Y-18642214D01*
X12463928Y-18599357D01*
X12478214Y-18570786D01*
X12492500Y-18527929D01*
X12506786Y-18456500D01*
X12506786Y-18399357D01*
X12492500Y-18327929D01*
X12478214Y-18285072D01*
X12463928Y-18256500D01*
X12435357Y-18213643D01*
X12421071Y-18199357D01*
X5017500Y-18862500D02*
X5077500Y-18802500D01*
X5017500Y-18742500D01*
X4957500Y-18802500D01*
X5017500Y-18862500D01*
X5521071Y-18938214D02*
X5349643Y-18938214D01*
X5435357Y-18938214D02*
X5435357Y-18638214D01*
X5406786Y-18681072D01*
X5378214Y-18709643D01*
X5349643Y-18723929D01*
X5649643Y-18909643D02*
X5663928Y-18923929D01*
X5649643Y-18938214D01*
X5635357Y-18923929D01*
X5649643Y-18909643D01*
X5649643Y-18938214D01*
X5778214Y-18666786D02*
X5792500Y-18652500D01*
X5821071Y-18638214D01*
X5892500Y-18638214D01*
X5921071Y-18652500D01*
X5935357Y-18666786D01*
X5949643Y-18695357D01*
X5949643Y-18723929D01*
X5935357Y-18766786D01*
X5763928Y-18938214D01*
X5949643Y-18938214D01*
X6135357Y-18638214D02*
X6163928Y-18638214D01*
X6192500Y-18652500D01*
X6206786Y-18666786D01*
X6221071Y-18695357D01*
X6235357Y-18752500D01*
X6235357Y-18823929D01*
X6221071Y-18881072D01*
X6206786Y-18909643D01*
X6192500Y-18923929D01*
X6163928Y-18938214D01*
X6135357Y-18938214D01*
X6106786Y-18923929D01*
X6092500Y-18909643D01*
X6078214Y-18881072D01*
X6063928Y-18823929D01*
X6063928Y-18752500D01*
X6078214Y-18695357D01*
X6092500Y-18666786D01*
X6106786Y-18652500D01*
X6135357Y-18638214D01*
X6421071Y-18638214D02*
X6449643Y-18638214D01*
X6478214Y-18652500D01*
X6492500Y-18666786D01*
X6506786Y-18695357D01*
X6521071Y-18752500D01*
X6521071Y-18823929D01*
X6506786Y-18881072D01*
X6492500Y-18909643D01*
X6478214Y-18923929D01*
X6449643Y-18938214D01*
X6421071Y-18938214D01*
X6392500Y-18923929D01*
X6378214Y-18909643D01*
X6363928Y-18881072D01*
X6349643Y-18823929D01*
X6349643Y-18752500D01*
X6363928Y-18695357D01*
X6378214Y-18666786D01*
X6392500Y-18652500D01*
X6421071Y-18638214D01*
X6649643Y-18938214D02*
X6649643Y-18738214D01*
X6649643Y-18766786D02*
X6663928Y-18752500D01*
X6692500Y-18738214D01*
X6735357Y-18738214D01*
X6763928Y-18752500D01*
X6778214Y-18781072D01*
X6778214Y-18938214D01*
X6778214Y-18781072D02*
X6792500Y-18752500D01*
X6821071Y-18738214D01*
X6863928Y-18738214D01*
X6892500Y-18752500D01*
X6906786Y-18781072D01*
X6906786Y-18938214D01*
X7049643Y-18938214D02*
X7049643Y-18738214D01*
X7049643Y-18766786D02*
X7063928Y-18752500D01*
X7092500Y-18738214D01*
X7135357Y-18738214D01*
X7163928Y-18752500D01*
X7178214Y-18781072D01*
X7178214Y-18938214D01*
X7178214Y-18781072D02*
X7192500Y-18752500D01*
X7221071Y-18738214D01*
X7263928Y-18738214D01*
X7292500Y-18752500D01*
X7306786Y-18781072D01*
X7306786Y-18938214D01*
X7892500Y-18623929D02*
X7635357Y-19009643D01*
X8278214Y-18638214D02*
X8306786Y-18638214D01*
X8335357Y-18652500D01*
X8349643Y-18666786D01*
X8363928Y-18695357D01*
X8378214Y-18752500D01*
X8378214Y-18823929D01*
X8363928Y-18881072D01*
X8349643Y-18909643D01*
X8335357Y-18923929D01*
X8306786Y-18938214D01*
X8278214Y-18938214D01*
X8249643Y-18923929D01*
X8235357Y-18909643D01*
X8221071Y-18881072D01*
X8206786Y-18823929D01*
X8206786Y-18752500D01*
X8221071Y-18695357D01*
X8235357Y-18666786D01*
X8249643Y-18652500D01*
X8278214Y-18638214D01*
X8506786Y-18909643D02*
X8521071Y-18923929D01*
X8506786Y-18938214D01*
X8492500Y-18923929D01*
X8506786Y-18909643D01*
X8506786Y-18938214D01*
X8706786Y-18638214D02*
X8735357Y-18638214D01*
X8763928Y-18652500D01*
X8778214Y-18666786D01*
X8792500Y-18695357D01*
X8806786Y-18752500D01*
X8806786Y-18823929D01*
X8792500Y-18881072D01*
X8778214Y-18909643D01*
X8763928Y-18923929D01*
X8735357Y-18938214D01*
X8706786Y-18938214D01*
X8678214Y-18923929D01*
X8663928Y-18909643D01*
X8649643Y-18881072D01*
X8635357Y-18823929D01*
X8635357Y-18752500D01*
X8649643Y-18695357D01*
X8663928Y-18666786D01*
X8678214Y-18652500D01*
X8706786Y-18638214D01*
X9063928Y-18738214D02*
X9063928Y-18938214D01*
X8992500Y-18623929D02*
X8921071Y-18838214D01*
X9106786Y-18838214D01*
X9192500Y-18638214D02*
X9392500Y-18638214D01*
X9263928Y-18938214D01*
X9492500Y-18666786D02*
X9506786Y-18652500D01*
X9535357Y-18638214D01*
X9606786Y-18638214D01*
X9635357Y-18652500D01*
X9649643Y-18666786D01*
X9663928Y-18695357D01*
X9663928Y-18723929D01*
X9649643Y-18766786D01*
X9478214Y-18938214D01*
X9663928Y-18938214D01*
X9778214Y-18638214D02*
X9778214Y-18695357D01*
X9892500Y-18638214D02*
X9892500Y-18695357D01*
X10335357Y-19052500D02*
X10321071Y-19038214D01*
X10292500Y-18995357D01*
X10278214Y-18966786D01*
X10263928Y-18923929D01*
X10249643Y-18852500D01*
X10249643Y-18795357D01*
X10263928Y-18723929D01*
X10278214Y-18681072D01*
X10292500Y-18652500D01*
X10321071Y-18609643D01*
X10335357Y-18595357D01*
X10606786Y-18938214D02*
X10435357Y-18938214D01*
X10521071Y-18938214D02*
X10521071Y-18638214D01*
X10492500Y-18681072D01*
X10463928Y-18709643D01*
X10435357Y-18723929D01*
X10863928Y-18638214D02*
X10806786Y-18638214D01*
X10778214Y-18652500D01*
X10763928Y-18666786D01*
X10735357Y-18709643D01*
X10721071Y-18766786D01*
X10721071Y-18881072D01*
X10735357Y-18909643D01*
X10749643Y-18923929D01*
X10778214Y-18938214D01*
X10835357Y-18938214D01*
X10863928Y-18923929D01*
X10878214Y-18909643D01*
X10892500Y-18881072D01*
X10892500Y-18809643D01*
X10878214Y-18781072D01*
X10863928Y-18766786D01*
X10835357Y-18752500D01*
X10778214Y-18752500D01*
X10749643Y-18766786D01*
X10735357Y-18781072D01*
X10721071Y-18809643D01*
X11249643Y-18938214D02*
X11249643Y-18638214D01*
X11378214Y-18938214D02*
X11378214Y-18781072D01*
X11363928Y-18752500D01*
X11335357Y-18738214D01*
X11292500Y-18738214D01*
X11263928Y-18752500D01*
X11249643Y-18766786D01*
X11563928Y-18938214D02*
X11535357Y-18923929D01*
X11521071Y-18909643D01*
X11506786Y-18881072D01*
X11506786Y-18795357D01*
X11521071Y-18766786D01*
X11535357Y-18752500D01*
X11563928Y-18738214D01*
X11606786Y-18738214D01*
X11635357Y-18752500D01*
X11649643Y-18766786D01*
X11663928Y-18795357D01*
X11663928Y-18881072D01*
X11649643Y-18909643D01*
X11635357Y-18923929D01*
X11606786Y-18938214D01*
X11563928Y-18938214D01*
X11835357Y-18938214D02*
X11806786Y-18923929D01*
X11792500Y-18895357D01*
X11792500Y-18638214D01*
X12063928Y-18923929D02*
X12035357Y-18938214D01*
X11978214Y-18938214D01*
X11949643Y-18923929D01*
X11935357Y-18895357D01*
X11935357Y-18781072D01*
X11949643Y-18752500D01*
X11978214Y-18738214D01*
X12035357Y-18738214D01*
X12063928Y-18752500D01*
X12078214Y-18781072D01*
X12078214Y-18809643D01*
X11935357Y-18838214D01*
X12192500Y-18923929D02*
X12221071Y-18938214D01*
X12278214Y-18938214D01*
X12306786Y-18923929D01*
X12321071Y-18895357D01*
X12321071Y-18881072D01*
X12306786Y-18852500D01*
X12278214Y-18838214D01*
X12235357Y-18838214D01*
X12206786Y-18823929D01*
X12192500Y-18795357D01*
X12192500Y-18781072D01*
X12206786Y-18752500D01*
X12235357Y-18738214D01*
X12278214Y-18738214D01*
X12306786Y-18752500D01*
X12421071Y-19052500D02*
X12435357Y-19038214D01*
X12463928Y-18995357D01*
X12478214Y-18966786D01*
X12492500Y-18923929D01*
X12506786Y-18852500D01*
X12506786Y-18795357D01*
X12492500Y-18723929D01*
X12478214Y-18681072D01*
X12463928Y-18652500D01*
X12435357Y-18609643D01*
X12421071Y-18595357D01*
X4925500Y-19122500D02*
X5077500Y-19274500D01*
X5077500Y-19122500D02*
X4925500Y-19274500D01*
X5077500Y-19198500D02*
G75*
G03*
X5077500Y-19198500I-76000J0D01*
G01*
X5521071Y-19334214D02*
X5349643Y-19334214D01*
X5435357Y-19334214D02*
X5435357Y-19034214D01*
X5406786Y-19077072D01*
X5378214Y-19105643D01*
X5349643Y-19119929D01*
X5649643Y-19305643D02*
X5663928Y-19319929D01*
X5649643Y-19334214D01*
X5635357Y-19319929D01*
X5649643Y-19305643D01*
X5649643Y-19334214D01*
X5935357Y-19034214D02*
X5792500Y-19034214D01*
X5778214Y-19177072D01*
X5792500Y-19162786D01*
X5821071Y-19148500D01*
X5892500Y-19148500D01*
X5921071Y-19162786D01*
X5935357Y-19177072D01*
X5949643Y-19205643D01*
X5949643Y-19277072D01*
X5935357Y-19305643D01*
X5921071Y-19319929D01*
X5892500Y-19334214D01*
X5821071Y-19334214D01*
X5792500Y-19319929D01*
X5778214Y-19305643D01*
X6063928Y-19062786D02*
X6078214Y-19048500D01*
X6106786Y-19034214D01*
X6178214Y-19034214D01*
X6206786Y-19048500D01*
X6221071Y-19062786D01*
X6235357Y-19091357D01*
X6235357Y-19119929D01*
X6221071Y-19162786D01*
X6049643Y-19334214D01*
X6235357Y-19334214D01*
X6421071Y-19034214D02*
X6449643Y-19034214D01*
X6478214Y-19048500D01*
X6492500Y-19062786D01*
X6506786Y-19091357D01*
X6521071Y-19148500D01*
X6521071Y-19219929D01*
X6506786Y-19277072D01*
X6492500Y-19305643D01*
X6478214Y-19319929D01*
X6449643Y-19334214D01*
X6421071Y-19334214D01*
X6392500Y-19319929D01*
X6378214Y-19305643D01*
X6363928Y-19277072D01*
X6349643Y-19219929D01*
X6349643Y-19148500D01*
X6363928Y-19091357D01*
X6378214Y-19062786D01*
X6392500Y-19048500D01*
X6421071Y-19034214D01*
X6649643Y-19334214D02*
X6649643Y-19134214D01*
X6649643Y-19162786D02*
X6663928Y-19148500D01*
X6692500Y-19134214D01*
X6735357Y-19134214D01*
X6763928Y-19148500D01*
X6778214Y-19177072D01*
X6778214Y-19334214D01*
X6778214Y-19177072D02*
X6792500Y-19148500D01*
X6821071Y-19134214D01*
X6863928Y-19134214D01*
X6892500Y-19148500D01*
X6906786Y-19177072D01*
X6906786Y-19334214D01*
X7049643Y-19334214D02*
X7049643Y-19134214D01*
X7049643Y-19162786D02*
X7063928Y-19148500D01*
X7092500Y-19134214D01*
X7135357Y-19134214D01*
X7163928Y-19148500D01*
X7178214Y-19177072D01*
X7178214Y-19334214D01*
X7178214Y-19177072D02*
X7192500Y-19148500D01*
X7221071Y-19134214D01*
X7263928Y-19134214D01*
X7292500Y-19148500D01*
X7306786Y-19177072D01*
X7306786Y-19334214D01*
X7892500Y-19019929D02*
X7635357Y-19405643D01*
X8278214Y-19034214D02*
X8306786Y-19034214D01*
X8335357Y-19048500D01*
X8349643Y-19062786D01*
X8363928Y-19091357D01*
X8378214Y-19148500D01*
X8378214Y-19219929D01*
X8363928Y-19277072D01*
X8349643Y-19305643D01*
X8335357Y-19319929D01*
X8306786Y-19334214D01*
X8278214Y-19334214D01*
X8249643Y-19319929D01*
X8235357Y-19305643D01*
X8221071Y-19277072D01*
X8206786Y-19219929D01*
X8206786Y-19148500D01*
X8221071Y-19091357D01*
X8235357Y-19062786D01*
X8249643Y-19048500D01*
X8278214Y-19034214D01*
X8506786Y-19305643D02*
X8521071Y-19319929D01*
X8506786Y-19334214D01*
X8492500Y-19319929D01*
X8506786Y-19305643D01*
X8506786Y-19334214D01*
X8706786Y-19034214D02*
X8735357Y-19034214D01*
X8763928Y-19048500D01*
X8778214Y-19062786D01*
X8792500Y-19091357D01*
X8806786Y-19148500D01*
X8806786Y-19219929D01*
X8792500Y-19277072D01*
X8778214Y-19305643D01*
X8763928Y-19319929D01*
X8735357Y-19334214D01*
X8706786Y-19334214D01*
X8678214Y-19319929D01*
X8663928Y-19305643D01*
X8649643Y-19277072D01*
X8635357Y-19219929D01*
X8635357Y-19148500D01*
X8649643Y-19091357D01*
X8663928Y-19062786D01*
X8678214Y-19048500D01*
X8706786Y-19034214D01*
X9078214Y-19034214D02*
X8935357Y-19034214D01*
X8921071Y-19177072D01*
X8935357Y-19162786D01*
X8963928Y-19148500D01*
X9035357Y-19148500D01*
X9063928Y-19162786D01*
X9078214Y-19177072D01*
X9092500Y-19205643D01*
X9092500Y-19277072D01*
X9078214Y-19305643D01*
X9063928Y-19319929D01*
X9035357Y-19334214D01*
X8963928Y-19334214D01*
X8935357Y-19319929D01*
X8921071Y-19305643D01*
X9235357Y-19334214D02*
X9292500Y-19334214D01*
X9321071Y-19319929D01*
X9335357Y-19305643D01*
X9363928Y-19262786D01*
X9378214Y-19205643D01*
X9378214Y-19091357D01*
X9363928Y-19062786D01*
X9349643Y-19048500D01*
X9321071Y-19034214D01*
X9263928Y-19034214D01*
X9235357Y-19048500D01*
X9221071Y-19062786D01*
X9206786Y-19091357D01*
X9206786Y-19162786D01*
X9221071Y-19191357D01*
X9235357Y-19205643D01*
X9263928Y-19219929D01*
X9321071Y-19219929D01*
X9349643Y-19205643D01*
X9363928Y-19191357D01*
X9378214Y-19162786D01*
X9549643Y-19162786D02*
X9521071Y-19148500D01*
X9506786Y-19134214D01*
X9492500Y-19105643D01*
X9492500Y-19091357D01*
X9506786Y-19062786D01*
X9521071Y-19048500D01*
X9549643Y-19034214D01*
X9606786Y-19034214D01*
X9635357Y-19048500D01*
X9649643Y-19062786D01*
X9663928Y-19091357D01*
X9663928Y-19105643D01*
X9649643Y-19134214D01*
X9635357Y-19148500D01*
X9606786Y-19162786D01*
X9549643Y-19162786D01*
X9521071Y-19177072D01*
X9506786Y-19191357D01*
X9492500Y-19219929D01*
X9492500Y-19277072D01*
X9506786Y-19305643D01*
X9521071Y-19319929D01*
X9549643Y-19334214D01*
X9606786Y-19334214D01*
X9635357Y-19319929D01*
X9649643Y-19305643D01*
X9663928Y-19277072D01*
X9663928Y-19219929D01*
X9649643Y-19191357D01*
X9635357Y-19177072D01*
X9606786Y-19162786D01*
X9778214Y-19034214D02*
X9778214Y-19091357D01*
X9892500Y-19034214D02*
X9892500Y-19091357D01*
X10335357Y-19448500D02*
X10321071Y-19434214D01*
X10292500Y-19391357D01*
X10278214Y-19362786D01*
X10263928Y-19319929D01*
X10249643Y-19248500D01*
X10249643Y-19191357D01*
X10263928Y-19119929D01*
X10278214Y-19077072D01*
X10292500Y-19048500D01*
X10321071Y-19005643D01*
X10335357Y-18991357D01*
X10578214Y-19034214D02*
X10521071Y-19034214D01*
X10492500Y-19048500D01*
X10478214Y-19062786D01*
X10449643Y-19105643D01*
X10435357Y-19162786D01*
X10435357Y-19277072D01*
X10449643Y-19305643D01*
X10463928Y-19319929D01*
X10492500Y-19334214D01*
X10549643Y-19334214D01*
X10578214Y-19319929D01*
X10592500Y-19305643D01*
X10606786Y-19277072D01*
X10606786Y-19205643D01*
X10592500Y-19177072D01*
X10578214Y-19162786D01*
X10549643Y-19148500D01*
X10492500Y-19148500D01*
X10463928Y-19162786D01*
X10449643Y-19177072D01*
X10435357Y-19205643D01*
X10963928Y-19334214D02*
X10963928Y-19034214D01*
X11092500Y-19334214D02*
X11092500Y-19177072D01*
X11078214Y-19148500D01*
X11049643Y-19134214D01*
X11006786Y-19134214D01*
X10978214Y-19148500D01*
X10963928Y-19162786D01*
X11278214Y-19334214D02*
X11249643Y-19319929D01*
X11235357Y-19305643D01*
X11221071Y-19277072D01*
X11221071Y-19191357D01*
X11235357Y-19162786D01*
X11249643Y-19148500D01*
X11278214Y-19134214D01*
X11321071Y-19134214D01*
X11349643Y-19148500D01*
X11363928Y-19162786D01*
X11378214Y-19191357D01*
X11378214Y-19277072D01*
X11363928Y-19305643D01*
X11349643Y-19319929D01*
X11321071Y-19334214D01*
X11278214Y-19334214D01*
X11549643Y-19334214D02*
X11521071Y-19319929D01*
X11506786Y-19291357D01*
X11506786Y-19034214D01*
X11778214Y-19319929D02*
X11749643Y-19334214D01*
X11692500Y-19334214D01*
X11663928Y-19319929D01*
X11649643Y-19291357D01*
X11649643Y-19177072D01*
X11663928Y-19148500D01*
X11692500Y-19134214D01*
X11749643Y-19134214D01*
X11778214Y-19148500D01*
X11792500Y-19177072D01*
X11792500Y-19205643D01*
X11649643Y-19234214D01*
X11906786Y-19319929D02*
X11935357Y-19334214D01*
X11992500Y-19334214D01*
X12021071Y-19319929D01*
X12035357Y-19291357D01*
X12035357Y-19277072D01*
X12021071Y-19248500D01*
X11992500Y-19234214D01*
X11949643Y-19234214D01*
X11921071Y-19219929D01*
X11906786Y-19191357D01*
X11906786Y-19177072D01*
X11921071Y-19148500D01*
X11949643Y-19134214D01*
X11992500Y-19134214D01*
X12021071Y-19148500D01*
X12135357Y-19448500D02*
X12149643Y-19434214D01*
X12178214Y-19391357D01*
X12192500Y-19362786D01*
X12206786Y-19319929D01*
X12221071Y-19248500D01*
X12221071Y-19191357D01*
X12206786Y-19119929D01*
X12192500Y-19077072D01*
X12178214Y-19048500D01*
X12149643Y-19005643D01*
X12135357Y-18991357D01*
X4777500Y-19444500D02*
X5077500Y-19744500D01*
X5077500Y-19444500D02*
X4777500Y-19744500D01*
X4927500Y-19444500D02*
X4927500Y-19744500D01*
X4777500Y-19594500D02*
X5077500Y-19594500D01*
X5335357Y-19430214D02*
X5521071Y-19430214D01*
X5421071Y-19544500D01*
X5463928Y-19544500D01*
X5492500Y-19558786D01*
X5506786Y-19573072D01*
X5521071Y-19601643D01*
X5521071Y-19673072D01*
X5506786Y-19701643D01*
X5492500Y-19715929D01*
X5463928Y-19730214D01*
X5378214Y-19730214D01*
X5349643Y-19715929D01*
X5335357Y-19701643D01*
X5649643Y-19701643D02*
X5663928Y-19715929D01*
X5649643Y-19730214D01*
X5635357Y-19715929D01*
X5649643Y-19701643D01*
X5649643Y-19730214D01*
X5849643Y-19430214D02*
X5878214Y-19430214D01*
X5906786Y-19444500D01*
X5921071Y-19458786D01*
X5935357Y-19487357D01*
X5949643Y-19544500D01*
X5949643Y-19615929D01*
X5935357Y-19673072D01*
X5921071Y-19701643D01*
X5906786Y-19715929D01*
X5878214Y-19730214D01*
X5849643Y-19730214D01*
X5821071Y-19715929D01*
X5806786Y-19701643D01*
X5792500Y-19673072D01*
X5778214Y-19615929D01*
X5778214Y-19544500D01*
X5792500Y-19487357D01*
X5806786Y-19458786D01*
X5821071Y-19444500D01*
X5849643Y-19430214D01*
X6135357Y-19430214D02*
X6163928Y-19430214D01*
X6192500Y-19444500D01*
X6206786Y-19458786D01*
X6221071Y-19487357D01*
X6235357Y-19544500D01*
X6235357Y-19615929D01*
X6221071Y-19673072D01*
X6206786Y-19701643D01*
X6192500Y-19715929D01*
X6163928Y-19730214D01*
X6135357Y-19730214D01*
X6106786Y-19715929D01*
X6092500Y-19701643D01*
X6078214Y-19673072D01*
X6063928Y-19615929D01*
X6063928Y-19544500D01*
X6078214Y-19487357D01*
X6092500Y-19458786D01*
X6106786Y-19444500D01*
X6135357Y-19430214D01*
X6421071Y-19430214D02*
X6449643Y-19430214D01*
X6478214Y-19444500D01*
X6492500Y-19458786D01*
X6506786Y-19487357D01*
X6521071Y-19544500D01*
X6521071Y-19615929D01*
X6506786Y-19673072D01*
X6492500Y-19701643D01*
X6478214Y-19715929D01*
X6449643Y-19730214D01*
X6421071Y-19730214D01*
X6392500Y-19715929D01*
X6378214Y-19701643D01*
X6363928Y-19673072D01*
X6349643Y-19615929D01*
X6349643Y-19544500D01*
X6363928Y-19487357D01*
X6378214Y-19458786D01*
X6392500Y-19444500D01*
X6421071Y-19430214D01*
X6649643Y-19730214D02*
X6649643Y-19530214D01*
X6649643Y-19558786D02*
X6663928Y-19544500D01*
X6692500Y-19530214D01*
X6735357Y-19530214D01*
X6763928Y-19544500D01*
X6778214Y-19573072D01*
X6778214Y-19730214D01*
X6778214Y-19573072D02*
X6792500Y-19544500D01*
X6821071Y-19530214D01*
X6863928Y-19530214D01*
X6892500Y-19544500D01*
X6906786Y-19573072D01*
X6906786Y-19730214D01*
X7049643Y-19730214D02*
X7049643Y-19530214D01*
X7049643Y-19558786D02*
X7063928Y-19544500D01*
X7092500Y-19530214D01*
X7135357Y-19530214D01*
X7163928Y-19544500D01*
X7178214Y-19573072D01*
X7178214Y-19730214D01*
X7178214Y-19573072D02*
X7192500Y-19544500D01*
X7221071Y-19530214D01*
X7263928Y-19530214D01*
X7292500Y-19544500D01*
X7306786Y-19573072D01*
X7306786Y-19730214D01*
X7892500Y-19415929D02*
X7635357Y-19801643D01*
X8278214Y-19430214D02*
X8306786Y-19430214D01*
X8335357Y-19444500D01*
X8349643Y-19458786D01*
X8363928Y-19487357D01*
X8378214Y-19544500D01*
X8378214Y-19615929D01*
X8363928Y-19673072D01*
X8349643Y-19701643D01*
X8335357Y-19715929D01*
X8306786Y-19730214D01*
X8278214Y-19730214D01*
X8249643Y-19715929D01*
X8235357Y-19701643D01*
X8221071Y-19673072D01*
X8206786Y-19615929D01*
X8206786Y-19544500D01*
X8221071Y-19487357D01*
X8235357Y-19458786D01*
X8249643Y-19444500D01*
X8278214Y-19430214D01*
X8506786Y-19701643D02*
X8521071Y-19715929D01*
X8506786Y-19730214D01*
X8492500Y-19715929D01*
X8506786Y-19701643D01*
X8506786Y-19730214D01*
X8806786Y-19730214D02*
X8635357Y-19730214D01*
X8721071Y-19730214D02*
X8721071Y-19430214D01*
X8692500Y-19473072D01*
X8663928Y-19501643D01*
X8635357Y-19515929D01*
X9092500Y-19730214D02*
X8921071Y-19730214D01*
X9006786Y-19730214D02*
X9006786Y-19430214D01*
X8978214Y-19473072D01*
X8949643Y-19501643D01*
X8921071Y-19515929D01*
X9263928Y-19558786D02*
X9235357Y-19544500D01*
X9221071Y-19530214D01*
X9206786Y-19501643D01*
X9206786Y-19487357D01*
X9221071Y-19458786D01*
X9235357Y-19444500D01*
X9263928Y-19430214D01*
X9321071Y-19430214D01*
X9349643Y-19444500D01*
X9363928Y-19458786D01*
X9378214Y-19487357D01*
X9378214Y-19501643D01*
X9363928Y-19530214D01*
X9349643Y-19544500D01*
X9321071Y-19558786D01*
X9263928Y-19558786D01*
X9235357Y-19573072D01*
X9221071Y-19587357D01*
X9206786Y-19615929D01*
X9206786Y-19673072D01*
X9221071Y-19701643D01*
X9235357Y-19715929D01*
X9263928Y-19730214D01*
X9321071Y-19730214D01*
X9349643Y-19715929D01*
X9363928Y-19701643D01*
X9378214Y-19673072D01*
X9378214Y-19615929D01*
X9363928Y-19587357D01*
X9349643Y-19573072D01*
X9321071Y-19558786D01*
X9663928Y-19730214D02*
X9492500Y-19730214D01*
X9578214Y-19730214D02*
X9578214Y-19430214D01*
X9549643Y-19473072D01*
X9521071Y-19501643D01*
X9492500Y-19515929D01*
X9778214Y-19430214D02*
X9778214Y-19487357D01*
X9892500Y-19430214D02*
X9892500Y-19487357D01*
X10335357Y-19844500D02*
X10321071Y-19830214D01*
X10292500Y-19787357D01*
X10278214Y-19758786D01*
X10263928Y-19715929D01*
X10249643Y-19644500D01*
X10249643Y-19587357D01*
X10263928Y-19515929D01*
X10278214Y-19473072D01*
X10292500Y-19444500D01*
X10321071Y-19401643D01*
X10335357Y-19387357D01*
X10578214Y-19530214D02*
X10578214Y-19730214D01*
X10506786Y-19415929D02*
X10435357Y-19630214D01*
X10621071Y-19630214D01*
X10963928Y-19730214D02*
X10963928Y-19430214D01*
X11092500Y-19730214D02*
X11092500Y-19573072D01*
X11078214Y-19544500D01*
X11049643Y-19530214D01*
X11006786Y-19530214D01*
X10978214Y-19544500D01*
X10963928Y-19558786D01*
X11278214Y-19730214D02*
X11249643Y-19715929D01*
X11235357Y-19701643D01*
X11221071Y-19673072D01*
X11221071Y-19587357D01*
X11235357Y-19558786D01*
X11249643Y-19544500D01*
X11278214Y-19530214D01*
X11321071Y-19530214D01*
X11349643Y-19544500D01*
X11363928Y-19558786D01*
X11378214Y-19587357D01*
X11378214Y-19673072D01*
X11363928Y-19701643D01*
X11349643Y-19715929D01*
X11321071Y-19730214D01*
X11278214Y-19730214D01*
X11549643Y-19730214D02*
X11521071Y-19715929D01*
X11506786Y-19687357D01*
X11506786Y-19430214D01*
X11778214Y-19715929D02*
X11749643Y-19730214D01*
X11692500Y-19730214D01*
X11663928Y-19715929D01*
X11649643Y-19687357D01*
X11649643Y-19573072D01*
X11663928Y-19544500D01*
X11692500Y-19530214D01*
X11749643Y-19530214D01*
X11778214Y-19544500D01*
X11792500Y-19573072D01*
X11792500Y-19601643D01*
X11649643Y-19630214D01*
X11906786Y-19715929D02*
X11935357Y-19730214D01*
X11992500Y-19730214D01*
X12021071Y-19715929D01*
X12035357Y-19687357D01*
X12035357Y-19673072D01*
X12021071Y-19644500D01*
X11992500Y-19630214D01*
X11949643Y-19630214D01*
X11921071Y-19615929D01*
X11906786Y-19587357D01*
X11906786Y-19573072D01*
X11921071Y-19544500D01*
X11949643Y-19530214D01*
X11992500Y-19530214D01*
X12021071Y-19544500D01*
X12135357Y-19844500D02*
X12149643Y-19830214D01*
X12178214Y-19787357D01*
X12192500Y-19758786D01*
X12206786Y-19715929D01*
X12221071Y-19644500D01*
X12221071Y-19587357D01*
X12206786Y-19515929D01*
X12192500Y-19473072D01*
X12178214Y-19444500D01*
X12149643Y-19401643D01*
X12135357Y-19387357D01*
M02*
